<?xml version="1.0" encoding="utf-8"?>
<!-- Generator: Adobe Illustrator 19.2.0, SVG Export Plug-In . SVG Version: 6.00 Build 0)  -->
<svg version="1.1" id="Layer_1" xmlns="http://www.w3.org/2000/svg" xmlns:xlink="http://www.w3.org/1999/xlink" x="0px" y="0px"
	 viewBox="0 0 56.7 56.7" style="enable-background:new 0 0 56.7 56.7;" xml:space="preserve">
<style type="text/css">
	.st0{fill:#FFFFFF;}
</style>
<g>
	<path class="st0" d="M23.6,30c0,0,4.7-0.4,4.7-5.9c0-5.5-3.8-8.2-8.7-8.2h-9h-0.3H3.5v30.8h6.8h0.3h9c0,0,9.8,0.3,9.8-9.1
		C29.3,37.6,29.8,30,23.6,30z M10.6,21.4h7.8h1.2c0,0,2.2,0,2.2,3.2c0,3.2-1.3,3.7-2.7,3.7h-8.4L10.6,21.4L10.6,21.4z M19.1,41.2
		c-0.2,0-0.4,0-0.6,0h-7.9V33h9c0,0,3.2,0,3.2,4.2C22.8,40.8,20.4,41.2,19.1,41.2z"/>
	<path class="st0" d="M42.4,23.7c-11.9,0-11.8,11.8-11.8,11.8s-0.8,11.8,11.8,11.8c0,0,10.5,0.6,10.5-8.2h-5.4c0,0,0.2,3.3-4.9,3.3
		c0,0-5.4,0.4-5.4-5.4h16C53.1,37.1,54.9,23.7,42.4,23.7z M37.1,33c0,0,0.7-4.8,5.4-4.8c4.8,0,4.7,4.8,4.7,4.8H37.1z"/>
	<rect x="35.8" y="17.7" class="st0" width="12.7" height="3.8"/>
</g>
</svg>
