<?xml version="1.0" encoding="utf-8"?>
<!-- Generator: Adobe Illustrator 18.0.0, SVG Export Plug-In . SVG Version: 6.00 Build 0)  -->
<!DOCTYPE svg PUBLIC "-//W3C//DTD SVG 1.1//EN" "http://www.w3.org/Graphics/SVG/1.1/DTD/svg11.dtd">
<svg version="1.1" id="Capa_1" xmlns="http://www.w3.org/2000/svg" xmlns:xlink="http://www.w3.org/1999/xlink" x="0px" y="0px"
	 viewBox="0 0 343.7 47" enable-background="new 0 0 343.7 47" xml:space="preserve">
<path fill="#FFFFFF" d="M56.7,37.8c0,1.6,1.3,2.8,2.8,2.8H88c1.6,0,2.8-1.3,2.8-2.8V17.9c0-1.6-1.3-2.8-2.8-2.8H75.5l5.6-5.6
	c0.7-0.7,0.7-1.8,0-2.5c-0.7-0.7-1.8-0.7-2.5,0l-8,8h0l-5.9-5.9c-0.7-0.7-1.8-0.7-2.5,0c-0.7,0.7-0.7,1.8,0,2.5l3.4,3.4h-6.1
	c-1.6,0-2.8,1.3-2.8,2.8L56.7,37.8L56.7,37.8z M61.8,18.6h17.5c0.9,0,1.6,0.7,1.6,1.6v15.4c0,0.9-0.7,1.6-1.6,1.6H61.8
	c-0.9,0-1.6-0.7-1.6-1.6V20.1C60.2,19.3,60.9,18.6,61.8,18.6z M83.7,20.3c0-1,0.8-1.8,1.8-1.8c1,0,1.8,0.8,1.8,1.8
	c0,1-0.8,1.8-1.8,1.8C84.5,22.1,83.7,21.3,83.7,20.3z M83.7,26c0-1,0.8-1.8,1.8-1.8c1,0,1.8,0.8,1.8,1.8c0,1-0.8,1.8-1.8,1.8
	C84.5,27.8,83.7,27,83.7,26z"/>
<g id="Livello_108">
	<path fill="#FFFFFF" d="M118.3,26.2h-4.8v2.4h0.4v12h4v-12h0.4V26.2L118.3,26.2z M119.2,17.3C119.2,17.3,119.2,17.3,119.2,17.3
		L119.2,17.3V6.9c0-0.4-0.3-0.7-0.7-0.7c-0.4,0-0.7,0.3-0.7,0.7v5.4v2.4V15c-0.1,0.3-0.3,0.5-0.6,0.5c-0.4,0-0.7-0.3-0.7-0.7v-3.6
		V6.9c0-0.4-0.3-0.7-0.7-0.7c-0.4,0-0.7,0.3-0.7,0.7v4.3v3.6c0,0.4-0.3,0.7-0.7,0.7c-0.4,0-0.7-0.3-0.7-0.7V6.9h0c0,0,0,0,0,0
		c0-0.4-0.3-0.6-0.7-0.6c-0.4,0-0.7,0.3-0.7,0.6c0,0,0,0,0,0h0v10.3h0c0,0,0,0,0,0c0,2.6,0.9,4.8,2.1,5.7v3.1h2.5V23
		C118.3,22.1,119.2,19.9,119.2,17.3 M128.5,30.7V16.9V6.2c-2.3,0.7-4,2.8-4,5.3c0,0,0,0,0,0h0v19.1h-0.5v2.6h0.5v7.3h4v-7.3h0.5
		v-2.6H128.5z"/>
</g>
<path fill="#FFFFFF" d="M176.9,14.1c-3.7-1.1-4.8,1-10,1c-5.1,0-6.3-2.1-10-1c-3.7,1.1-5.5,5-7.3,12.2c-1.7,7.3-1.4,12.5,0.6,13.5
	c2,1,4.4-1.3,6.6-4c1.8-2.2,2.7-2.3,10-2.3c7.4,0,8.1,0.1,10,2.3c2.2,2.8,4.5,5,6.6,4s2.4-6.2,0.6-13.5
	C182.4,19,180.5,15.2,176.9,14.1z M156.4,27.5c-1.8,0-3.2-1.5-3.2-3.2c0-1.8,1.4-3.2,3.2-3.2c1.8,0,3.2,1.5,3.2,3.2
	S158.2,27.5,156.4,27.5z M171.3,25.9c-0.9,0-1.6-0.7-1.6-1.6c0-0.9,0.7-1.6,1.6-1.6c0.9,0,1.6,0.7,1.6,1.6
	C172.9,25.1,172.2,25.9,171.3,25.9z M174.7,29.3c-0.9,0-1.6-0.7-1.6-1.6c0-0.9,0.7-1.6,1.6-1.6c0.9,0,1.6,0.7,1.6,1.6
	C176.3,28.6,175.6,29.3,174.7,29.3z M174.7,22.4c-0.9,0-1.6-0.7-1.6-1.6s0.7-1.6,1.6-1.6c0.9,0,1.6,0.7,1.6,1.6
	S175.6,22.4,174.7,22.4z M178.2,25.9c-0.9,0-1.6-0.7-1.6-1.6c0-0.9,0.7-1.6,1.6-1.6s1.6,0.7,1.6,1.6S179.1,25.9,178.2,25.9z"/>
<path fill="#FFFFFF" d="M310.6,37.4c0,0.7,0.7,1.4,1.5,1.4c0.7,0,1.3-0.5,1.4-1.1h0c0-0.6,0.5-1.1,1.2-1.1c0.6,0,1.2,0.5,1.2,1.1
	v0.5c0,1.2,1,2.2,2.3,2.2h2.3c1.3,0,2.3-1,2.3-2.2v-8.1c0-1.2-1-2.2-2.3-2.2h-2.3c-1.3,0-2.3,1-2.3,2.2v0.5c0,0.6-0.5,1.1-1.2,1.1
	c-0.6,0-1.2-0.5-1.2-1.1v-3.3c0-5.7,4.9-10.3,11-10.3s11,4.6,11,10.3v3.3c0,0.6-0.5,1.1-1.2,1.1c-0.6,0-1.2-0.5-1.2-1.1v-0.5
	c0-1.2-1-2.2-2.3-2.2h-2.3c-1.3,0-2.3,1-2.3,2.2v8.1c0,1.2,1,2.2,2.3,2.2h2.3c1.3,0,2.3-1,2.3-2.2v-0.5c0-0.6,0.5-1.1,1.2-1.1
	c0.6,0,1.2,0.5,1.2,1.1h0c0.1,0.6,0.7,1.1,1.4,1.1c0.8,0,1.5-0.6,1.5-1.4v-10c0-7.2-6.2-13-13.9-13c-7.7,0-13.9,5.8-13.9,13V37.4
	L310.6,37.4z"/>
<path fill="#FFFFFF" d="M285.4,18c-2.5-2.5-5.8-3.9-9.4-3.9c-3.5,0-6.9,1.4-9.4,3.9c-2.5,2.5-3.9,5.8-3.9,9.4s1.4,6.9,3.9,9.4
	c2.5,2.5,5.8,3.9,9.4,3.9s6.9-1.4,9.4-3.9c2.5-2.5,3.9-5.8,3.9-9.4S287.9,20.5,285.4,18z M276.4,18.6l3.9-1.1l3.9,2.8l0.1,4
	l-3.8,1.7l-4-2.9V18.6z M271.4,26.6l1.5,4.7l-2.5,2.7l-3.9-1.8l-1-4l2.1-3.1L271.4,26.6z M267.9,24.4l0.1-4.2l3.9-2.7l3.9,1.1v4.4
	l-4.1,3L267.9,24.4z M273.2,31.9h5.8l0-0.1l2.4,2.5l-2,3.2h-6.8l-1.9-3.1L273.2,31.9z M281.9,33.9l-2.6-2.8l1.5-4.6l3.7-1.6l2.2,3.2
	l-1.1,4L281.9,33.9z M286.4,20.5l-2-0.8l-3.9-2.8l-1.2-1.5C282.2,16.2,284.7,18.1,286.4,20.5z M272.9,15.4l-1.2,1.5l-4.2,3l-1.7,0.7
	C267.4,18.1,269.9,16.2,272.9,15.4z M263.7,26.6l1.3,1.9l1,4l-0.1,1.9c-1.4-2-2.2-4.4-2.2-7.1C263.7,27.1,263.7,26.9,263.7,26.6z
	 M270.8,38.6l2.3-0.4h6l2.3,0.4c-1.6,0.8-3.4,1.2-5.3,1.2C274.2,39.8,272.4,39.4,270.8,38.6z M286.3,34.4l-0.1-2.1l1.1-3.9l1.2-1.8
	c0,0.3,0,0.5,0,0.8C288.4,30,287.6,32.4,286.3,34.4z"/>
<polygon fill="#FFFFFF" points="221.8,14.3 205.8,23.1 221.8,31.9 237.9,23.1 "/>
<polygon fill="#FFFFFF" points="232.1,28.7 221.8,34.8 211.6,28.7 211.6,35.1 221.8,40.6 232.1,35.1 "/>
<rect x="234.1" y="23.1" fill="#FFFFFF" width="2.9" height="11.7"/>
<g id="browser-html-coding">
	<g>
		<g id="_x32_6">
			<g>
				<path fill="#FFFFFF" d="M34,14.3H7.7c-1.7,0-3,1.4-3,3.1v20c0,1.7,1.4,3.1,3,3.1H34c1.7,0,3-1.4,3-3.1v-20
					C37.1,15.7,35.7,14.3,34,14.3z M33.7,16.3c0.4,0,0.7,0.3,0.7,0.7c0,0.4-0.3,0.7-0.7,0.7c-0.4,0-0.7-0.3-0.7-0.7
					C33,16.6,33.3,16.3,33.7,16.3z M28.3,16.4h3.4c0.4,0,0.7,0.3,0.7,0.7c0,0.4-0.3,0.7-0.7,0.7h-3.4c-0.4,0-0.7-0.3-0.7-0.7
					C27.6,16.7,27.9,16.4,28.3,16.4z M35.4,37.4c0,0.8-0.6,1.4-1.4,1.4H7.7c-0.8,0-1.4-0.6-1.4-1.4v-18h29.1V37.4z"/>
			</g>
			<g>
				<path fill="#FFFFFF" d="M12.5,30.1l-3-1.3v-0.4l3-1.5v0.7l-2.1,1l2.1,0.9V30.1z"/>
				<path fill="#FFFFFF" d="M16.7,30.7h-0.9v-2c0-0.5-0.2-0.7-0.5-0.7c-0.3,0-0.4,0.1-0.6,0.3c-0.1,0.2-0.2,0.5-0.2,0.9v1.6h-0.9V26
					h0.9v1c0,0.1,0,0.3,0,0.5l0,0.3h0c0.2-0.3,0.5-0.5,1-0.5c0.4,0,0.7,0.1,0.9,0.3c0.2,0.2,0.3,0.5,0.3,0.9L16.7,30.7L16.7,30.7z"
					/>
				<path fill="#FFFFFF" d="M19.3,30c0.2,0,0.4,0,0.6-0.1v0.7c-0.2,0.1-0.5,0.2-0.8,0.2c-0.4,0-0.6-0.1-0.8-0.3
					C18.1,30.3,18,30,18,29.7V28h-0.4v-0.4l0.5-0.3l0.3-0.7h0.6v0.7h0.9V28h-0.9v1.7c0,0.1,0,0.2,0.1,0.3C19.1,30,19.2,30,19.3,30z"
					/>
				<path fill="#FFFFFF" d="M23.9,30.7H23v-2c0-0.2,0-0.4-0.1-0.6C22.8,28,22.7,28,22.5,28c-0.2,0-0.4,0.1-0.5,0.3
					c-0.1,0.2-0.2,0.5-0.2,0.9v1.6h-0.9v-3.4h0.7l0.1,0.4h0.1c0.1-0.2,0.2-0.3,0.4-0.4c0.2-0.1,0.4-0.1,0.6-0.1c0.5,0,0.8,0.2,1,0.5
					h0.1c0.1-0.2,0.2-0.3,0.4-0.4c0.2-0.1,0.4-0.1,0.6-0.1c0.4,0,0.7,0.1,0.9,0.3c0.2,0.2,0.3,0.5,0.3,1v2.2h-0.9v-2
					c0-0.2,0-0.4-0.1-0.6C24.9,28,24.8,28,24.6,28c-0.2,0-0.4,0.1-0.5,0.2c-0.1,0.2-0.2,0.4-0.2,0.8L23.9,30.7L23.9,30.7z"/>
				<path fill="#FFFFFF" d="M28.2,30.7h-0.9V26h0.9V30.7z"/>
				<path fill="#FFFFFF" d="M29.2,29.4l2.1-0.9l-2.1-1v-0.7l3,1.5v0.4l-3,1.3V29.4z"/>
			</g>
		</g>
	</g>
</g>
</svg>
