<?xml version="1.0" encoding="utf-8"?>
<!-- Generator: Adobe Illustrator 19.2.0, SVG Export Plug-In . SVG Version: 6.00 Build 0)  -->
<svg version="1.1" id="Layer_1" xmlns="http://www.w3.org/2000/svg" xmlns:xlink="http://www.w3.org/1999/xlink" x="0px" y="0px"
	 viewBox="0 0 128 128" style="enable-background:new 0 0 128 128;" xml:space="preserve">
<style type="text/css">
	.st0{fill:#FFFFFF;}
</style>
<g>
	<rect x="16.5" y="47.7" class="st0" width="20.9" height="62.9"/>
	<path class="st0" d="M27,17.4c-7.2,0-11.8,4.7-11.8,10.9c0,6,4.5,10.9,11.6,10.9h0.1c7.3,0,11.8-4.8,11.8-10.9
		C38.6,22.1,34.2,17.4,27,17.4z"/>
	<path class="st0" d="M88.7,46.2c-11.1,0-16.1,6.1-18.9,10.4v0.2h-0.1c0-0.1,0.1-0.1,0.1-0.2v-8.9H48.9c0.3,5.9,0,62.9,0,62.9h20.9
		V75.5c0-1.9,0.1-3.8,0.7-5.1c1.5-3.8,5-7.7,10.7-7.7c7.6,0,10.6,5.8,10.6,14.2v33.7h20.9V74.5C112.8,55.2,102.5,46.2,88.7,46.2z"/>
</g>
</svg>
