<?xml version="1.0" encoding="utf-8"?>
<!-- Generator: Adobe Illustrator 15.0.0, SVG Export Plug-In . SVG Version: 6.00 Build 0)  -->
<!DOCTYPE svg PUBLIC "-//W3C//DTD SVG 1.1//EN" "http://www.w3.org/Graphics/SVG/1.1/DTD/svg11.dtd">
<svg version="1.1" id="Capa_1" xmlns="http://www.w3.org/2000/svg" xmlns:xlink="http://www.w3.org/1999/xlink" x="0px" y="0px"
	 width="215.231px" height="82.119px" viewBox="0 0 215.231 82.119" enable-background="new 0 0 215.231 82.119"
	 xml:space="preserve">
<g>
	<g>
		<path fill="#FFFFFF" d="M20.027,17.142h5.858v16.413h8.028v5.888H20.027V17.142z"/>
		<path fill="#FFFFFF" d="M38.105,17.142h13.855v4.847h-7.998v3.627h7.076v4.937h-7.076v4.104h7.998v4.787H38.105V17.142z"/>
		<path fill="#FFFFFF" d="M66.828,17.142c6.155,0,11.15,5.025,11.15,11.18s-4.996,11.121-11.15,11.121s-11.121-4.967-11.121-11.121
			S60.673,17.142,66.828,17.142z M66.828,22.969c-2.914,0-5.292,2.379-5.292,5.322c0,2.914,2.378,5.322,5.292,5.322
			c2.943,0,5.322-2.408,5.322-5.322C72.151,25.348,69.772,22.969,66.828,22.969z"/>
		<path fill="#FFFFFF" d="M98.436,39.442L87.91,28.886v10.556h-5.857v-22.3h2.378l10.556,10.525V17.142h5.857v22.3H98.436z"/>
		<path fill="#FFFFFF" d="M103.848,39.442l10.407-22.3h2.646l10.496,22.3h-5.857l-1.368-2.914h-9.128l-1.338,2.914H103.848z
			 M113.332,31.592h4.55l-2.26-4.906L113.332,31.592z"/>
		<path fill="#FFFFFF" d="M143.305,39.442l-3.449-5.917h-3.627v5.917h-5.857v-22.3h9.396c4.52,0,8.207,3.687,8.207,8.206
			c0,2.379-1.041,4.52-2.646,6.006l4.727,8.088H143.305L143.305,39.442z M136.228,28.47h3.627c1.784,0,3.211-1.397,3.211-3.181
			c0-1.784-1.427-3.212-3.211-3.212h-3.627V28.47z"/>
		<path fill="#FFFFFF" d="M152.939,17.142h8.266c6.155,0,11.15,4.995,11.15,11.15c0,6.154-4.995,11.15-11.15,11.15h-8.266V17.142z
			 M158.767,33.615h2.468c2.914,0,5.292-2.379,5.292-5.293c0-2.884-2.379-5.263-5.292-5.263h-2.468V33.615z"/>
		<path fill="#FFFFFF" d="M186.627,17.142c6.155,0,11.15,5.025,11.15,11.18s-4.995,11.121-11.15,11.121
			c-6.155,0-11.12-4.967-11.12-11.121S180.472,17.142,186.627,17.142z M186.627,22.969c-2.914,0-5.293,2.379-5.293,5.322
			c0,2.914,2.379,5.322,5.293,5.322c2.944,0,5.322-2.408,5.322-5.322C191.95,25.348,189.571,22.969,186.627,22.969z"/>
	</g>
	<g>
		<g>
			<path fill="#FFFFFF" d="M20.027,43.599h13.975v4.817h-8.117v3.628h7.166v4.965h-7.166V65.9h-5.858V43.599z"/>
			<path fill="#FFFFFF" d="M63.528,57.009c0,1.607,1.308,2.914,2.914,2.914c1.605,0,2.914-1.307,2.914-2.914v-13.41h5.887v13.5
				c0,4.907-3.955,8.801-8.801,8.801c-4.906,0-8.801-3.895-8.801-8.801v-13.5h5.888L63.528,57.009L63.528,57.009z"/>
			<path fill="#FFFFFF" d="M115.563,65.9l-10.526-10.556V65.9H99.18V43.599h2.379l10.555,10.526V43.599h5.857V65.9H115.563z"/>
			<path fill="#FFFFFF" d="M141.938,43.599h13.856v4.847h-7.999v3.628h7.077v4.936h-7.077v4.104h7.999V65.9h-13.856V43.599z"/>
			<path fill="#FFFFFF" d="M188.085,60.042h8.623V65.9h-18.762l9.485-16.413h-8.919v-5.888h19.06L188.085,60.042z"/>
		</g>
	</g>
	
		<rect x="8.834" y="7.919" fill="none" stroke="#FFFFFF" stroke-width="5" stroke-miterlimit="10" width="199.775" height="67.138"/>
</g>
</svg>
