<?xml version="1.0" encoding="utf-8"?>
<!-- Generator: Adobe Illustrator 18.0.0, SVG Export Plug-In . SVG Version: 6.00 Build 0)  -->
<!DOCTYPE svg PUBLIC "-//W3C//DTD SVG 1.1//EN" "http://www.w3.org/Graphics/SVG/1.1/DTD/svg11.dtd">
<svg version="1.1" id="Capa_1" xmlns="http://www.w3.org/2000/svg" xmlns:xlink="http://www.w3.org/1999/xlink" x="0px" y="0px"
	 viewBox="0 0 215.2 82.1" enable-background="new 0 0 215.2 82.1" xml:space="preserve">
<g>
	<g>
		<path d="M20,17.1h5.9v16.4h8v5.9H20V17.1z"/>
		<path d="M38.1,17.1H52V22h-8v3.6H51v4.9H44v4.1h8v4.8H38.1V17.1z"/>
		<path d="M66.8,17.1c6.2,0,11.2,5,11.2,11.2s-5,11.1-11.2,11.1s-11.1-5-11.1-11.1S60.7,17.1,66.8,17.1z M66.8,23
			c-2.9,0-5.3,2.4-5.3,5.3c0,2.9,2.4,5.3,5.3,5.3c2.9,0,5.3-2.4,5.3-5.3C72.2,25.3,69.8,23,66.8,23z"/>
		<path d="M98.4,39.4L87.9,28.9v10.6h-5.9V17.1h2.4L95,27.7V17.1h5.9v22.3H98.4z"/>
		<path d="M103.8,39.4l10.4-22.3h2.6l10.5,22.3h-5.9l-1.4-2.9H111l-1.3,2.9H103.8z M113.3,31.6h4.6l-2.3-4.9L113.3,31.6z"/>
		<path d="M143.3,39.4l-3.4-5.9h-3.6v5.9h-5.9V17.1h9.4c4.5,0,8.2,3.7,8.2,8.2c0,2.4-1,4.5-2.6,6l4.7,8.1L143.3,39.4L143.3,39.4z
			 M136.2,28.5h3.6c1.8,0,3.2-1.4,3.2-3.2s-1.4-3.2-3.2-3.2h-3.6V28.5z"/>
		<path d="M152.9,17.1h8.3c6.2,0,11.1,5,11.1,11.1c0,6.2-5,11.2-11.1,11.2h-8.3V17.1z M158.8,33.6h2.5c2.9,0,5.3-2.4,5.3-5.3
			c0-2.9-2.4-5.3-5.3-5.3h-2.5L158.8,33.6L158.8,33.6z"/>
		<path d="M186.6,17.1c6.2,0,11.1,5,11.1,11.2s-5,11.1-11.1,11.1s-11.1-5-11.1-11.1S180.5,17.1,186.6,17.1z M186.6,23
			c-2.9,0-5.3,2.4-5.3,5.3c0,2.9,2.4,5.3,5.3,5.3c2.9,0,5.3-2.4,5.3-5.3C191.9,25.3,189.6,23,186.6,23z"/>
	</g>
	<g>
		<g>
			<path d="M20,43.6h14v4.8h-8.1V52h7.2v5h-7.2v8.9H20C20,65.9,20,43.6,20,43.6z"/>
			<path d="M63.5,57c0,1.6,1.3,2.9,2.9,2.9c1.6,0,2.9-1.3,2.9-2.9V43.6h5.9v13.5c0,4.9-4,8.8-8.8,8.8c-4.9,0-8.8-3.9-8.8-8.8V43.6
				h5.9L63.5,57L63.5,57z"/>
			<path d="M115.6,65.9L105,55.3v10.6h-5.9V43.6h2.4l10.6,10.5V43.6h5.9v22.3H115.6z"/>
			<path d="M141.9,43.6h13.9v4.8h-8v3.6h7.1V57h-7.1v4.1h8v4.8h-13.9V43.6z"/>
			<path d="M188.1,60h8.6v5.9h-18.8l9.5-16.4h-8.9v-5.9h19.1L188.1,60z"/>
		</g>
	</g>
	<rect x="8.8" y="7.9" fill="none" stroke="#000000" stroke-width="5" stroke-miterlimit="10" width="199.8" height="67.1"/>
</g>
</svg>
