<?xml version="1.0" encoding="UTF-8" standalone="no"?>
<svg width="23px" height="19px" viewBox="0 0 23 19" version="1.1" xmlns="http://www.w3.org/2000/svg" xmlns:xlink="http://www.w3.org/1999/xlink">
    <!-- Generator: Sketch 41.2 (35397) - http://www.bohemiancoding.com/sketch -->
    <title>Contact button</title>
    <desc>Created with Sketch.</desc>
    <defs></defs>
    <g id="Page-1" stroke="none" stroke-width="1" fill="none" fill-rule="evenodd">
        <g id="Desktop-Landscape" transform="translate(-789.000000, -4463.000000)" fill="#FFFFFF">
            <g id="Footer" transform="translate(-279.000000, 4218.000000)">
                <g id="Button" transform="translate(838.000000, 230.000000)">
                    <g id="Contact-button" transform="translate(230.000000, 15.000000)">
                        <g id="send">
                            <g id="Capa_1">
                                <g id="Group">
                                    <path d="M22.9993711,0.42788729 C22.9995059,0.425107914 22.9995957,0.422374101 22.9996855,0.419594724 C22.9997754,0.416405276 22.9995957,0.413261391 22.9995957,0.410071942 C22.9995957,0.404148681 22.9996855,0.39822542 22.999416,0.392347722 C22.9991914,0.387335731 22.9986523,0.382369305 22.9982031,0.377402878 C22.9981582,0.376764988 22.9981133,0.376081535 22.9980234,0.375443645 C22.9977539,0.372573141 22.9976641,0.369657074 22.9973047,0.366786571 C22.9969453,0.363551559 22.9964961,0.36036211 22.9960469,0.357172662 C22.995373,0.352479616 22.9943848,0.347832134 22.9935312,0.343139089 C22.9923633,0.336623501 22.9912402,0.330107914 22.989668,0.32363789 C22.9894883,0.322954436 22.9893535,0.322270983 22.9891738,0.32158753 C22.9880508,0.317031175 22.9865684,0.312565947 22.9852656,0.308009592 C22.9834687,0.301676259 22.9817168,0.295388489 22.9795605,0.289146283 C22.9785273,0.286139089 22.9773594,0.283223022 22.9762812,0.280261391 C22.975248,0.277527578 22.9740801,0.274930456 22.973002,0.272196643 C22.973002,0.272151079 22.972957,0.272059952 22.9729121,0.272014388 C22.9708457,0.266865707 22.9689141,0.261717026 22.966623,0.256659472 C22.9640625,0.251009592 22.9610977,0.24558753 22.9582676,0.240074341 C22.956875,0.237340528 22.9555273,0.234606715 22.9540449,0.231918465 C22.9527871,0.229640288 22.9516641,0.22736211 22.9503613,0.225129496 C22.9459141,0.217520384 22.9409727,0.210093525 22.9359863,0.202757794 C22.9343691,0.200388489 22.9330215,0.197882494 22.9313594,0.195513189 C22.9312695,0.195376499 22.9311797,0.195285372 22.9310898,0.195148681 C22.9308652,0.194829736 22.9305957,0.194510791 22.9303711,0.194191847 C22.9259238,0.188040767 22.9209375,0.18216307 22.916041,0.176239808 C22.9129863,0.172549161 22.9101113,0.168630695 22.9069668,0.165122302 C22.9055742,0.163573141 22.9040469,0.162069544 22.9026094,0.16047482 C22.9003633,0.158014388 22.8978926,0.155736211 22.8955566,0.153366906 C22.8906152,0.148309353 22.8857637,0.143160671 22.8805977,0.138422062 C22.8802832,0.138103118 22.8799687,0.137784173 22.8796543,0.137465228 C22.877543,0.135551559 22.8752969,0.134002398 22.8731406,0.132179856 C22.8721523,0.131314149 22.8711191,0.130494005 22.8700859,0.129628297 C22.8685586,0.128306954 22.8672559,0.126803357 22.8656836,0.125527578 C22.8646504,0.124707434 22.8635273,0.124115108 22.8624941,0.1232494 C22.859125,0.120561151 22.8558457,0.117827338 22.8524316,0.115275779 C22.8491074,0.112815348 22.8456035,0.110673861 22.8422344,0.108304556 C22.8359453,0.103976019 22.8296562,0.0996019185 22.8231426,0.0957290168 C22.8183809,0.0928585132 22.8134395,0.0903980815 22.8085879,0.0878009592 C22.8032871,0.0849304556 22.7980312,0.0820143885 22.7925957,0.0794172662 C22.7903496,0.0783693046 22.7881035,0.0772757794 22.7858125,0.0762733813 C22.784375,0.0756354916 22.7829375,0.0751798561 22.7815,0.0745419664 C22.7791641,0.0735395683 22.7768281,0.0726738609 22.7744922,0.0717170264 C22.7699102,0.0698489209 22.765373,0.0678896882 22.7607461,0.0662038369 C22.7557598,0.064381295 22.7507285,0.0629232614 22.7456973,0.0613741007 C22.7427773,0.0604628297 22.7399023,0.0595515588 22.7369375,0.0587314149 C22.7338379,0.0578657074 22.7307383,0.0569088729 22.7275937,0.056088729 C22.7209453,0.0544028777 22.714252,0.0531726619 22.7075137,0.0518513189 C22.7037402,0.0511223022 22.7000117,0.0501199041 22.6961934,0.0495275779 C22.6952051,0.0493908873 22.6941719,0.0493453237 22.6931836,0.0491630695 C22.6869844,0.0482517986 22.6807402,0.047705036 22.674541,0.0471127098 C22.6691953,0.0466115108 22.6638945,0.0460191847 22.6585488,0.0457002398 C22.656123,0.0455635492 22.6537422,0.0454268585 22.6513164,0.045381295 C22.6484863,0.0452901679 22.6456562,0.0454724221 22.6428262,0.0454724221 L22.6416133,0.0454724221 C22.6355937,0.0454724221 22.6295742,0.045381295 22.6235547,0.0456546763 C22.618748,0.045882494 22.6139414,0.0464292566 22.6091348,0.0468393285 C22.6059453,0.0471127098 22.6027559,0.047294964 22.5995664,0.0476594724 C22.5959727,0.0480695444 22.5924238,0.0484796163 22.588875,0.0490263789 C22.5841133,0.0497098321 22.5793965,0.0507577938 22.5746348,0.0516235012 C22.5687051,0.0527625899 22.5627305,0.0537194245 22.5568457,0.0551318945 C22.5561719,0.0553141487 22.555498,0.0555419664 22.5547793,0.0557242206 C22.549793,0.0569544365 22.5448516,0.0585491607 22.5399102,0.0600071942 C22.5338457,0.0617841727 22.5277812,0.0635155875 22.5218066,0.0656570743 C22.5188867,0.0666594724 22.5160566,0.0678441247 22.5131816,0.0689376499 C22.512418,0.0692110312 22.5116543,0.0693932854 22.5108906,0.0696666667 L0.229640625,8.81786811 C0.0911015625,8.87227098 -0.0001796875,9.0075036 -1.81828511e-13,9.15818225 C0.000134765625,9.30886091 0.0917304687,9.44391127 0.230359375,9.4979952 L6.87327148,12.0894676 L9.00189453,18.7474412 C9.00220898,18.7483981 9.00270312,18.7492182 9.00301758,18.7501295 C9.00364648,18.7520887 9.0040957,18.7540935 9.00476953,18.7560528 C9.00980078,18.7705875 9.01604492,18.7847122 9.02291797,18.7986091 C9.02435547,18.8014796 9.02583789,18.804259 9.02732031,18.8070839 C9.03401367,18.8197962 9.04138086,18.8321894 9.04964648,18.8441271 C9.05072461,18.8457218 9.05166797,18.8474077 9.05279102,18.8489568 C9.05333008,18.8497314 9.05386914,18.850506 9.05445312,18.8512806 C9.05508203,18.8521007 9.05575586,18.8528297 9.05638477,18.8536954 C9.05908008,18.8573405 9.06208984,18.8608489 9.06496484,18.8644029 C9.06837891,18.8686859 9.07161328,18.87306 9.07520703,18.8772062 C9.07799219,18.8803501 9.08104687,18.8832662 9.0839668,18.8863189 C9.08531445,18.8877314 9.08666211,18.8891439 9.08800977,18.8905564 C9.09007617,18.8926523 9.09200781,18.8948849 9.09411914,18.8969353 C9.09632031,18.8990767 9.09843164,18.9012638 9.10067773,18.9033597 C9.10283398,18.9053645 9.10516992,18.9071871 9.10741602,18.9091007 C9.11433398,18.9152518 9.1213418,18.9212206 9.12870898,18.9268705 C9.1291582,18.927235 9.1295625,18.9275995 9.13001172,18.927964 C9.13068555,18.9284652 9.13149414,18.9288297 9.13216797,18.9293309 C9.13441406,18.9309712 9.13670508,18.9324748 9.13895117,18.9340695 C9.15049609,18.9422254 9.162625,18.9497434 9.17524805,18.9565324 C9.17731445,18.9576259 9.17924609,18.9590384 9.1813125,18.9600863 C9.18198633,18.9604508 9.18266016,18.9606787 9.18333398,18.9610432 C9.19519336,18.967012 9.20736719,18.9725252 9.220125,18.9772638 C9.22282031,18.9782662 9.22556055,18.9789496 9.22825586,18.9798609 C9.23180469,18.9810911 9.23535352,18.9821847 9.23894727,18.9832782 C9.25440039,18.9880624 9.26994336,18.9919353 9.28553125,18.9945779 C9.28625,18.9947146 9.28692383,18.9949424 9.28764258,18.9950791 C9.289125,18.995307 9.29060742,18.9952614 9.29208984,18.9954892 C9.30929492,18.9980408 9.32654492,18.9995899 9.34361523,18.9995899 L9.34366016,18.9995899 L9.34366016,18.9995899 L9.34370508,18.9995899 C9.34509766,18.9995899 9.34644531,18.999271 9.34783789,18.999271 C9.36261719,18.9990887 9.37735156,18.9978585 9.39199609,18.9958537 C9.39419727,18.9955348 9.39644336,18.9955803 9.39859961,18.9952614 C9.40174414,18.9947602 9.40488867,18.9936211 9.4080332,18.9930288 C9.41939844,18.9909329 9.43062891,18.9882902 9.44176953,18.9850552 C9.4454082,18.9840072 9.4490918,18.9833237 9.45268555,18.9821847 C9.45331445,18.9820024 9.45394336,18.9819113 9.45457227,18.981729 C9.4562793,18.9811823 9.45789648,18.9803621 9.45960352,18.9797698 C9.46494922,18.9779472 9.47016016,18.9757602 9.47541602,18.9736643 C9.48242383,18.9708393 9.48938672,18.9679688 9.496125,18.9647794 C9.4971582,18.9643237 9.49819141,18.9639592 9.49922461,18.963458 C9.49980859,18.9631391 9.50048242,18.9629568 9.50106641,18.9626835 C9.50443555,18.9610432 9.507625,18.9590384 9.51094922,18.9572614 C9.51791211,18.9535707 9.52469531,18.9496523 9.53134375,18.9455516 C9.53574609,18.9428177 9.54010352,18.9400839 9.54437109,18.9371679 C9.54441602,18.9371223 9.54446094,18.9371223 9.54450586,18.9370767 C9.54576367,18.936211 9.54706641,18.935482 9.54832422,18.9346163 C9.55429883,18.9304245 9.55995898,18.9258225 9.56566406,18.9213118 C9.56898828,18.9186691 9.57235742,18.9162086 9.5755918,18.9134293 C9.57914062,18.9103765 9.58255469,18.9071415 9.58596875,18.903952 C9.58861914,18.9015372 9.59113477,18.8989856 9.59374023,18.8964341 C9.60479102,18.8855444 9.61530273,18.8741535 9.62487109,18.861988 C9.62567969,18.8609856 9.6265332,18.8600288 9.6273418,18.8589808 C9.628375,18.8576139 9.62927344,18.8561103 9.63026172,18.8547434 C9.63102539,18.853741 9.63192383,18.8528753 9.6326875,18.8518273 L12.2586855,15.2525348 C12.3767402,15.090693 12.3431387,14.8624652 12.1835762,14.7427242 C12.0240586,14.6229832 11.7989551,14.6571103 11.6809453,14.8189065 L10.5400195,16.3827386 L11.4468125,13.8719137 L20.030125,17.1762278 C20.0713633,17.1920839 20.1145781,17.1999664 20.1576133,17.1999664 C20.220459,17.1999664 20.2830352,17.1832446 20.3386934,17.1503477 C20.4324004,17.0948969 20.4964141,16.9994868 20.5128555,16.8907266 L22.9959121,0.464976019 C22.9960469,0.464201439 22.996002,0.463426859 22.9960918,0.462652278 C22.9969453,0.456592326 22.9974395,0.450532374 22.9980234,0.444472422 C22.9985176,0.438959233 22.9991016,0.433446043 22.9993711,0.42788729 Z M20.1949434,1.76084892 L9.93007031,9.32243885 C9.76947461,9.44072182 9.73385156,9.66867626 9.85046875,9.83156595 C9.92077148,9.9297554 10.0303809,9.9818801 10.1415176,9.9818801 C10.2147402,9.9818801 10.2886367,9.95923501 10.3524258,9.91225899 L20.1581523,2.68888729 L10.9809277,13.1408921 C10.9453047,13.1765228 10.9162402,13.2200815 10.8973281,13.2706571 C10.8940937,13.279223 10.891623,13.2879257 10.8890625,13.2965827 L9.36441406,17.5181823 L7.50406445,11.6993981 C7.46933984,11.5907746 7.38906445,11.5101271 7.29167383,11.4718993 C7.29113477,11.4716715 7.29064062,11.4713981 7.29005664,11.4711703 L1.35767383,9.15686091 L20.1949434,1.76084892 Z M19.8696641,16.3348058 L11.8498516,13.2474197 L22.1013379,1.57198801 L19.8696641,16.3348058 Z" id="Shape"></path>
                                    <path d="M8.33327734,11.3139305 C8.4065,11.3139305 8.48039648,11.2912854 8.54418555,11.2443094 L9.2427207,10.7297146 C9.40331641,10.6114317 9.43893945,10.3834772 9.32232227,10.2205875 C9.20566016,10.0576978 8.98091602,10.0215659 8.82036523,10.1398489 L8.12183008,10.6544436 C7.96123437,10.7727266 7.92561133,11.0006811 8.04222852,11.1635707 C8.11253125,11.2618058 8.22214062,11.3139305 8.33327734,11.3139305 Z" id="Shape"></path>
                                </g>
                            </g>
                        </g>
                    </g>
                </g>
            </g>
        </g>
    </g>
</svg>