<?xml version="1.0" encoding="UTF-8" standalone="no"?>
<svg width="192px" height="30px" viewBox="0 0 192 30" version="1.1" xmlns="http://www.w3.org/2000/svg" xmlns:xlink="http://www.w3.org/1999/xlink">
    <!-- Generator: Sketch 41.2 (35397) - http://www.bohemiancoding.com/sketch -->
    <title>ABOUT ME</title>
    <desc>Created with Sketch.</desc>
    <defs></defs>
    <g id="Page-1" stroke="none" stroke-width="1" fill="none" fill-rule="evenodd">
        <g id="Desktop-Landscape" transform="translate(-604.000000, -950.000000)" fill="#FFFFFF">
            <g id="About-Me" transform="translate(-72.000000, 761.000000)">
                <path d="M702.88,218 L695.2,218 L694.12,212.32 L686.56,212.32 L684.04,218 L676.36,218 L690.2,189.68 L696.72,189.68 L702.88,218 Z M693.32,205.96 L692.48,197.68 L692.2,197.68 L689.08,205.96 L693.32,205.96 Z M728.04,198.32 C727.986666,198.640002 727.873334,199.013331 727.7,199.44 C727.526666,199.866669 727.286668,200.293331 726.98,200.72 C726.673332,201.146669 726.313335,201.553331 725.9,201.94 C725.486665,202.326669 725.000003,202.653332 724.44,202.92 C725.346671,203.400002 726.039998,203.97333 726.52,204.64 C727.000002,205.30667 727.333332,205.999996 727.52,206.72 C727.706668,207.440004 727.766667,208.146663 727.7,208.84 C727.633333,209.533337 727.520001,210.146664 727.36,210.68 C726.666663,212.973345 725.433342,214.76666 723.66,216.06 C721.886658,217.35334 719.426682,218 716.28,218 L704.72,218 L708.68,189.68 L720.04,189.68 C721.400007,189.68 722.619995,189.879998 723.7,190.28 C724.780005,190.680002 725.679996,191.246663 726.4,191.98 C727.120004,192.713337 727.633332,193.613328 727.94,194.68 C728.246668,195.746672 728.280001,196.959993 728.04,198.32 Z M718.48,200.76 C719.360004,200.76 720.059997,200.500003 720.58,199.98 C721.100003,199.459997 721.406666,198.880003 721.5,198.24 C721.593334,197.599997 721.460002,197.020003 721.1,196.5 C720.739998,195.979997 720.106671,195.72 719.2,195.72 L715.04,195.72 L714.32,200.76 L718.48,200.76 Z M716.96,211.72 C718.026672,211.72 718.87333,211.420003 719.5,210.82 C720.12667,210.219997 720.486666,209.553337 720.58,208.82 C720.673334,208.086663 720.493336,207.420003 720.04,206.82 C719.586664,206.219997 718.826672,205.92 717.76,205.92 L713.6,205.92 L712.8,211.72 L716.96,211.72 Z M731.64,199 C731.880001,197.373325 732.419996,195.953339 733.26,194.74 C734.100004,193.526661 735.126661,192.513337 736.34,191.7 C737.553339,190.886663 738.886659,190.280002 740.34,189.88 C741.793341,189.479998 743.253326,189.28 744.72,189.28 C746.186674,189.28 747.599993,189.479998 748.96,189.88 C750.320007,190.280002 751.493328,190.886663 752.48,191.7 C753.466672,192.513337 754.213331,193.526661 754.72,194.74 C755.226669,195.953339 755.360001,197.373325 755.12,199 L753.72,208.68 C753.479999,210.306675 752.953337,211.726661 752.14,212.94 C751.326663,214.153339 750.320006,215.166663 749.12,215.98 C747.919994,216.793337 746.586674,217.399998 745.12,217.8 C743.653326,218.200002 742.146674,218.4 740.6,218.4 C739.133326,218.4 737.726673,218.200002 736.38,217.8 C735.033327,217.399998 733.866672,216.793337 732.88,215.98 C731.893328,215.166663 731.146669,214.153339 730.64,212.94 C730.133331,211.726661 729.999999,210.306675 730.24,208.68 L731.64,199 Z M737.4,208.68 C737.32,209.186669 737.386666,209.633331 737.6,210.02 C737.813334,210.406669 738.106665,210.726665 738.48,210.98 C738.853335,211.233335 739.299997,211.426666 739.82,211.56 C740.340003,211.693334 740.866664,211.76 741.4,211.76 C741.98667,211.76 742.566664,211.693334 743.14,211.56 C743.713336,211.426666 744.239998,211.226668 744.72,210.96 C745.200002,210.693332 745.606665,210.353335 745.94,209.94 C746.273335,209.526665 746.48,209.040003 746.56,208.48 L747.96,199 C748.04,198.466664 747.986668,198.000002 747.8,197.6 C747.613332,197.199998 747.333335,196.866668 746.96,196.6 C746.586665,196.333332 746.140003,196.133334 745.62,196 C745.099997,195.866666 744.54667,195.8 743.96,195.8 C743.37333,195.8 742.793336,195.866666 742.22,196 C741.646664,196.133334 741.120002,196.333332 740.64,196.6 C740.159998,196.866668 739.753335,197.199998 739.42,197.6 C739.086665,198.000002 738.88,198.466664 738.8,199 L737.4,208.68 Z M764.56,208.44 C764.48,209.000003 764.526666,209.493331 764.7,209.92 C764.873334,210.346669 765.133332,210.699999 765.48,210.98 C765.826668,211.260001 766.233331,211.473333 766.7,211.62 C767.166669,211.766667 767.653331,211.84 768.16,211.84 C768.693336,211.84 769.213331,211.766667 769.72,211.62 C770.226669,211.473333 770.686665,211.260001 771.1,210.98 C771.513335,210.699999 771.859999,210.346669 772.14,209.92 C772.420001,209.493331 772.6,209.000003 772.68,208.44 L775.32,189.68 L782.56,189.68 L779.92,208.44 C779.679999,210.093342 779.146671,211.54666 778.32,212.8 C777.493329,214.05334 776.493339,215.093329 775.32,215.92 C774.146661,216.746671 772.85334,217.366665 771.44,217.78 C770.02666,218.193335 768.61334,218.4 767.2,218.4 C765.78666,218.4 764.43334,218.193335 763.14,217.78 C761.84666,217.366665 760.726671,216.746671 759.78,215.92 C758.833329,215.093329 758.126669,214.05334 757.66,212.8 C757.193331,211.54666 757.079999,210.093342 757.32,208.44 L759.96,189.68 L767.2,189.68 L764.56,208.44 Z M799,196.2 L796,218 L788.76,218 L791.76,196.2 L784.12,196.2 L785.08,189.64 L807.6,189.64 L806.64,196.2 L799,196.2 Z M816.84,189.68 L824,189.68 L828,203.52 L835.96,189.68 L843.12,189.68 L839.16,218 L831.96,218 L833.12,209.84 L834.32,204.12 L834.12,204.08 L829.04,213.8 L824.12,213.8 L821.68,204.08 L821.52,204.12 L821.16,209.84 L820.04,218 L812.88,218 L816.84,189.68 Z M853.28,200.64 L864.76,200.64 L863.88,207 L852.4,207 L851.8,211.24 L864.28,211.24 L863.36,218 L843.64,218 L847.6,189.68 L867.32,189.68 L866.36,196.44 L853.88,196.44 L853.28,200.64 Z" id="ABOUT-ME"></path>
            </g>
        </g>
    </g>
</svg>