<?xml version="1.0" encoding="UTF-8" standalone="no"?>
<svg width="387px" height="31px" viewBox="0 0 387 31" version="1.1" xmlns="http://www.w3.org/2000/svg" xmlns:xlink="http://www.w3.org/1999/xlink">
    <!-- Generator: Sketch 41.2 (35397) - http://www.bohemiancoding.com/sketch -->
    <title>WANT TO SAY HELLO?</title>
    <desc>Created with Sketch.</desc>
    <defs></defs>
    <g id="Page-1" stroke="none" stroke-width="1" fill="none" fill-rule="evenodd">
        <g id="Desktop-Landscape" transform="translate(-504.000000, -4300.000000)" fill="#FFFFFF">
            <g id="Footer" transform="translate(-279.000000, 4218.000000)">
                <path d="M812.48,82.68 L819.88,82.68 L807.76,111 L801.12,111 L799.68,103.16 L799.6,96.68 L799.48,96.68 L797.48,103.12 L794.16,111 L787.52,111 L783.28,82.68 L790.72,82.68 L792.16,96.24 L792.08,102.24 L792.24,102.24 L793.76,96.28 L798.32,86.36 L803.76,86.36 L805.28,96.32 L805.36,102.24 L805.48,102.24 L807.12,96.32 L812.48,82.68 Z M839.6,111 L831.92,111 L830.84,105.32 L823.28,105.32 L820.76,111 L813.08,111 L826.92,82.68 L833.44,82.68 L839.6,111 Z M830.04,98.96 L829.2,90.68 L828.92,90.68 L825.8,98.96 L830.04,98.96 Z M845.4,82.68 L852.2,82.68 L857.36,94.76 L858.96,100.44 L859.12,100.4 L859.04,95.52 L860.84,82.68 L867.96,82.68 L864,111 L856.76,111 L851.92,99.84 L850.24,94.16 L850.08,94.2 L850.16,99.68 L848.6,111 L841.44,111 L845.4,82.68 Z M884.64,89.2 L881.64,111 L874.4,111 L877.4,89.2 L869.76,89.2 L870.72,82.64 L893.24,82.64 L892.28,89.2 L884.64,89.2 Z M913.76,89.2 L910.76,111 L903.52,111 L906.52,89.2 L898.88,89.2 L899.84,82.64 L922.36,82.64 L921.4,89.2 L913.76,89.2 Z M922.88,92 C923.120001,90.3733252 923.659996,88.9533394 924.5,87.74 C925.340004,86.5266606 926.366661,85.5133374 927.58,84.7 C928.793339,83.8866626 930.126659,83.280002 931.58,82.88 C933.033341,82.479998 934.493326,82.28 935.96,82.28 C937.426674,82.28 938.839993,82.479998 940.2,82.88 C941.560007,83.280002 942.733328,83.8866626 943.72,84.7 C944.706672,85.5133374 945.453331,86.5266606 945.96,87.74 C946.466669,88.9533394 946.600001,90.3733252 946.36,92 L944.96,101.68 C944.719999,103.306675 944.193337,104.726661 943.38,105.94 C942.566663,107.153339 941.560006,108.166663 940.36,108.98 C939.159994,109.793337 937.826674,110.399998 936.36,110.8 C934.893326,111.200002 933.386674,111.4 931.84,111.4 C930.373326,111.4 928.966673,111.200002 927.62,110.8 C926.273327,110.399998 925.106672,109.793337 924.12,108.98 C923.133328,108.166663 922.386669,107.153339 921.88,105.94 C921.373331,104.726661 921.239999,103.306675 921.48,101.68 L922.88,92 Z M928.64,101.68 C928.56,102.186669 928.626666,102.633331 928.84,103.02 C929.053334,103.406669 929.346665,103.726665 929.72,103.98 C930.093335,104.233335 930.539997,104.426666 931.06,104.56 C931.580003,104.693334 932.106664,104.76 932.64,104.76 C933.22667,104.76 933.806664,104.693334 934.38,104.56 C934.953336,104.426666 935.479998,104.226668 935.96,103.96 C936.440002,103.693332 936.846665,103.353335 937.18,102.94 C937.513335,102.526665 937.72,102.040003 937.8,101.48 L939.2,92 C939.28,91.466664 939.226668,91.000002 939.04,90.6 C938.853332,90.199998 938.573335,89.866668 938.2,89.6 C937.826665,89.333332 937.380003,89.133334 936.86,89 C936.339997,88.866666 935.78667,88.8 935.2,88.8 C934.61333,88.8 934.033336,88.866666 933.46,89 C932.886664,89.133334 932.360002,89.333332 931.88,89.6 C931.399998,89.866668 930.993335,90.199998 930.66,90.6 C930.326665,91.000002 930.12,91.466664 930.04,92 L928.64,101.68 Z M959,102.04 C959.613336,102.946671 960.453328,103.626664 961.52,104.08 C962.586672,104.533336 963.653328,104.76 964.72,104.76 C965.680005,104.76 966.53333,104.586668 967.28,104.24 C968.02667,103.893332 968.466666,103.34667 968.6,102.6 C968.68,102.173331 968.600001,101.793335 968.36,101.46 C968.119999,101.126665 967.786669,100.853334 967.36,100.64 C966.933331,100.426666 966.433336,100.246667 965.86,100.1 C965.286664,99.9533326 964.720003,99.8400004 964.16,99.76 C963.039994,99.5733324 961.980005,99.2200026 960.98,98.7 C959.979995,98.1799974 959.120004,97.5066708 958.4,96.68 C957.679996,95.8533292 957.160002,94.8866722 956.84,93.78 C956.519998,92.6733278 956.479999,91.45334 956.72,90.12 C956.986668,88.6799928 957.486663,87.460005 958.22,86.46 C958.953337,85.459995 959.839995,84.6466698 960.88,84.02 C961.920005,83.3933302 963.059994,82.946668 964.3,82.68 C965.540006,82.413332 966.813327,82.28 968.12,82.28 C968.973338,82.28 969.813329,82.346666 970.64,82.48 C971.466671,82.613334 972.266663,82.8533316 973.04,83.2 C973.813337,83.5466684 974.546663,84.0133304 975.24,84.6 C975.933337,85.1866696 976.586664,85.9199956 977.2,86.8 L972,90.4 C971.386664,89.7066632 970.653338,89.2000016 969.8,88.88 C968.946662,88.5599984 968.106671,88.3866668 967.28,88.36 C966.373329,88.3333332 965.58667,88.4933316 964.92,88.84 C964.25333,89.1866684 963.88,89.7199964 963.8,90.44 C963.693333,91.2666708 963.959997,91.8866646 964.6,92.3 C965.240003,92.7133354 966.106661,93.0399988 967.2,93.28 C968.426673,93.5200012 969.619994,93.8333314 970.78,94.22 C971.940006,94.6066686 972.926663,95.166663 973.74,95.9 C974.553337,96.633337 975.146665,97.5799942 975.52,98.74 C975.893335,99.9000058 975.920002,101.359991 975.6,103.12 C975.333332,104.506674 974.84667,105.713328 974.14,106.74 C973.43333,107.766672 972.560005,108.626663 971.52,109.32 C970.479995,110.013337 969.286673,110.533332 967.94,110.88 C966.593327,111.226668 965.160008,111.4 963.64,111.4 C962.786662,111.4 961.900005,111.293334 960.98,111.08 C960.059995,110.866666 959.166671,110.546669 958.3,110.12 C957.433329,109.693331 956.613337,109.160003 955.84,108.52 C955.066663,107.879997 954.413336,107.133338 953.88,106.28 L959,102.04 Z M1001.16,111 L993.48,111 L992.4,105.32 L984.84,105.32 L982.32,111 L974.64,111 L988.48,82.68 L995,82.68 L1001.16,111 Z M991.6,98.96 L990.76,90.68 L990.48,90.68 L987.36,98.96 L991.6,98.96 Z M1006.12,111 L1007.68,99.84 L1000.2,82.68 L1008.52,82.68 L1012.2,92.64 L1018.76,82.68 L1027.16,82.68 L1014.84,99.84 L1013.28,111 L1006.12,111 Z M1038.24,111 L1031.04,111 L1035,82.68 L1042.2,82.68 L1040.68,93.4 L1048.84,93.4 L1050.36,82.68 L1057.56,82.68 L1053.6,111 L1046.4,111 L1047.88,100.32 L1039.72,100.32 L1038.24,111 Z M1067.72,93.64 L1079.2,93.64 L1078.32,100 L1066.84,100 L1066.24,104.24 L1078.72,104.24 L1077.8,111 L1058.08,111 L1062.04,82.68 L1081.76,82.68 L1080.8,89.44 L1068.32,89.44 L1067.72,93.64 Z M1085.56,82.68 L1092.76,82.68 L1089.76,103.92 L1101.28,103.92 L1100.32,111 L1081.6,111 L1085.56,82.68 Z M1107,82.68 L1114.2,82.68 L1111.2,103.92 L1122.72,103.92 L1121.76,111 L1103.04,111 L1107,82.68 Z M1126.24,92 C1126.48,90.3733252 1127.02,88.9533394 1127.86,87.74 C1128.7,86.5266606 1129.72666,85.5133374 1130.94,84.7 C1132.15334,83.8866626 1133.48666,83.280002 1134.94,82.88 C1136.39334,82.479998 1137.85333,82.28 1139.32,82.28 C1140.78667,82.28 1142.19999,82.479998 1143.56,82.88 C1144.92001,83.280002 1146.09333,83.8866626 1147.08,84.7 C1148.06667,85.5133374 1148.81333,86.5266606 1149.32,87.74 C1149.82667,88.9533394 1149.96,90.3733252 1149.72,92 L1148.32,101.68 C1148.08,103.306675 1147.55334,104.726661 1146.74,105.94 C1145.92666,107.153339 1144.92001,108.166663 1143.72,108.98 C1142.51999,109.793337 1141.18667,110.399998 1139.72,110.8 C1138.25333,111.200002 1136.74667,111.4 1135.2,111.4 C1133.73333,111.4 1132.32667,111.200002 1130.98,110.8 C1129.63333,110.399998 1128.46667,109.793337 1127.48,108.98 C1126.49333,108.166663 1125.74667,107.153339 1125.24,105.94 C1124.73333,104.726661 1124.6,103.306675 1124.84,101.68 L1126.24,92 Z M1132,101.68 C1131.92,102.186669 1131.98667,102.633331 1132.2,103.02 C1132.41333,103.406669 1132.70666,103.726665 1133.08,103.98 C1133.45334,104.233335 1133.9,104.426666 1134.42,104.56 C1134.94,104.693334 1135.46666,104.76 1136,104.76 C1136.58667,104.76 1137.16666,104.693334 1137.74,104.56 C1138.31334,104.426666 1138.84,104.226668 1139.32,103.96 C1139.8,103.693332 1140.20667,103.353335 1140.54,102.94 C1140.87333,102.526665 1141.08,102.040003 1141.16,101.48 L1142.56,92 C1142.64,91.466664 1142.58667,91.000002 1142.4,90.6 C1142.21333,90.199998 1141.93334,89.866668 1141.56,89.6 C1141.18666,89.333332 1140.74,89.133334 1140.22,89 C1139.7,88.866666 1139.14667,88.8 1138.56,88.8 C1137.97333,88.8 1137.39334,88.866666 1136.82,89 C1136.24666,89.133334 1135.72,89.333332 1135.24,89.6 C1134.76,89.866668 1134.35334,90.199998 1134.02,90.6 C1133.68667,91.000002 1133.48,91.466664 1133.4,92 L1132,101.68 Z M1152.68,87.64 C1153.69334,86.0933256 1154.85999,84.9000042 1156.18,84.06 C1157.50001,83.2199958 1158.83333,82.6800012 1160.18,82.44 C1161.52667,82.1999988 1162.83333,82.2333318 1164.1,82.54 C1165.36667,82.8466682 1166.46666,83.3933294 1167.4,84.18 C1168.33334,84.9666706 1169.04,85.959994 1169.52,87.16 C1170,88.360006 1170.13333,89.7199924 1169.92,91.24 C1169.78667,92.1200044 1169.52667,92.993329 1169.14,93.86 C1168.75333,94.726671 1168.22667,95.5199964 1167.56,96.24 C1166.89333,96.9600036 1166.09334,97.5799974 1165.16,98.1 C1164.22666,98.6200026 1163.14667,98.9599992 1161.92,99.12 L1160.88,103.8 L1154.88,103.8 L1155.76,94.68 C1156.56,95.0533352 1157.36,95.24 1158.16,95.24 C1158.96,95.24 1159.68666,95.1000014 1160.34,94.82 C1160.99334,94.5399986 1161.54,94.1266694 1161.98,93.58 C1162.42,93.0333306 1162.69333,92.4000036 1162.8,91.68 C1162.90667,90.9599964 1162.72667,90.3866688 1162.26,89.96 C1161.79333,89.5333312 1161.2,89.2800004 1160.48,89.2 C1159.76,89.1199996 1159,89.2333318 1158.2,89.54 C1157.4,89.8466682 1156.74667,90.3733296 1156.24,91.12 L1152.68,87.64 Z M1153.6,108.4 C1153.73333,107.333328 1154.2,106.46667 1155,105.8 C1155.8,105.13333 1156.70666,104.8 1157.72,104.8 C1158.73334,104.8 1159.54,105.13333 1160.14,105.8 C1160.74,106.46667 1160.97333,107.333328 1160.84,108.4 C1160.76,108.906669 1160.59333,109.379998 1160.34,109.82 C1160.08667,110.260002 1159.77334,110.646665 1159.4,110.98 C1159.02666,111.313335 1158.61334,111.573332 1158.16,111.76 C1157.70666,111.946668 1157.22667,112.04 1156.72,112.04 C1155.70666,112.04 1154.89334,111.68667 1154.28,110.98 C1153.66666,110.27333 1153.44,109.413338 1153.6,108.4 Z" id="WANT-TO-SAY-HELLO?"></path>
            </g>
        </g>
    </g>
</svg>