<?xml version="1.0" encoding="UTF-8" standalone="no"?>
<svg width="205px" height="30px" viewBox="0 0 205 30" version="1.1" xmlns="http://www.w3.org/2000/svg" xmlns:xlink="http://www.w3.org/1999/xlink">
    <!-- Generator: Sketch 41.2 (35397) - http://www.bohemiancoding.com/sketch -->
    <title>INTERESTS</title>
    <desc>Created with Sketch.</desc>
    <defs></defs>
    <g id="Page-1" stroke="none" stroke-width="1" fill="none" fill-rule="evenodd">
        <g id="Desktop-Landscape" transform="translate(-598.000000, -1893.000000)" fill="#FFFFFF">
            <g id="Interest" transform="translate(0.000000, 1891.000000)">
                <path d="M605.68,31.56 L598.52,31.56 L602.48,3.24 L609.64,3.24 L605.68,31.56 Z M614.12,3.24 L620.92,3.24 L626.08,15.32 L627.68,21 L627.84,20.96 L627.76,16.08 L629.56,3.24 L636.68,3.24 L632.72,31.56 L625.48,31.56 L620.64,20.4 L618.96,14.72 L618.8,14.76 L618.88,20.24 L617.32,31.56 L610.16,31.56 L614.12,3.24 Z M653.36,9.76 L650.36,31.56 L643.12,31.56 L646.12,9.76 L638.48,9.76 L639.44,3.2 L661.96,3.2 L661,9.76 L653.36,9.76 Z M670.36,14.2 L681.84,14.2 L680.96,20.56 L669.48,20.56 L668.88,24.8 L681.36,24.8 L680.44,31.56 L660.72,31.56 L664.68,3.24 L684.4,3.24 L683.44,10 L670.96,10 L670.36,14.2 Z M694,22.56 L692.72,22.56 L691.48,31.56 L684.24,31.56 L688.2,3.24 L699.52,3.24 C700.986674,3.24 702.326661,3.439998 703.54,3.84 C704.753339,4.240002 705.779996,4.839996 706.62,5.64 C707.460004,6.440004 708.066665,7.4533272 708.44,8.68 C708.813335,9.9066728 708.906668,11.3466584 708.72,13 C708.533332,14.3066732 708.253335,15.4199954 707.88,16.34 C707.506665,17.2600046 707.040003,18.0466634 706.48,18.7 C705.919997,19.3533366 705.253337,19.9266642 704.48,20.42 C703.706663,20.9133358 702.840005,21.3866644 701.88,21.84 L708.68,31.56 L699.76,31.56 L694,22.56 Z M697.8,16.4 C698.920006,16.4 699.786664,16.0600034 700.4,15.38 C701.013336,14.6999966 701.373333,13.9466708 701.48,13.12 C701.586667,12.2666624 701.420002,11.5200032 700.98,10.88 C700.539998,10.2399968 699.786672,9.92 698.72,9.92 L694.52,9.92 L693.6,16.4 L697.8,16.4 Z M719.6,14.2 L731.08,14.2 L730.2,20.56 L718.72,20.56 L718.12,24.8 L730.6,24.8 L729.68,31.56 L709.96,31.56 L713.92,3.24 L733.64,3.24 L732.68,10 L720.2,10 L719.6,14.2 Z M737.68,22.6 C738.293336,23.5066712 739.133328,24.1866644 740.2,24.64 C741.266672,25.0933356 742.333328,25.32 743.4,25.32 C744.360005,25.32 745.21333,25.1466684 745.96,24.8 C746.70667,24.4533316 747.146666,23.9066704 747.28,23.16 C747.36,22.7333312 747.280001,22.353335 747.04,22.02 C746.799999,21.686665 746.466669,21.4133344 746.04,21.2 C745.613331,20.9866656 745.113336,20.8066674 744.54,20.66 C743.966664,20.5133326 743.400003,20.4000004 742.84,20.32 C741.719994,20.1333324 740.660005,19.7800026 739.66,19.26 C738.659995,18.7399974 737.800004,18.0666708 737.08,17.24 C736.359996,16.4133292 735.840002,15.4466722 735.52,14.34 C735.199998,13.2333278 735.159999,12.01334 735.4,10.68 C735.666668,9.2399928 736.166663,8.020005 736.9,7.02 C737.633337,6.019995 738.519995,5.2066698 739.56,4.58 C740.600005,3.9533302 741.739994,3.506668 742.98,3.24 C744.220006,2.973332 745.493327,2.84 746.8,2.84 C747.653338,2.84 748.493329,2.906666 749.32,3.04 C750.146671,3.173334 750.946663,3.4133316 751.72,3.76 C752.493337,4.1066684 753.226663,4.5733304 753.92,5.16 C754.613337,5.7466696 755.266664,6.4799956 755.88,7.36 L750.68,10.96 C750.066664,10.2666632 749.333338,9.7600016 748.48,9.44 C747.626662,9.1199984 746.786671,8.9466668 745.96,8.92 C745.053329,8.8933332 744.26667,9.0533316 743.6,9.4 C742.93333,9.7466684 742.56,10.2799964 742.48,11 C742.373333,11.8266708 742.639997,12.4466646 743.28,12.86 C743.920003,13.2733354 744.786661,13.5999988 745.88,13.84 C747.106673,14.0800012 748.299994,14.3933314 749.46,14.78 C750.620006,15.1666686 751.606663,15.726663 752.42,16.46 C753.233337,17.193337 753.826665,18.1399942 754.2,19.3 C754.573335,20.4600058 754.600002,21.9199912 754.28,23.68 C754.013332,25.0666736 753.52667,26.2733282 752.82,27.3 C752.11333,28.3266718 751.240005,29.1866632 750.2,29.88 C749.159995,30.5733368 747.966673,31.0933316 746.62,31.44 C745.273327,31.7866684 743.840008,31.96 742.32,31.96 C741.466662,31.96 740.580005,31.8533344 739.66,31.64 C738.739995,31.4266656 737.846671,31.1066688 736.98,30.68 C736.113329,30.2533312 735.293337,29.7200032 734.52,29.08 C733.746663,28.4399968 733.093336,27.6933376 732.56,26.84 L737.68,22.6 Z M772.4,9.76 L769.4,31.56 L762.16,31.56 L765.16,9.76 L757.52,9.76 L758.48,3.2 L781,3.2 L780.04,9.76 L772.4,9.76 Z M783.96,22.6 C784.573336,23.5066712 785.413328,24.1866644 786.48,24.64 C787.546672,25.0933356 788.613328,25.32 789.68,25.32 C790.640005,25.32 791.49333,25.1466684 792.24,24.8 C792.98667,24.4533316 793.426666,23.9066704 793.56,23.16 C793.64,22.7333312 793.560001,22.353335 793.32,22.02 C793.079999,21.686665 792.746669,21.4133344 792.32,21.2 C791.893331,20.9866656 791.393336,20.8066674 790.82,20.66 C790.246664,20.5133326 789.680003,20.4000004 789.12,20.32 C787.999994,20.1333324 786.940005,19.7800026 785.94,19.26 C784.939995,18.7399974 784.080004,18.0666708 783.36,17.24 C782.639996,16.4133292 782.120002,15.4466722 781.8,14.34 C781.479998,13.2333278 781.439999,12.01334 781.68,10.68 C781.946668,9.2399928 782.446663,8.020005 783.18,7.02 C783.913337,6.019995 784.799995,5.2066698 785.84,4.58 C786.880005,3.9533302 788.019994,3.506668 789.26,3.24 C790.500006,2.973332 791.773327,2.84 793.08,2.84 C793.933338,2.84 794.773329,2.906666 795.6,3.04 C796.426671,3.173334 797.226663,3.4133316 798,3.76 C798.773337,4.1066684 799.506663,4.5733304 800.2,5.16 C800.893337,5.7466696 801.546664,6.4799956 802.16,7.36 L796.96,10.96 C796.346664,10.2666632 795.613338,9.7600016 794.76,9.44 C793.906662,9.1199984 793.066671,8.9466668 792.24,8.92 C791.333329,8.8933332 790.54667,9.0533316 789.88,9.4 C789.21333,9.7466684 788.84,10.2799964 788.76,11 C788.653333,11.8266708 788.919997,12.4466646 789.56,12.86 C790.200003,13.2733354 791.066661,13.5999988 792.16,13.84 C793.386673,14.0800012 794.579994,14.3933314 795.74,14.78 C796.900006,15.1666686 797.886663,15.726663 798.7,16.46 C799.513337,17.193337 800.106665,18.1399942 800.48,19.3 C800.853335,20.4600058 800.880002,21.9199912 800.56,23.68 C800.293332,25.0666736 799.80667,26.2733282 799.1,27.3 C798.39333,28.3266718 797.520005,29.1866632 796.48,29.88 C795.439995,30.5733368 794.246673,31.0933316 792.9,31.44 C791.553327,31.7866684 790.120008,31.96 788.6,31.96 C787.746662,31.96 786.860005,31.8533344 785.94,31.64 C785.019995,31.4266656 784.126671,31.1066688 783.26,30.68 C782.393329,30.2533312 781.573337,29.7200032 780.8,29.08 C780.026663,28.4399968 779.373336,27.6933376 778.84,26.84 L783.96,22.6 Z" id="INTERESTS"></path>
            </g>
        </g>
    </g>
</svg>