<?xml version="1.0" encoding="UTF-8" standalone="no"?>
<svg width="168px" height="16px" viewBox="0 0 168 16" version="1.1" xmlns="http://www.w3.org/2000/svg" xmlns:xlink="http://www.w3.org/1999/xlink">
    <!-- Generator: Sketch 41.2 (35397) - http://www.bohemiancoding.com/sketch -->
    <title>LEONARDO FUNEZ</title>
    <desc>Created with Sketch.</desc>
    <defs></defs>
    <g id="Page-1" stroke="none" stroke-width="1" fill="none" fill-rule="evenodd">
        <g id="Desktop-Landscape" transform="translate(-617.000000, -4605.000000)" fill="#FFFFFF">
            <g id="Footer" transform="translate(-279.000000, 4218.000000)">
                <path d="M898.28,387.84 L901.88,387.84 L900.38,398.46 L906.14,398.46 L905.66,402 L896.3,402 L898.28,387.84 Z M911.84,393.32 L917.58,393.32 L917.14,396.5 L911.4,396.5 L911.1,398.62 L917.34,398.62 L916.88,402 L907.02,402 L909,387.84 L918.86,387.84 L918.38,391.22 L912.14,391.22 L911.84,393.32 Z M919.78,392.5 C919.900001,391.686663 920.169998,390.97667 920.59,390.37 C921.010002,389.76333 921.52333,389.256669 922.13,388.85 C922.73667,388.443331 923.40333,388.140001 924.13,387.94 C924.85667,387.739999 925.586663,387.64 926.32,387.64 C927.053337,387.64 927.759997,387.739999 928.44,387.94 C929.120003,388.140001 929.706664,388.443331 930.2,388.85 C930.693336,389.256669 931.066665,389.76333 931.32,390.37 C931.573335,390.97667 931.640001,391.686663 931.52,392.5 L930.82,397.34 C930.699999,398.153337 930.436669,398.86333 930.03,399.47 C929.623331,400.07667 929.120003,400.583331 928.52,400.99 C927.919997,401.396669 927.253337,401.699999 926.52,401.9 C925.786663,402.100001 925.033337,402.2 924.26,402.2 C923.526663,402.2 922.823337,402.100001 922.15,401.9 C921.476663,401.699999 920.893336,401.396669 920.4,400.99 C919.906664,400.583331 919.533335,400.07667 919.28,399.47 C919.026665,398.86333 918.959999,398.153337 919.08,397.34 L919.78,392.5 Z M922.66,397.34 C922.62,397.593335 922.653333,397.816666 922.76,398.01 C922.866667,398.203334 923.013332,398.363333 923.2,398.49 C923.386668,398.616667 923.609999,398.713333 923.87,398.78 C924.130001,398.846667 924.393332,398.88 924.66,398.88 C924.953335,398.88 925.243332,398.846667 925.53,398.78 C925.816668,398.713333 926.079999,398.613334 926.32,398.48 C926.560001,398.346666 926.763333,398.176668 926.93,397.97 C927.096667,397.763332 927.2,397.520001 927.24,397.24 L927.94,392.5 C927.98,392.233332 927.953334,392.000001 927.86,391.8 C927.766666,391.599999 927.626668,391.433334 927.44,391.3 C927.253332,391.166666 927.030001,391.066667 926.77,391 C926.509999,390.933333 926.233335,390.9 925.94,390.9 C925.646665,390.9 925.356668,390.933333 925.07,391 C924.783332,391.066667 924.520001,391.166666 924.28,391.3 C924.039999,391.433334 923.836667,391.599999 923.67,391.8 C923.503332,392.000001 923.4,392.233332 923.36,392.5 L922.66,397.34 Z M934.04,387.84 L937.44,387.84 L940.02,393.88 L940.82,396.72 L940.9,396.7 L940.86,394.26 L941.76,387.84 L945.32,387.84 L943.34,402 L939.72,402 L937.3,396.42 L936.46,393.58 L936.38,393.6 L936.42,396.34 L935.64,402 L932.06,402 L934.04,387.84 Z M957.58,402 L953.74,402 L953.2,399.16 L949.42,399.16 L948.16,402 L944.32,402 L951.24,387.84 L954.5,387.84 L957.58,402 Z M952.8,395.98 L952.38,391.84 L952.24,391.84 L950.68,395.98 L952.8,395.98 Z M963.38,397.5 L962.74,397.5 L962.12,402 L958.5,402 L960.48,387.84 L966.14,387.84 C966.873337,387.84 967.54333,387.939999 968.15,388.14 C968.75667,388.340001 969.269998,388.639998 969.69,389.04 C970.110002,389.440002 970.413332,389.946664 970.6,390.56 C970.786668,391.173336 970.833334,391.893329 970.74,392.72 C970.646666,393.373337 970.506668,393.929998 970.32,394.39 C970.133332,394.850002 969.900001,395.243332 969.62,395.57 C969.339999,395.896668 969.006669,396.183332 968.62,396.43 C968.233331,396.676668 967.800002,396.913332 967.32,397.14 L970.72,402 L966.26,402 L963.38,397.5 Z M965.28,394.42 C965.840003,394.42 966.273332,394.250002 966.58,393.91 C966.886668,393.569998 967.066666,393.193335 967.12,392.78 C967.173334,392.353331 967.090001,391.980002 966.87,391.66 C966.649999,391.339998 966.273336,391.18 965.74,391.18 L963.64,391.18 L963.18,394.42 L965.28,394.42 Z M978.64,387.84 C979.34667,387.84 980.019997,387.933332 980.66,388.12 C981.300003,388.306668 981.846664,388.593331 982.3,388.98 C982.753336,389.366669 983.093332,389.856664 983.32,390.45 C983.546668,391.043336 983.600001,391.753329 983.48,392.58 L982.8,397.34 C982.679999,398.153337 982.426669,398.85333 982.04,399.44 C981.653331,400.02667 981.180003,400.509998 980.62,400.89 C980.059997,401.270002 979.43667,401.549999 978.75,401.73 C978.06333,401.910001 977.36667,402 976.66,402 L971.36,402 L973.34,387.84 L978.64,387.84 Z M977.24,398.64 C977.733336,398.64 978.169998,398.520001 978.55,398.28 C978.930002,398.039999 979.146666,397.726669 979.2,397.34 L979.88,392.58 C979.933334,392.193331 979.806668,391.863335 979.5,391.59 C979.193332,391.316665 978.793336,391.18 978.3,391.18 L976.48,391.18 L975.42,398.64 L977.24,398.64 Z M985.06,392.5 C985.180001,391.686663 985.449998,390.97667 985.87,390.37 C986.290002,389.76333 986.80333,389.256669 987.41,388.85 C988.01667,388.443331 988.68333,388.140001 989.41,387.94 C990.13667,387.739999 990.866663,387.64 991.6,387.64 C992.333337,387.64 993.039997,387.739999 993.72,387.94 C994.400003,388.140001 994.986664,388.443331 995.48,388.85 C995.973336,389.256669 996.346665,389.76333 996.6,390.37 C996.853335,390.97667 996.920001,391.686663 996.8,392.5 L996.1,397.34 C995.979999,398.153337 995.716669,398.86333 995.31,399.47 C994.903331,400.07667 994.400003,400.583331 993.8,400.99 C993.199997,401.396669 992.533337,401.699999 991.8,401.9 C991.066663,402.100001 990.313337,402.2 989.54,402.2 C988.806663,402.2 988.103337,402.100001 987.43,401.9 C986.756663,401.699999 986.173336,401.396669 985.68,400.99 C985.186664,400.583331 984.813335,400.07667 984.56,399.47 C984.306665,398.86333 984.239999,398.153337 984.36,397.34 L985.06,392.5 Z M987.94,397.34 C987.9,397.593335 987.933333,397.816666 988.04,398.01 C988.146667,398.203334 988.293332,398.363333 988.48,398.49 C988.666668,398.616667 988.889999,398.713333 989.15,398.78 C989.410001,398.846667 989.673332,398.88 989.94,398.88 C990.233335,398.88 990.523332,398.846667 990.81,398.78 C991.096668,398.713333 991.359999,398.613334 991.6,398.48 C991.840001,398.346666 992.043333,398.176668 992.21,397.97 C992.376667,397.763332 992.48,397.520001 992.52,397.24 L993.22,392.5 C993.26,392.233332 993.233334,392.000001 993.14,391.8 C993.046666,391.599999 992.906668,391.433334 992.72,391.3 C992.533332,391.166666 992.310001,391.066667 992.05,391 C991.789999,390.933333 991.513335,390.9 991.22,390.9 C990.926665,390.9 990.636668,390.933333 990.35,391 C990.063332,391.066667 989.800001,391.166666 989.56,391.3 C989.319999,391.433334 989.116667,391.599999 988.95,391.8 C988.783333,392.000001 988.68,392.233332 988.64,392.5 L987.94,397.34 Z M1005.78,393.78 L1011.24,393.78 L1010.78,397.12 L1005.32,397.12 L1004.64,402 L1001.02,402 L1003,387.84 L1012.86,387.84 L1012.38,391.24 L1006.14,391.24 L1005.78,393.78 Z M1016.74,397.22 C1016.7,397.500001 1016.72333,397.746666 1016.81,397.96 C1016.89667,398.173334 1017.02667,398.349999 1017.2,398.49 C1017.37333,398.630001 1017.57667,398.736666 1017.81,398.81 C1018.04333,398.883334 1018.28667,398.92 1018.54,398.92 C1018.80667,398.92 1019.06667,398.883334 1019.32,398.81 C1019.57333,398.736666 1019.80333,398.630001 1020.01,398.49 C1020.21667,398.349999 1020.39,398.173334 1020.53,397.96 C1020.67,397.746666 1020.76,397.500001 1020.8,397.22 L1022.12,387.84 L1025.74,387.84 L1024.42,397.22 C1024.3,398.046671 1024.03334,398.77333 1023.62,399.4 C1023.20666,400.02667 1022.70667,400.546665 1022.12,400.96 C1021.53333,401.373335 1020.88667,401.683332 1020.18,401.89 C1019.47333,402.096668 1018.76667,402.2 1018.06,402.2 C1017.35333,402.2 1016.67667,402.096668 1016.03,401.89 C1015.38333,401.683332 1014.82334,401.373335 1014.35,400.96 C1013.87666,400.546665 1013.52333,400.02667 1013.29,399.4 C1013.05667,398.77333 1013,398.046671 1013.12,397.22 L1014.44,387.84 L1018.06,387.84 L1016.74,397.22 Z M1027.86,387.84 L1031.26,387.84 L1033.84,393.88 L1034.64,396.72 L1034.72,396.7 L1034.68,394.26 L1035.58,387.84 L1039.14,387.84 L1037.16,402 L1033.54,402 L1031.12,396.42 L1030.28,393.58 L1030.2,393.6 L1030.24,396.34 L1029.46,402 L1025.88,402 L1027.86,387.84 Z M1044.22,393.32 L1049.96,393.32 L1049.52,396.5 L1043.78,396.5 L1043.48,398.62 L1049.72,398.62 L1049.26,402 L1039.4,402 L1041.38,387.84 L1051.24,387.84 L1050.76,391.22 L1044.52,391.22 L1044.22,393.32 Z M1063.16,387.84 L1063.62,389.04 L1056.14,398.74 L1061.92,398.7 L1061.46,402 L1050.98,402 L1050.5,400.68 L1057.94,391.16 L1052.26,391.16 L1052.72,387.84 L1063.16,387.84 Z" id="LEONARDO-FUNEZ"></path>
            </g>
        </g>
    </g>
</svg>