<?xml version="1.0" encoding="UTF-8"?>
<svg width="670px" height="117px" viewBox="0 0 670 117" version="1.1" xmlns="http://www.w3.org/2000/svg" xmlns:xlink="http://www.w3.org/1999/xlink">
    <!-- Generator: Sketch 43.2 (39069) - http://www.bohemiancoding.com/sketch -->
    <title>Group</title>
    <desc>Created with Sketch.</desc>
    <defs></defs>
    <g id="Page-1" stroke="none" stroke-width="1" fill="none" fill-rule="evenodd">
        <g id="Artboard" transform="translate(-157.000000, -227.000000)" fill="#FFFFFF">
            <g id="Group" transform="translate(157.000000, 227.000000)">
                <path d="M8.12,1.36 L22.52,1.36 L16.52,43.84 L39.56,43.84 L37.64,58 L0.2,58 L8.12,1.36 Z M62.36,23.28 L85.32,23.28 L83.56,36 L60.6,36 L59.4,44.48 L84.36,44.48 L82.52,58 L43.08,58 L51,1.36 L90.44,1.36 L88.52,14.88 L63.56,14.88 L62.36,23.28 Z M94.12,20 C94.6000024,16.7466504 95.6799916,13.9066788 97.36,11.48 C99.0400084,9.0533212 101.093321,7.0266748 103.52,5.4 C105.946679,3.7733252 108.613319,2.560004 111.52,1.76 C114.426681,0.959996 117.346652,0.56 120.28,0.56 C123.213348,0.56 126.039986,0.959996 128.76,1.76 C131.480014,2.560004 133.826657,3.7733252 135.8,5.4 C137.773343,7.0266748 139.266662,9.0533212 140.28,11.48 C141.293338,13.9066788 141.560002,16.7466504 141.08,20 L138.28,39.36 C137.799998,42.6133496 136.746675,45.4533212 135.12,47.88 C133.493325,50.3066788 131.480012,52.3333252 129.08,53.96 C126.679988,55.5866748 124.013348,56.799996 121.08,57.6 C118.146652,58.400004 115.133349,58.8 112.04,58.8 C109.106652,58.8 106.293347,58.400004 103.6,57.6 C100.906653,56.799996 98.5733432,55.5866748 96.6,53.96 C94.6266568,52.3333252 93.1333384,50.3066788 92.12,47.88 C91.1066616,45.4533212 90.8399976,42.6133496 91.32,39.36 L94.12,20 Z M105.64,39.36 C105.479999,40.3733384 105.613331,41.2666628 106.04,42.04 C106.466669,42.8133372 107.05333,43.4533308 107.8,43.96 C108.54667,44.4666692 109.439995,44.853332 110.48,45.12 C111.520005,45.386668 112.573328,45.52 113.64,45.52 C114.813339,45.52 115.973328,45.386668 117.12,45.12 C118.266672,44.853332 119.319995,44.453336 120.28,43.92 C121.240005,43.386664 122.05333,42.7066708 122.72,41.88 C123.38667,41.0533292 123.799999,40.0800056 123.96,38.96 L126.76,20 C126.920001,18.933328 126.813335,18.000004 126.44,17.2 C126.066665,16.399996 125.50667,15.733336 124.76,15.2 C124.01333,14.666664 123.120005,14.266668 122.08,14 C121.039995,13.733332 119.933339,13.6 118.76,13.6 C117.586661,13.6 116.426672,13.733332 115.28,14 C114.133328,14.266668 113.080005,14.666664 112.12,15.2 C111.159995,15.733336 110.34667,16.399996 109.68,17.2 C109.01333,18.000004 108.600001,18.933328 108.44,20 L105.64,39.36 Z M151.16,1.36 L164.76,1.36 L175.08,25.52 L178.28,36.88 L178.6,36.8 L178.44,27.04 L182.04,1.36 L196.28,1.36 L188.36,58 L173.88,58 L164.2,35.68 L160.84,24.32 L160.52,24.4 L160.68,35.36 L157.56,58 L143.24,58 L151.16,1.36 Z M245.32,58 L229.96,58 L227.8,46.64 L212.68,46.64 L207.64,58 L192.28,58 L219.96,1.36 L233,1.36 L245.32,58 Z M226.2,33.92 L224.52,17.36 L223.96,17.36 L217.72,33.92 L226.2,33.92 Z M268.52,40 L265.96,40 L263.48,58 L249,58 L256.92,1.36 L279.56,1.36 C282.493348,1.36 285.173321,1.759996 287.6,2.56 C290.026679,3.360004 292.079992,4.559992 293.76,6.16 C295.440008,7.760008 296.65333,9.7866544 297.4,12.24 C298.14667,14.6933456 298.333335,17.5733168 297.96,20.88 C297.586665,23.4933464 297.02667,25.7199908 296.28,27.56 C295.53333,29.4000092 294.600006,30.9733268 293.48,32.28 C292.359994,33.5866732 291.026674,34.7333284 289.48,35.72 C287.933326,36.7066716 286.20001,37.6533288 284.28,38.56 L297.88,58 L280.04,58 L268.52,40 Z M276.12,27.68 C278.360011,27.68 280.093327,27.0000068 281.32,25.64 C282.546673,24.2799932 283.266666,22.7733416 283.48,21.12 C283.693334,19.4133248 283.360004,17.9200064 282.48,16.64 C281.599996,15.3599936 280.093344,14.72 277.96,14.72 L269.56,14.72 L267.72,27.68 L276.12,27.68 Z M329.56,1.36 C332.386681,1.36 335.079987,1.7333296 337.64,2.48 C340.200013,3.2266704 342.386658,4.3733256 344.2,5.92 C346.013342,7.4666744 347.373329,9.4266548 348.28,11.8 C349.186671,14.1733452 349.400002,17.0133168 348.92,20.32 L346.2,39.36 C345.719998,42.6133496 344.706674,45.4133216 343.16,47.76 C341.613326,50.1066784 339.720011,52.0399924 337.48,53.56 C335.239989,55.0800076 332.74668,56.1999964 330,56.92 C327.25332,57.6400036 324.466681,58 321.64,58 L300.44,58 L308.36,1.36 L329.56,1.36 Z M323.96,44.56 C325.933343,44.56 327.679992,44.0800048 329.2,43.12 C330.720008,42.1599952 331.586666,40.9066744 331.8,39.36 L334.52,20.32 C334.733334,18.7733256 334.226673,17.4533388 333,16.36 C331.773327,15.2666612 330.173343,14.72 328.2,14.72 L320.92,14.72 L316.68,44.56 L323.96,44.56 Z M355.24,20 C355.720002,16.7466504 356.799992,13.9066788 358.48,11.48 C360.160008,9.0533212 362.213321,7.0266748 364.64,5.4 C367.066679,3.7733252 369.733319,2.560004 372.64,1.76 C375.546681,0.959996 378.466652,0.56 381.4,0.56 C384.333348,0.56 387.159986,0.959996 389.88,1.76 C392.600014,2.560004 394.946657,3.7733252 396.92,5.4 C398.893343,7.0266748 400.386662,9.0533212 401.4,11.48 C402.413338,13.9066788 402.680002,16.7466504 402.2,20 L399.4,39.36 C398.919998,42.6133496 397.866675,45.4533212 396.24,47.88 C394.613325,50.3066788 392.600012,52.3333252 390.2,53.96 C387.799988,55.5866748 385.133348,56.799996 382.2,57.6 C379.266652,58.400004 376.253349,58.8 373.16,58.8 C370.226652,58.8 367.413347,58.400004 364.72,57.6 C362.026653,56.799996 359.693343,55.5866748 357.72,53.96 C355.746657,52.3333252 354.253338,50.3066788 353.24,47.88 C352.226662,45.4533212 351.959998,42.6133496 352.44,39.36 L355.24,20 Z M366.76,39.36 C366.599999,40.3733384 366.733331,41.2666628 367.16,42.04 C367.586669,42.8133372 368.17333,43.4533308 368.92,43.96 C369.66667,44.4666692 370.559995,44.853332 371.6,45.12 C372.640005,45.386668 373.693328,45.52 374.76,45.52 C375.933339,45.52 377.093328,45.386668 378.24,45.12 C379.386672,44.853332 380.439995,44.453336 381.4,43.92 C382.360005,43.386664 383.17333,42.7066708 383.84,41.88 C384.50667,41.0533292 384.919999,40.0800056 385.08,38.96 L387.88,20 C388.040001,18.933328 387.933335,18.000004 387.56,17.2 C387.186665,16.399996 386.62667,15.733336 385.88,15.2 C385.13333,14.666664 384.240005,14.266668 383.2,14 C382.159995,13.733332 381.053339,13.6 379.88,13.6 C378.706661,13.6 377.546672,13.733332 376.4,14 C375.253328,14.266668 374.200005,14.666664 373.24,15.2 C372.279995,15.733336 371.46667,16.399996 370.8,17.2 C370.13333,18.000004 369.720001,18.933328 369.56,20 L366.76,39.36 Z M438.12,25.12 L459.96,25.12 L458.12,38.48 L436.28,38.48 L433.56,58 L419.08,58 L427,1.36 L466.44,1.36 L464.52,14.96 L439.56,14.96 L438.12,25.12 Z M481.96,38.88 C481.799999,40.0000056 481.893332,40.9866624 482.24,41.84 C482.586668,42.6933376 483.106663,43.3999972 483.8,43.96 C484.493337,44.5200028 485.306662,44.9466652 486.24,45.24 C487.173338,45.5333348 488.146662,45.68 489.16,45.68 C490.226672,45.68 491.266662,45.5333348 492.28,45.24 C493.293338,44.9466652 494.213329,44.5200028 495.04,43.96 C495.866671,43.3999972 496.559997,42.6933376 497.12,41.84 C497.680003,40.9866624 498.039999,40.0000056 498.2,38.88 L503.48,1.36 L517.96,1.36 L512.68,38.88 C512.199998,42.1866832 511.133342,45.0933208 509.48,47.6 C507.826658,50.1066792 505.826678,52.1866584 503.48,53.84 C501.133322,55.4933416 498.546681,56.7333292 495.72,57.56 C492.893319,58.3866708 490.066681,58.8 487.24,58.8 C484.413319,58.8 481.70668,58.3866708 479.12,57.56 C476.53332,56.7333292 474.293343,55.4933416 472.4,53.84 C470.506657,52.1866584 469.093338,50.1066792 468.16,47.6 C467.226662,45.0933208 466.999998,42.1866832 467.48,38.88 L472.76,1.36 L487.24,1.36 L481.96,38.88 Z M526.44,1.36 L540.04,1.36 L550.36,25.52 L553.56,36.88 L553.88,36.8 L553.72,27.04 L557.32,1.36 L571.56,1.36 L563.64,58 L549.16,58 L539.48,35.68 L536.12,24.32 L535.8,24.4 L535.96,35.36 L532.84,58 L518.52,58 L526.44,1.36 Z M591.88,23.28 L614.84,23.28 L613.08,36 L590.12,36 L588.92,44.48 L613.88,44.48 L612.04,58 L572.6,58 L580.52,1.36 L619.96,1.36 L618.04,14.88 L593.08,14.88 L591.88,23.28 Z M667.64,1.36 L669.48,6.16 L639.56,44.96 L662.68,44.8 L660.84,58 L618.92,58 L617,52.72 L646.76,14.64 L624.04,14.64 L625.88,1.36 L667.64,1.36 Z" id="LEONARDO-FUNEZ"></path>
                <path d="M123.94,90.04 L122.34,101.48 L135.82,101.48 L135.46,103.84 L121.98,103.84 L120.3,116 L117.94,116 L121.9,87.68 L139.62,87.68 L139.3,90.04 L123.94,90.04 Z M154.78,87.68 C156.11334,87.68 157.326661,87.8333318 158.42,88.14 C159.513339,88.4466682 160.439996,88.93333 161.2,89.6 C161.960004,90.26667 162.513332,91.1199948 162.86,92.16 C163.073334,92.82667 163.18,93.5866624 163.18,94.44 C163.18,94.9200024 163.153334,95.4133308 163.1,95.92 C162.886666,97.386674 162.453337,98.6333282 161.8,99.66 C161.146663,100.686672 160.346671,101.519997 159.4,102.16 C158.453329,102.800003 157.393339,103.266665 156.22,103.56 C155.046661,103.853335 153.820006,104 152.54,104 L152.46,104 L160.26,116 L157.42,116 L149.58,104 L144.18,104 L142.5,116 L140.14,116 L144.1,87.68 L154.78,87.68 Z M152.82,101.84 C153.913339,101.84 154.906662,101.740001 155.8,101.54 C156.693338,101.339999 157.479997,101.013336 158.16,100.56 C158.840003,100.106664 159.399998,99.5000038 159.84,98.74 C160.280002,97.9799962 160.579999,97.0400056 160.74,95.92 C160.793334,95.4666644 160.82,95.0533352 160.82,94.68 C160.82,94.0933304 160.753334,93.5733356 160.62,93.12 C160.379999,92.3733296 159.980003,91.7733356 159.42,91.32 C158.859997,90.8666644 158.160004,90.540001 157.32,90.34 C156.479996,90.139999 155.540005,90.04 154.5,90.04 L146.14,90.04 L144.46,101.84 L152.82,101.84 Z M179.1,87.28 C180.51334,87.28 181.86666,87.4599982 183.16,87.82 C184.45334,88.1800018 185.573329,88.726663 186.52,89.46 C187.466671,90.193337 188.179998,91.1066612 188.66,92.2 C189.006668,93.000004 189.18,93.8799952 189.18,94.84 C189.18,95.2133352 189.153334,95.599998 189.1,96 L187.46,107.68 C187.246666,109.120007 186.746671,110.386661 185.96,111.48 C185.173329,112.573339 184.200006,113.486663 183.04,114.22 C181.879994,114.953337 180.600007,115.499998 179.2,115.86 C177.799993,116.220002 176.406674,116.4 175.02,116.4 C173.60666,116.4 172.260006,116.220002 170.98,115.86 C169.699994,115.499998 168.580005,114.953337 167.62,114.22 C166.659995,113.486663 165.926669,112.573339 165.42,111.48 C165.099998,110.706663 164.94,109.853338 164.94,108.92 C164.94,108.519998 164.966666,108.106669 165.02,107.68 L166.66,96 C166.846668,94.5599928 167.339996,93.2933388 168.14,92.2 C168.940004,91.1066612 169.919994,90.193337 171.08,89.46 C172.240006,88.726663 173.513326,88.1800018 174.9,87.82 C176.286674,87.4599982 177.68666,87.28 179.1,87.28 Z M167.3,108.56 C167.3,109.253337 167.446665,109.89333 167.74,110.48 C168.140002,111.253337 168.719996,111.906664 169.48,112.44 C170.240004,112.973336 171.126662,113.373332 172.14,113.64 C173.153338,113.906668 174.219994,114.04 175.34,114.04 C176.433339,114.04 177.533328,113.906668 178.64,113.64 C179.746672,113.373332 180.753329,112.973336 181.66,112.44 C182.566671,111.906664 183.326664,111.246671 183.94,110.46 C184.553336,109.673329 184.939999,108.746672 185.1,107.68 L186.74,96 C186.793334,95.6799984 186.82,95.3733348 186.82,95.08 C186.82,94.3333296 186.673335,93.6800028 186.38,93.12 C185.979998,92.319996 185.393337,91.6600026 184.62,91.14 C183.846663,90.6199974 182.946672,90.2400012 181.92,90 C180.893328,89.7599988 179.820006,89.64 178.7,89.64 C177.606661,89.64 176.513339,89.7666654 175.42,90.02 C174.326661,90.2733346 173.333338,90.6599974 172.44,91.18 C171.546662,91.7000026 170.793336,92.359996 170.18,93.16 C169.566664,93.960004 169.180001,94.9066612 169.02,96 L167.38,107.68 C167.326666,107.973335 167.3,108.266665 167.3,108.56 Z M210.94,113.4 L214.54,87.68 L216.9,87.68 L212.94,116 L209.42,116 L197.5,91.32 L194.06,116 L191.7,116 L195.66,87.68 L198.54,87.68 L210.94,113.4 Z M241.5,90.04 L232.06,90.04 L228.42,116 L226.06,116 L229.7,90.04 L220.26,90.04 L220.58,87.68 L241.82,87.68 L241.5,90.04 Z M249.62,105.16 L239.74,105.16 L240.06,102.84 L249.94,102.84 L249.62,105.16 Z M257.86,100.64 L272.06,100.64 L271.74,103.04 L257.54,103.04 L256.06,113.64 L271.46,113.64 L271.14,116 L253.38,116 L257.34,87.68 L275.1,87.68 L274.78,90.04 L259.38,90.04 L257.86,100.64 Z M295.3,113.4 L298.9,87.68 L301.26,87.68 L297.3,116 L293.78,116 L281.86,91.32 L278.42,116 L276.06,116 L280.02,87.68 L282.9,87.68 L295.3,113.4 Z M316.98,87.68 C318.31334,87.68 319.593327,87.8399984 320.82,88.16 C322.046673,88.4800016 323.106662,88.97333 324,89.64 C324.893338,90.30667 325.566664,91.1599948 326.02,92.2 C326.340002,92.9466704 326.5,93.786662 326.5,94.72 C326.5,95.120002 326.473334,95.5333312 326.42,95.96 L324.74,107.76 C324.526666,109.200007 324.04667,110.439995 323.3,111.48 C322.55333,112.520005 321.640005,113.37333 320.56,114.04 C319.479995,114.70667 318.286673,115.199998 316.98,115.52 C315.673327,115.840002 314.35334,116 313.02,116 L303.58,116 L307.54,87.68 L316.98,87.68 Z M313.34,113.64 C314.380005,113.64 315.406662,113.533334 316.42,113.32 C317.433338,113.106666 318.359996,112.760002 319.2,112.28 C320.040004,111.799998 320.746664,111.18667 321.32,110.44 C321.893336,109.69333 322.246666,108.800005 322.38,107.76 L324.06,95.96 C324.113334,95.6399984 324.14,95.3333348 324.14,95.04 C324.14,94.37333 324.006668,93.773336 323.74,93.24 C323.366665,92.4933296 322.82667,91.8800024 322.12,91.4 C321.41333,90.9199976 320.586671,90.5733344 319.64,90.36 C318.693329,90.1466656 317.700005,90.04 316.66,90.04 L309.58,90.04 L306.26,113.64 L313.34,113.64 Z M351.34,87.68 C352.67334,87.68 353.953327,87.8399984 355.18,88.16 C356.406673,88.4800016 357.466662,88.97333 358.36,89.64 C359.253338,90.30667 359.926664,91.1599948 360.38,92.2 C360.700002,92.9466704 360.86,93.786662 360.86,94.72 C360.86,95.120002 360.833334,95.5333312 360.78,95.96 L359.1,107.76 C358.886666,109.200007 358.40667,110.439995 357.66,111.48 C356.91333,112.520005 356.000005,113.37333 354.92,114.04 C353.839995,114.70667 352.646673,115.199998 351.34,115.52 C350.033327,115.840002 348.71334,116 347.38,116 L337.94,116 L341.9,87.68 L351.34,87.68 Z M347.7,113.64 C348.740005,113.64 349.766662,113.533334 350.78,113.32 C351.793338,113.106666 352.719996,112.760002 353.56,112.28 C354.400004,111.799998 355.106664,111.18667 355.68,110.44 C356.253336,109.69333 356.606666,108.800005 356.74,107.76 L358.42,95.96 C358.473334,95.6399984 358.5,95.3333348 358.5,95.04 C358.5,94.37333 358.366668,93.773336 358.1,93.24 C357.726665,92.4933296 357.18667,91.8800024 356.48,91.4 C355.77333,90.9199976 354.946671,90.5733344 354,90.36 C353.053329,90.1466656 352.060005,90.04 351.02,90.04 L343.94,90.04 L340.62,113.64 L347.7,113.64 Z M368.02,100.64 L382.22,100.64 L381.9,103.04 L367.7,103.04 L366.22,113.64 L381.62,113.64 L381.3,116 L363.54,116 L367.5,87.68 L385.26,87.68 L384.94,90.04 L369.54,90.04 L368.02,100.64 Z M387.22,87.68 L389.7,87.68 L395.46,114.24 L408.58,87.68 L411.06,87.68 L396.94,116 L393.46,116 L387.22,87.68 Z M414.94,100.64 L429.14,100.64 L428.82,103.04 L414.62,103.04 L413.14,113.64 L428.54,113.64 L428.22,116 L410.46,116 L414.42,87.68 L432.18,87.68 L431.86,90.04 L416.46,90.04 L414.94,100.64 Z M433.14,116 L437.1,87.68 L439.46,87.68 L435.82,113.64 L449.98,113.64 L449.66,116 L433.14,116 Z M466.66,87.28 C468.07334,87.28 469.42666,87.4599982 470.72,87.82 C472.01334,88.1800018 473.133329,88.726663 474.08,89.46 C475.026671,90.193337 475.739998,91.1066612 476.22,92.2 C476.566668,93.000004 476.74,93.8799952 476.74,94.84 C476.74,95.2133352 476.713334,95.599998 476.66,96 L475.02,107.68 C474.806666,109.120007 474.306671,110.386661 473.52,111.48 C472.733329,112.573339 471.760006,113.486663 470.6,114.22 C469.439994,114.953337 468.160007,115.499998 466.76,115.86 C465.359993,116.220002 463.966674,116.4 462.58,116.4 C461.16666,116.4 459.820006,116.220002 458.54,115.86 C457.259994,115.499998 456.140005,114.953337 455.18,114.22 C454.219995,113.486663 453.486669,112.573339 452.98,111.48 C452.659998,110.706663 452.5,109.853338 452.5,108.92 C452.5,108.519998 452.526666,108.106669 452.58,107.68 L454.22,96 C454.406668,94.5599928 454.899996,93.2933388 455.7,92.2 C456.500004,91.1066612 457.479994,90.193337 458.64,89.46 C459.800006,88.726663 461.073326,88.1800018 462.46,87.82 C463.846674,87.4599982 465.24666,87.28 466.66,87.28 Z M454.86,108.56 C454.86,109.253337 455.006665,109.89333 455.3,110.48 C455.700002,111.253337 456.279996,111.906664 457.04,112.44 C457.800004,112.973336 458.686662,113.373332 459.7,113.64 C460.713338,113.906668 461.779994,114.04 462.9,114.04 C463.993339,114.04 465.093328,113.906668 466.2,113.64 C467.306672,113.373332 468.313329,112.973336 469.22,112.44 C470.126671,111.906664 470.886664,111.246671 471.5,110.46 C472.113336,109.673329 472.499999,108.746672 472.66,107.68 L474.3,96 C474.353334,95.6799984 474.38,95.3733348 474.38,95.08 C474.38,94.3333296 474.233335,93.6800028 473.94,93.12 C473.539998,92.319996 472.953337,91.6600026 472.18,91.14 C471.406663,90.6199974 470.506672,90.2400012 469.48,90 C468.453328,89.7599988 467.380006,89.64 466.26,89.64 C465.166661,89.64 464.073339,89.7666654 462.98,90.02 C461.886661,90.2733346 460.893338,90.6599974 460,91.18 C459.106662,91.7000026 458.353336,92.359996 457.74,93.16 C457.126664,93.960004 456.740001,94.9066612 456.58,96 L454.94,107.68 C454.886666,107.973335 454.86,108.266665 454.86,108.56 Z M493.9,87.68 C495.98001,87.68 497.653327,88.1199956 498.92,89 C500.186673,89.8800044 501.073331,90.9733268 501.58,92.28 C501.953335,93.1866712 502.14,94.1466616 502.14,95.16 C502.14,95.6133356 502.113334,96.0799976 502.06,96.56 C501.819999,98.0800076 501.266671,99.4933268 500.4,100.8 C499.533329,102.106673 498.346674,103.199996 496.84,104.08 C495.333326,104.960004 493.54001,105.4 491.46,105.4 L483.1,105.4 L481.62,116 L479.26,116 L483.22,87.68 L493.9,87.68 Z M491.74,103.04 C493.313341,103.04 494.666661,102.720003 495.8,102.08 C496.933339,101.439997 497.826663,100.640005 498.48,99.68 C499.133337,98.7199952 499.526666,97.6800056 499.66,96.56 C499.713334,96.2399984 499.74,95.9333348 499.74,95.64 C499.74,94.839996 499.606668,94.0933368 499.34,93.4 C498.939998,92.4399952 498.266671,91.6400032 497.32,91 C496.373329,90.3599968 495.126674,90.04 493.58,90.04 L485.26,90.04 L483.42,103.04 L491.74,103.04 Z M508.18,100.64 L522.38,100.64 L522.06,103.04 L507.86,103.04 L506.38,113.64 L521.78,113.64 L521.46,116 L503.7,116 L507.66,87.68 L525.42,87.68 L525.1,90.04 L509.7,90.04 L508.18,100.64 Z M541.02,87.68 C542.35334,87.68 543.566661,87.8333318 544.66,88.14 C545.753339,88.4466682 546.679996,88.93333 547.44,89.6 C548.200004,90.26667 548.753332,91.1199948 549.1,92.16 C549.313334,92.82667 549.42,93.5866624 549.42,94.44 C549.42,94.9200024 549.393334,95.4133308 549.34,95.92 C549.126666,97.386674 548.693337,98.6333282 548.04,99.66 C547.386663,100.686672 546.586671,101.519997 545.64,102.16 C544.693329,102.800003 543.633339,103.266665 542.46,103.56 C541.286661,103.853335 540.060006,104 538.78,104 L538.7,104 L546.5,116 L543.66,116 L535.82,104 L530.42,104 L528.74,116 L526.38,116 L530.34,87.68 L541.02,87.68 Z M539.06,101.84 C540.153339,101.84 541.146662,101.740001 542.04,101.54 C542.933338,101.339999 543.719997,101.013336 544.4,100.56 C545.080003,100.106664 545.639998,99.5000038 546.08,98.74 C546.520002,97.9799962 546.819999,97.0400056 546.98,95.92 C547.033334,95.4666644 547.06,95.0533352 547.06,94.68 C547.06,94.0933304 546.993334,93.5733356 546.86,93.12 C546.619999,92.3733296 546.220003,91.7733356 545.66,91.32 C545.099997,90.8666644 544.400004,90.540001 543.56,90.34 C542.719996,90.139999 541.780005,90.04 540.74,90.04 L532.38,90.04 L530.7,101.84 L539.06,101.84 Z" id="FRONT-END-DEVELOPER"></path>
            </g>
        </g>
    </g>
</svg>