<?xml version="1.0" encoding="UTF-8"?>
<svg width="657px" height="118px" viewBox="0 0 657 118" version="1.1" xmlns="http://www.w3.org/2000/svg" xmlns:xlink="http://www.w3.org/1999/xlink">
    <!-- Generator: Sketch 47.1 (45422) - http://www.bohemiancoding.com/sketch -->
    <title>logo</title>
    <desc>Created with Sketch.</desc>
    <defs></defs>
    <g id="Page-1" stroke="none" stroke-width="1" fill="none" fill-rule="evenodd">
        <g id="Artboard" transform="translate(-37.000000, -44.000000)" fill="#FFFFFF">
            <g id="logo" transform="translate(37.000000, 44.000000)">
                <path d="M109.94,91.04 L108.34,102.48 L121.82,102.48 L121.46,104.84 L107.98,104.84 L106.3,117 L103.94,117 L107.9,88.68 L125.62,88.68 L125.3,91.04 L109.94,91.04 Z M140.78,88.68 C142.11334,88.68 143.326661,88.8333318 144.42,89.14 C145.513339,89.4466682 146.439996,89.93333 147.2,90.6 C147.960004,91.26667 148.513332,92.1199948 148.86,93.16 C149.073334,93.82667 149.18,94.5866624 149.18,95.44 C149.18,95.9200024 149.153334,96.4133308 149.1,96.92 C148.886666,98.386674 148.453337,99.6333282 147.8,100.66 C147.146663,101.686672 146.346671,102.519997 145.4,103.16 C144.453329,103.800003 143.393339,104.266665 142.22,104.56 C141.046661,104.853335 139.820006,105 138.54,105 L138.46,105 L146.26,117 L143.42,117 L135.58,105 L130.18,105 L128.5,117 L126.14,117 L130.1,88.68 L140.78,88.68 Z M138.82,102.84 C139.913339,102.84 140.906662,102.740001 141.8,102.54 C142.693338,102.339999 143.479997,102.013336 144.16,101.56 C144.840003,101.106664 145.399998,100.500004 145.84,99.74 C146.280002,98.9799962 146.579999,98.0400056 146.74,96.92 C146.793334,96.4666644 146.82,96.0533352 146.82,95.68 C146.82,95.0933304 146.753334,94.5733356 146.62,94.12 C146.379999,93.3733296 145.980003,92.7733356 145.42,92.32 C144.859997,91.8666644 144.160004,91.540001 143.32,91.34 C142.479996,91.139999 141.540005,91.04 140.5,91.04 L132.14,91.04 L130.46,102.84 L138.82,102.84 Z M165.1,88.28 C166.51334,88.28 167.86666,88.4599982 169.16,88.82 C170.45334,89.1800018 171.573329,89.726663 172.52,90.46 C173.466671,91.193337 174.179998,92.1066612 174.66,93.2 C175.006668,94.000004 175.18,94.8799952 175.18,95.84 C175.18,96.2133352 175.153334,96.599998 175.1,97 L173.46,108.68 C173.246666,110.120007 172.746671,111.386661 171.96,112.48 C171.173329,113.573339 170.200006,114.486663 169.04,115.22 C167.879994,115.953337 166.600007,116.499998 165.2,116.86 C163.799993,117.220002 162.406674,117.4 161.02,117.4 C159.60666,117.4 158.260006,117.220002 156.98,116.86 C155.699994,116.499998 154.580005,115.953337 153.62,115.22 C152.659995,114.486663 151.926669,113.573339 151.42,112.48 C151.099998,111.706663 150.94,110.853338 150.94,109.92 C150.94,109.519998 150.966666,109.106669 151.02,108.68 L152.66,97 C152.846668,95.5599928 153.339996,94.2933388 154.14,93.2 C154.940004,92.1066612 155.919994,91.193337 157.08,90.46 C158.240006,89.726663 159.513326,89.1800018 160.9,88.82 C162.286674,88.4599982 163.68666,88.28 165.1,88.28 Z M153.3,109.56 C153.3,110.253337 153.446665,110.89333 153.74,111.48 C154.140002,112.253337 154.719996,112.906664 155.48,113.44 C156.240004,113.973336 157.126662,114.373332 158.14,114.64 C159.153338,114.906668 160.219994,115.04 161.34,115.04 C162.433339,115.04 163.533328,114.906668 164.64,114.64 C165.746672,114.373332 166.753329,113.973336 167.66,113.44 C168.566671,112.906664 169.326664,112.246671 169.94,111.46 C170.553336,110.673329 170.939999,109.746672 171.1,108.68 L172.74,97 C172.793334,96.6799984 172.82,96.3733348 172.82,96.08 C172.82,95.3333296 172.673335,94.6800028 172.38,94.12 C171.979998,93.319996 171.393337,92.6600026 170.62,92.14 C169.846663,91.6199974 168.946672,91.2400012 167.92,91 C166.893328,90.7599988 165.820006,90.64 164.7,90.64 C163.606661,90.64 162.513339,90.7666654 161.42,91.02 C160.326661,91.2733346 159.333338,91.6599974 158.44,92.18 C157.546662,92.7000026 156.793336,93.359996 156.18,94.16 C155.566664,94.960004 155.180001,95.9066612 155.02,97 L153.38,108.68 C153.326666,108.973335 153.3,109.266665 153.3,109.56 Z M196.94,114.4 L200.54,88.68 L202.9,88.68 L198.94,117 L195.42,117 L183.5,92.32 L180.06,117 L177.7,117 L181.66,88.68 L184.54,88.68 L196.94,114.4 Z M227.5,91.04 L218.06,91.04 L214.42,117 L212.06,117 L215.7,91.04 L206.26,91.04 L206.58,88.68 L227.82,88.68 L227.5,91.04 Z M235.62,106.16 L225.74,106.16 L226.06,103.84 L235.94,103.84 L235.62,106.16 Z M243.86,101.64 L258.06,101.64 L257.74,104.04 L243.54,104.04 L242.06,114.64 L257.46,114.64 L257.14,117 L239.38,117 L243.34,88.68 L261.1,88.68 L260.78,91.04 L245.38,91.04 L243.86,101.64 Z M281.3,114.4 L284.9,88.68 L287.26,88.68 L283.3,117 L279.78,117 L267.86,92.32 L264.42,117 L262.06,117 L266.02,88.68 L268.9,88.68 L281.3,114.4 Z M302.98,88.68 C304.31334,88.68 305.593327,88.8399984 306.82,89.16 C308.046673,89.4800016 309.106662,89.97333 310,90.64 C310.893338,91.30667 311.566664,92.1599948 312.02,93.2 C312.340002,93.9466704 312.5,94.786662 312.5,95.72 C312.5,96.120002 312.473334,96.5333312 312.42,96.96 L310.74,108.76 C310.526666,110.200007 310.04667,111.439995 309.3,112.48 C308.55333,113.520005 307.640005,114.37333 306.56,115.04 C305.479995,115.70667 304.286673,116.199998 302.98,116.52 C301.673327,116.840002 300.35334,117 299.02,117 L289.58,117 L293.54,88.68 L302.98,88.68 Z M299.34,114.64 C300.380005,114.64 301.406662,114.533334 302.42,114.32 C303.433338,114.106666 304.359996,113.760002 305.2,113.28 C306.040004,112.799998 306.746664,112.18667 307.32,111.44 C307.893336,110.69333 308.246666,109.800005 308.38,108.76 L310.06,96.96 C310.113334,96.6399984 310.14,96.3333348 310.14,96.04 C310.14,95.37333 310.006668,94.773336 309.74,94.24 C309.366665,93.4933296 308.82667,92.8800024 308.12,92.4 C307.41333,91.9199976 306.586671,91.5733344 305.64,91.36 C304.693329,91.1466656 303.700005,91.04 302.66,91.04 L295.58,91.04 L292.26,114.64 L299.34,114.64 Z M337.34,88.68 C338.67334,88.68 339.953327,88.8399984 341.18,89.16 C342.406673,89.4800016 343.466662,89.97333 344.36,90.64 C345.253338,91.30667 345.926664,92.1599948 346.38,93.2 C346.700002,93.9466704 346.86,94.786662 346.86,95.72 C346.86,96.120002 346.833334,96.5333312 346.78,96.96 L345.1,108.76 C344.886666,110.200007 344.40667,111.439995 343.66,112.48 C342.91333,113.520005 342.000005,114.37333 340.92,115.04 C339.839995,115.70667 338.646673,116.199998 337.34,116.52 C336.033327,116.840002 334.71334,117 333.38,117 L323.94,117 L327.9,88.68 L337.34,88.68 Z M333.7,114.64 C334.740005,114.64 335.766662,114.533334 336.78,114.32 C337.793338,114.106666 338.719996,113.760002 339.56,113.28 C340.400004,112.799998 341.106664,112.18667 341.68,111.44 C342.253336,110.69333 342.606666,109.800005 342.74,108.76 L344.42,96.96 C344.473334,96.6399984 344.5,96.3333348 344.5,96.04 C344.5,95.37333 344.366668,94.773336 344.1,94.24 C343.726665,93.4933296 343.18667,92.8800024 342.48,92.4 C341.77333,91.9199976 340.946671,91.5733344 340,91.36 C339.053329,91.1466656 338.060005,91.04 337.02,91.04 L329.94,91.04 L326.62,114.64 L333.7,114.64 Z M354.02,101.64 L368.22,101.64 L367.9,104.04 L353.7,104.04 L352.22,114.64 L367.62,114.64 L367.3,117 L349.54,117 L353.5,88.68 L371.26,88.68 L370.94,91.04 L355.54,91.04 L354.02,101.64 Z M373.22,88.68 L375.7,88.68 L381.46,115.24 L394.58,88.68 L397.06,88.68 L382.94,117 L379.46,117 L373.22,88.68 Z M400.94,101.64 L415.14,101.64 L414.82,104.04 L400.62,104.04 L399.14,114.64 L414.54,114.64 L414.22,117 L396.46,117 L400.42,88.68 L418.18,88.68 L417.86,91.04 L402.46,91.04 L400.94,101.64 Z M419.14,117 L423.1,88.68 L425.46,88.68 L421.82,114.64 L435.98,114.64 L435.66,117 L419.14,117 Z M452.66,88.28 C454.07334,88.28 455.42666,88.4599982 456.72,88.82 C458.01334,89.1800018 459.133329,89.726663 460.08,90.46 C461.026671,91.193337 461.739998,92.1066612 462.22,93.2 C462.566668,94.000004 462.74,94.8799952 462.74,95.84 C462.74,96.2133352 462.713334,96.599998 462.66,97 L461.02,108.68 C460.806666,110.120007 460.306671,111.386661 459.52,112.48 C458.733329,113.573339 457.760006,114.486663 456.6,115.22 C455.439994,115.953337 454.160007,116.499998 452.76,116.86 C451.359993,117.220002 449.966674,117.4 448.58,117.4 C447.16666,117.4 445.820006,117.220002 444.54,116.86 C443.259994,116.499998 442.140005,115.953337 441.18,115.22 C440.219995,114.486663 439.486669,113.573339 438.98,112.48 C438.659998,111.706663 438.5,110.853338 438.5,109.92 C438.5,109.519998 438.526666,109.106669 438.58,108.68 L440.22,97 C440.406668,95.5599928 440.899996,94.2933388 441.7,93.2 C442.500004,92.1066612 443.479994,91.193337 444.64,90.46 C445.800006,89.726663 447.073326,89.1800018 448.46,88.82 C449.846674,88.4599982 451.24666,88.28 452.66,88.28 Z M440.86,109.56 C440.86,110.253337 441.006665,110.89333 441.3,111.48 C441.700002,112.253337 442.279996,112.906664 443.04,113.44 C443.800004,113.973336 444.686662,114.373332 445.7,114.64 C446.713338,114.906668 447.779994,115.04 448.9,115.04 C449.993339,115.04 451.093328,114.906668 452.2,114.64 C453.306672,114.373332 454.313329,113.973336 455.22,113.44 C456.126671,112.906664 456.886664,112.246671 457.5,111.46 C458.113336,110.673329 458.499999,109.746672 458.66,108.68 L460.3,97 C460.353334,96.6799984 460.38,96.3733348 460.38,96.08 C460.38,95.3333296 460.233335,94.6800028 459.94,94.12 C459.539998,93.319996 458.953337,92.6600026 458.18,92.14 C457.406663,91.6199974 456.506672,91.2400012 455.48,91 C454.453328,90.7599988 453.380006,90.64 452.26,90.64 C451.166661,90.64 450.073339,90.7666654 448.98,91.02 C447.886661,91.2733346 446.893338,91.6599974 446,92.18 C445.106662,92.7000026 444.353336,93.359996 443.74,94.16 C443.126664,94.960004 442.740001,95.9066612 442.58,97 L440.94,108.68 C440.886666,108.973335 440.86,109.266665 440.86,109.56 Z M479.9,88.68 C481.98001,88.68 483.653327,89.1199956 484.92,90 C486.186673,90.8800044 487.073331,91.9733268 487.58,93.28 C487.953335,94.1866712 488.14,95.1466616 488.14,96.16 C488.14,96.6133356 488.113334,97.0799976 488.06,97.56 C487.819999,99.0800076 487.266671,100.493327 486.4,101.8 C485.533329,103.106673 484.346674,104.199996 482.84,105.08 C481.333326,105.960004 479.54001,106.4 477.46,106.4 L469.1,106.4 L467.62,117 L465.26,117 L469.22,88.68 L479.9,88.68 Z M477.74,104.04 C479.313341,104.04 480.666661,103.720003 481.8,103.08 C482.933339,102.439997 483.826663,101.640005 484.48,100.68 C485.133337,99.7199952 485.526666,98.6800056 485.66,97.56 C485.713334,97.2399984 485.74,96.9333348 485.74,96.64 C485.74,95.839996 485.606668,95.0933368 485.34,94.4 C484.939998,93.4399952 484.266671,92.6400032 483.32,92 C482.373329,91.3599968 481.126674,91.04 479.58,91.04 L471.26,91.04 L469.42,104.04 L477.74,104.04 Z M494.18,101.64 L508.38,101.64 L508.06,104.04 L493.86,104.04 L492.38,114.64 L507.78,114.64 L507.46,117 L489.7,117 L493.66,88.68 L511.42,88.68 L511.1,91.04 L495.7,91.04 L494.18,101.64 Z M527.02,88.68 C528.35334,88.68 529.566661,88.8333318 530.66,89.14 C531.753339,89.4466682 532.679996,89.93333 533.44,90.6 C534.200004,91.26667 534.753332,92.1199948 535.1,93.16 C535.313334,93.82667 535.42,94.5866624 535.42,95.44 C535.42,95.9200024 535.393334,96.4133308 535.34,96.92 C535.126666,98.386674 534.693337,99.6333282 534.04,100.66 C533.386663,101.686672 532.586671,102.519997 531.64,103.16 C530.693329,103.800003 529.633339,104.266665 528.46,104.56 C527.286661,104.853335 526.060006,105 524.78,105 L524.7,105 L532.5,117 L529.66,117 L521.82,105 L516.42,105 L514.74,117 L512.38,117 L516.34,88.68 L527.02,88.68 Z M525.06,102.84 C526.153339,102.84 527.146662,102.740001 528.04,102.54 C528.933338,102.339999 529.719997,102.013336 530.4,101.56 C531.080003,101.106664 531.639998,100.500004 532.08,99.74 C532.520002,98.9799962 532.819999,98.0400056 532.98,96.92 C533.033334,96.4666644 533.06,96.0533352 533.06,95.68 C533.06,95.0933304 532.993334,94.5733356 532.86,94.12 C532.619999,93.3733296 532.220003,92.7733356 531.66,92.32 C531.099997,91.8666644 530.400004,91.540001 529.56,91.34 C528.719996,91.139999 527.780005,91.04 526.74,91.04 L518.38,91.04 L516.7,102.84 L525.06,102.84 Z" id="FRONT-END-DEVELOPER" fill-rule="nonzero"></path>
                <path d="M35.044,19.168 C34.5959978,17.375991 33.6580071,16.0740041 32.23,15.262 C30.8019929,14.4499959 29.2480084,14.044 27.568,14.044 C26.5039947,14.044 25.4540052,14.1979985 24.418,14.506 C23.3819948,14.8140015 22.4440042,15.2619971 21.604,15.85 C20.7639958,16.4380029 20.0500029,17.1519958 19.462,17.992 C18.8739971,18.8320042 18.4960008,19.7839947 18.328,20.848 L15.472,41.26 C15.1919986,43.5560115 15.849992,45.2639944 17.446,46.384 C19.042008,47.5040056 20.9599888,48.064 23.2,48.064 C24.2640053,48.064 25.3419945,47.9240014 26.434,47.644 C27.5260055,47.3639986 28.5199955,46.9440028 29.416,46.384 C30.3120045,45.8239972 31.0679969,45.1100043 31.684,44.242 C32.3000031,43.3739957 32.6919992,42.3800056 32.86,41.26 L33.196,38.74 L23.704,38.74 L25.384,26.476 L49.324,26.476 L47.308,41.26 C46.8039975,44.6760171 45.7120084,47.6719871 44.032,50.248 C42.3519916,52.8240129 40.2940122,54.9659915 37.858,56.674 C35.4219878,58.3820085 32.7340147,59.6699957 29.794,60.538 C26.8539853,61.4060043 23.9000148,61.84 20.932,61.84 C17.9639852,61.84 15.1500133,61.4060043 12.49,60.538 C9.8299867,59.6699957 7.5200098,58.3820085 5.56,56.674 C3.5999902,54.9659915 2.1300049,52.8240129 1.15,50.248 C0.1699951,47.6719871 -0.06800252,44.6760171 0.436,41.26 L3.292,20.848 C3.79600252,17.3759826 4.8879916,14.3800126 6.568,11.86 C8.2480084,9.3399874 10.3059878,7.25400826 12.742,5.602 C15.1780122,3.94999174 17.8519854,2.71800406 20.764,1.906 C23.6760146,1.09399594 26.6159852,0.688 29.584,0.688 C31.4880095,0.688 33.4199902,0.8979979 35.38,1.318 C37.3400098,1.7380021 39.1739915,2.45199496 40.882,3.46 C42.5900085,4.46800504 44.1159933,5.78399188 45.46,7.408 C46.8040067,9.03200812 47.8119966,11.0199882 48.484,13.372 L35.044,19.168 Z M100.732,61 L84.604,61 L82.336,49.072 L66.46,49.072 L61.168,61 L45.04,61 L74.104,1.528 L87.796,1.528 L100.732,61 Z M80.656,35.716 L78.892,18.328 L78.304,18.328 L71.752,35.716 L80.656,35.716 Z M153.568,19.672 C153.455999,20.3440034 153.218002,21.1279955 152.854,22.024 C152.489998,22.9200045 151.986003,23.8159955 151.342,24.712 C150.697997,25.6080045 149.942004,26.4619959 149.074,27.274 C148.205996,28.0860041 147.184006,28.7719972 146.008,29.332 C147.91201,30.340005 149.367995,31.543993 150.376,32.944 C151.384005,34.344007 152.083998,35.7999924 152.476,37.312 C152.868002,38.8240076 152.994001,40.3079927 152.854,41.764 C152.713999,43.2200073 152.476002,44.5079944 152.14,45.628 C150.683993,50.4440241 148.094019,54.2099864 144.37,56.926 C140.645981,59.6420136 135.480033,61 128.872,61 L104.596,61 L112.912,1.528 L136.768,1.528 C139.624014,1.528 142.185989,1.9479958 144.454,2.788 C146.722011,3.6280042 148.611992,4.8179923 150.124,6.358 C151.636008,7.8980077 152.713997,9.7879888 153.358,12.028 C154.002003,14.2680112 154.072003,16.8159857 153.568,19.672 Z M133.492,24.796 C135.340009,24.796 136.809995,24.2500055 137.902,23.158 C138.994005,22.0659945 139.637999,20.8480067 139.834,19.504 C140.030001,18.1599933 139.750004,16.9420055 138.994,15.85 C138.237996,14.7579945 136.90801,14.212 135.004,14.212 L126.268,14.212 L124.756,24.796 L133.492,24.796 Z M130.3,47.812 C132.540011,47.812 134.317993,47.1820063 135.634,45.922 C136.950007,44.6619937 137.705999,43.2620077 137.902,41.722 C138.098001,40.1819923 137.720005,38.7820063 136.768,37.522 C135.815995,36.2619937 134.220011,35.632 131.98,35.632 L123.244,35.632 L121.564,47.812 L130.3,47.812 Z M177.424,42.1 L174.736,42.1 L172.132,61 L156.928,61 L165.244,1.528 L189.016,1.528 C192.096015,1.528 194.909987,1.9479958 197.458,2.788 C200.006013,3.6280042 202.161991,4.8879916 203.926,6.568 C205.690009,8.2480084 206.963996,10.3759871 207.748,12.952 C208.532004,15.5280129 208.728002,18.5519826 208.336,22.024 C207.943998,24.7680137 207.356004,27.1059903 206.572,29.038 C205.787996,30.9700097 204.808006,32.6219931 203.632,33.994 C202.455994,35.3660069 201.056008,36.5699948 199.432,37.606 C197.807992,38.6420052 195.98801,39.6359952 193.972,40.588 L208.252,61 L189.52,61 L177.424,42.1 Z M185.404,29.164 C187.756012,29.164 189.575994,28.4500071 190.864,27.022 C192.152006,25.5939929 192.907999,24.0120087 193.132,22.276 C193.356001,20.483991 193.006005,18.9160067 192.082,17.572 C191.157995,16.2279933 189.576011,15.556 187.336,15.556 L178.516,15.556 L176.584,29.164 L185.404,29.164 Z M225.976,61 L210.94,61 L219.256,1.528 L234.292,1.528 L225.976,61 Z M255.628,24.544 L279.736,24.544 L277.888,37.9 L253.78,37.9 L252.52,46.804 L278.728,46.804 L276.796,61 L235.384,61 L243.7,1.528 L285.112,1.528 L283.096,15.724 L256.888,15.724 L255.628,24.544 Z M293.092,1.528 L308.212,1.528 L301.912,46.132 L326.104,46.132 L324.088,61 L284.776,61 L293.092,1.528 Z M379.36,19.168 C378.911998,17.375991 377.974007,16.0740041 376.546,15.262 C375.117993,14.4499959 373.564008,14.044 371.884,14.044 C370.819995,14.044 369.770005,14.1979985 368.734,14.506 C367.697995,14.8140015 366.760004,15.2619971 365.92,15.85 C365.079996,16.4380029 364.366003,17.1519958 363.778,17.992 C363.189997,18.8320042 362.812001,19.7839947 362.644,20.848 L359.788,41.26 C359.507999,43.5560115 360.165992,45.2639944 361.762,46.384 C363.358008,47.5040056 365.275989,48.064 367.516,48.064 C368.580005,48.064 369.657995,47.9240014 370.75,47.644 C371.842005,47.3639986 372.835996,46.9440028 373.732,46.384 C374.628004,45.8239972 375.383997,45.1100043 376,44.242 C376.616003,43.3739957 377.007999,42.3800056 377.176,41.26 L377.512,38.74 L368.02,38.74 L369.7,26.476 L393.64,26.476 L391.624,41.26 C391.119997,44.6760171 390.028008,47.6719871 388.348,50.248 C386.667992,52.8240129 384.610012,54.9659915 382.174,56.674 C379.737988,58.3820085 377.050015,59.6699957 374.11,60.538 C371.169985,61.4060043 368.216015,61.84 365.248,61.84 C362.279985,61.84 359.466013,61.4060043 356.806,60.538 C354.145987,59.6699957 351.83601,58.3820085 349.876,56.674 C347.91599,54.9659915 346.446005,52.8240129 345.466,50.248 C344.485995,47.6719871 344.247997,44.6760171 344.752,41.26 L347.608,20.848 C348.112003,17.3759826 349.203992,14.3800126 350.884,11.86 C352.564008,9.3399874 354.621988,7.25400826 357.058,5.602 C359.494012,3.94999174 362.167985,2.71800406 365.08,1.906 C367.992015,1.09399594 370.931985,0.688 373.9,0.688 C375.80401,0.688 377.73599,0.8979979 379.696,1.318 C381.65601,1.7380021 383.489991,2.45199496 385.198,3.46 C386.906009,4.46800504 388.431993,5.78399188 389.776,7.408 C391.120007,9.03200812 392.127997,11.0199882 392.8,13.372 L379.36,19.168 Z M399.94,21.1 C400.444003,17.6839829 401.577991,14.7020127 403.342,12.154 C405.106009,9.60598726 407.261987,7.47800854 409.81,5.77 C412.358013,4.06199146 415.157985,2.7880042 418.21,1.948 C421.262015,1.1079958 424.327985,0.688 427.408,0.688 C430.488015,0.688 433.455986,1.1079958 436.312,1.948 C439.168014,2.7880042 441.63199,4.06199146 443.704,5.77 C445.77601,7.47800854 447.343995,9.60598726 448.408,12.154 C449.472005,14.7020127 449.752003,17.6839829 449.248,21.1 L446.308,41.428 C445.803997,44.8440171 444.698009,47.8259873 442.99,50.374 C441.281991,52.9220127 439.168013,55.0499915 436.648,56.758 C434.127987,58.4660085 431.328015,59.7399958 428.248,60.58 C425.167985,61.4200042 422.004016,61.84 418.756,61.84 C415.675985,61.84 412.722014,61.4200042 409.894,60.58 C407.065986,59.7399958 404.61601,58.4660085 402.544,56.758 C400.47199,55.0499915 398.904005,52.9220127 397.84,50.374 C396.775995,47.8259873 396.495997,44.8440171 397,41.428 L399.94,21.1 Z M412.036,41.428 C411.867999,42.4920053 412.007998,43.4299959 412.456,44.242 C412.904002,45.0540041 413.519996,45.7259973 414.304,46.258 C415.088004,46.7900027 416.025995,47.1959986 417.118,47.476 C418.210005,47.7560014 419.315994,47.896 420.436,47.896 C421.668006,47.896 422.885994,47.7560014 424.09,47.476 C425.294006,47.1959986 426.399995,46.7760028 427.408,46.216 C428.416005,45.6559972 429.269996,44.9420043 429.97,44.074 C430.670004,43.2059957 431.103999,42.1840059 431.272,41.008 L434.212,21.1 C434.380001,19.9799944 434.268002,19.0000042 433.876,18.16 C433.483998,17.3199958 432.896004,16.6200028 432.112,16.06 C431.327996,15.4999972 430.390005,15.0800014 429.298,14.8 C428.205995,14.5199986 427.044006,14.38 425.812,14.38 C424.579994,14.38 423.362006,14.5199986 422.158,14.8 C420.953994,15.0800014 419.848005,15.4999972 418.84,16.06 C417.831995,16.6200028 416.978003,17.3199958 416.278,18.16 C415.577996,19.0000042 415.144001,19.9799944 414.976,21.1 L412.036,41.428 Z M471.76,24.544 L495.868,24.544 L494.02,37.9 L469.912,37.9 L468.652,46.804 L494.86,46.804 L492.928,61 L451.516,61 L459.832,1.528 L501.244,1.528 L499.228,15.724 L473.02,15.724 L471.76,24.544 Z M534.844,15.22 L528.544,61 L513.34,61 L519.64,15.22 L503.596,15.22 L505.612,1.444 L552.904,1.444 L550.888,15.22 L534.844,15.22 Z M565.42,61 L550.3,61 L558.616,1.528 L573.736,1.528 L570.544,24.04 L587.68,24.04 L590.872,1.528 L605.992,1.528 L597.676,61 L582.556,61 L585.664,38.572 L568.528,38.572 L565.42,61 Z M627.328,24.544 L651.436,24.544 L649.588,37.9 L625.48,37.9 L624.22,46.804 L650.428,46.804 L648.496,61 L607.084,61 L615.4,1.528 L656.812,1.528 L654.796,15.724 L628.588,15.724 L627.328,24.544 Z" id="GABRIEL-GOETHE"></path>
            </g>
        </g>
    </g>
</svg>