<?xml version="1.0" encoding="UTF-8"?>
<svg width="169px" height="17px" viewBox="0 0 169 17" version="1.1" xmlns="http://www.w3.org/2000/svg" xmlns:xlink="http://www.w3.org/1999/xlink">
    <!-- Generator: Sketch 47.1 (45422) - http://www.bohemiancoding.com/sketch -->
    <title>logo2</title>
    <desc>Created with Sketch.</desc>
    <defs></defs>
    <g id="Page-1" stroke="none" stroke-width="1" fill="none" fill-rule="evenodd">
        <g id="logo2" fill-rule="nonzero" fill="#FFFFFF">
            <path d="M9.09941814,5.52316484 C8.98479643,5.05429801 8.74481079,4.7136421 8.37945406,4.50118681 C8.01409734,4.28873153 7.6165092,4.18250549 7.18667775,4.18250549 C6.91445117,4.18250549 6.64581054,4.22279814 6.3807478,4.30338462 C6.11568507,4.38397109 5.87569945,4.50118605 5.66078372,4.65503297 C5.445868,4.80887988 5.26319236,4.99569121 5.11275136,5.21547253 C4.96231036,5.43525385 4.86559972,5.68433561 4.82261658,5.96272527 L4.09190677,11.3033846 C4.02026819,11.9041202 4.18861631,12.3510022 4.5969562,12.644044 C5.00529608,12.9370857 5.49601296,13.0836044 6.06912156,13.0836044 C6.34134814,13.0836044 6.61715251,13.0469747 6.89654297,12.9737143 C7.17593342,12.9004538 7.43024653,12.7905648 7.65948998,12.644044 C7.88873343,12.4975231 8.08215467,12.3107117 8.23975954,12.0836044 C8.39736441,11.856497 8.49765692,11.5964264 8.54064005,11.3033846 L8.62660591,10.644044 L6.19807035,10.644044 L6.62789965,7.43525275 L12.7529672,7.43525275 L12.2371721,11.3033846 C12.1082226,12.197162 11.8288364,12.9810369 11.3990049,13.655033 C10.9691735,14.329029 10.4426378,14.889463 9.81938223,15.3363516 C9.19612662,15.7832403 8.50840661,16.1202333 7.75620157,16.3473407 C7.00399653,16.574448 6.24822089,16.688 5.488852,16.688 C4.72948311,16.688 4.00952622,16.574448 3.32895976,16.3473407 C2.64839329,16.1202333 2.05738391,15.7832403 1.55591388,15.3363516 C1.05444386,14.889463 0.678346977,14.329029 0.427611964,13.655033 C0.17687695,12.9810369 0.115985074,12.197162 0.24493451,11.3033846 L0.975644324,5.96272527 C1.10459376,5.05429581 1.38398001,4.27042088 1.81381146,3.61107692 C2.24364292,2.95173297 2.77017854,2.40595088 3.39343415,1.97371429 C4.01668976,1.54147769 4.70082788,1.21913659 5.44586907,1.00668132 C6.19091026,0.794226044 6.94310402,0.688 7.70247291,0.688 C8.18961522,0.688 8.68391398,0.742944505 9.185384,0.852835165 C9.68685403,0.962725824 10.1560797,1.14953714 10.593075,1.41327473 C11.0300703,1.67701231 11.4204947,2.02133121 11.7643598,2.44624176 C12.108225,2.87115231 12.36612,3.39129362 12.5380526,4.00668132 L9.09941814,5.52316484 Z M25.9057439,16.4682198 L21.7793826,16.4682198 L21.199113,13.3473407 L17.1372261,13.3473407 L15.7832638,16.4682198 L11.6569025,16.4682198 L19.0929494,0.90778022 L22.5960582,0.90778022 L25.9057439,16.4682198 Z M20.7692837,9.85283516 L20.3179629,5.30338462 L20.1675227,5.30338462 L18.4911884,9.85283516 L20.7692837,9.85283516 Z M39.4238754,5.65503297 C39.3952199,5.83085803 39.3343282,6.03598417 39.241198,6.27041758 C39.1480678,6.50485099 39.0191203,6.73928087 38.8543516,6.97371429 C38.689583,7.2081477 38.4961616,7.43158867 38.2740821,7.64404396 C38.0520026,7.85649924 37.7905256,8.03598462 37.4896436,8.18250549 C37.976786,8.44624307 38.3493009,8.76125824 38.6071998,9.12756044 C38.8650986,9.49386264 39.0441924,9.8748112 39.1444864,10.2704176 C39.2447804,10.666024 39.2770174,11.0542985 39.241198,11.4352527 C39.2053786,11.816207 39.1444869,12.1532 39.0585205,12.4462418 C38.686,13.7063213 38.0233532,14.6916594 37.07056,15.4022857 C36.1177669,16.112912 34.7960551,16.4682198 33.1053847,16.4682198 L26.8943513,16.4682198 L29.0220063,0.90778022 L35.1255824,0.90778022 C35.8562958,0.90778022 36.5117791,1.01766923 37.0920515,1.23745055 C37.6723238,1.45723187 38.155877,1.76858407 38.5427254,2.17151648 C38.9295738,2.5744489 39.2053781,3.06894945 39.3701468,3.65503297 C39.5349154,4.24111648 39.552825,4.90777648 39.4238754,5.65503297 Z M34.2874153,6.99569231 C34.7602298,6.99569231 35.1363269,6.8528366 35.4157172,6.56712088 C35.6951075,6.28140515 35.8598739,5.96272703 35.9100209,5.61107692 C35.9601679,5.25942682 35.8885305,4.94074869 35.6951062,4.65503297 C35.501682,4.36931724 35.1614041,4.22646154 34.6742616,4.22646154 L32.4391493,4.22646154 L32.0523029,6.99569231 L34.2874153,6.99569231 Z M33.4707396,13.0176703 C34.0438482,13.0176703 34.4987462,12.8528368 34.8354476,12.5231648 C35.172149,12.1934929 35.3655702,11.8271962 35.4157172,11.4242637 C35.4658642,11.0213313 35.3691536,10.6550346 35.1255824,10.3253626 C34.8820112,9.99569066 34.4736775,9.83085714 33.9005689,9.83085714 L31.6654565,9.83085714 L31.2356272,13.0176703 L33.4707396,13.0176703 Z M45.5274515,11.5231648 L44.8397247,11.5231648 L44.1734892,16.4682198 L40.283534,16.4682198 L42.4111891,0.90778022 L48.4932737,0.90778022 C49.281298,0.90778022 50.0012549,1.01766923 50.653166,1.23745055 C51.3050771,1.45723187 51.8566857,1.7868989 52.3080088,2.22646154 C52.7593319,2.66602418 53.0852824,3.22279516 53.2858705,3.89679121 C53.4864585,4.57078726 53.5366047,5.36198812 53.4363107,6.27041758 C53.3360167,6.98836988 53.185578,7.60008537 52.9849899,8.10558242 C52.7844019,8.61107946 52.5336707,9.04330955 52.2327887,9.40228571 C51.9319066,9.76126188 51.5737191,10.076277 51.1582154,10.3473407 C50.7427117,10.6184043 50.2770679,10.8784749 49.7612702,11.1275604 L53.4148192,16.4682198 L48.6222225,16.4682198 L45.5274515,11.5231648 Z M47.5691407,8.13854945 C48.1709048,8.13854945 48.6365486,7.95173812 48.966086,7.57810989 C49.2956233,7.20448166 49.4890447,6.79056638 49.5463555,6.33635165 C49.6036664,5.86748482 49.5141196,5.45723252 49.2777122,5.10558242 C49.0413048,4.75393231 48.636553,4.57810989 48.0634444,4.57810989 L45.8068406,4.57810989 L45.3125369,8.13854945 L47.5691407,8.13854945 Z M57.9495184,16.4682198 L54.1025461,16.4682198 L56.2302012,0.90778022 L60.0771734,0.90778022 L57.9495184,16.4682198 Z M65.5360056,6.92975824 L71.7040561,6.92975824 L71.2312438,10.4242637 L65.0631933,10.4242637 L64.7408214,12.7539341 L71.4461585,12.7539341 L70.9518548,16.4682198 L60.3565625,16.4682198 L62.4842175,0.90778022 L73.0795098,0.90778022 L72.5637147,4.62206593 L65.8583776,4.62206593 L65.5360056,6.92975824 Z M75.121199,0.90778022 L78.9896627,0.90778022 L77.3778029,12.5781099 L83.5673448,12.5781099 L83.0515497,16.4682198 L72.993544,16.4682198 L75.121199,0.90778022 Z M97.1929337,5.52316484 C97.0783121,5.05429801 96.8383263,4.7136421 96.4729696,4.50118681 C96.1076129,4.28873153 95.7100247,4.18250549 95.2801933,4.18250549 C95.0079668,4.18250549 94.7393261,4.22279814 94.4742634,4.30338462 C94.2092007,4.38397109 93.969215,4.50118605 93.7542993,4.65503297 C93.5393836,4.80887988 93.356708,4.99569121 93.2062669,5.21547253 C93.0558259,5.43525385 92.9591153,5.68433561 92.9161322,5.96272527 L92.1854223,11.3033846 C92.1137839,11.9041202 92.2821319,12.3510022 92.6904718,12.644044 C93.0988117,12.9370857 93.5895286,13.0836044 94.1626371,13.0836044 C94.4348636,13.0836044 94.7106682,13.0469747 94.9900585,12.9737143 C95.2694489,12.9004538 95.5237622,12.7905648 95.7530056,12.644044 C95.9822489,12.4975231 96.1756703,12.3107117 96.3332751,12.0836044 C96.49088,11.856497 96.5911724,11.5964264 96.6341556,11.3033846 L96.7201215,10.644044 L94.2915859,10.644044 L94.7214152,7.43525275 L100.846483,7.43525275 L100.330688,11.3033846 C100.201738,12.197162 99.9223518,12.9810369 99.4925205,13.655033 C99.0626891,14.329029 98.5361534,14.889463 97.9128978,15.3363516 C97.2896422,15.7832403 96.6019223,16.1202333 95.8497171,16.3473407 C95.097512,16.574448 94.3417365,16.688 93.5823676,16.688 C92.8229986,16.688 92.1030417,16.574448 91.4224753,16.3473407 C90.7419089,16.1202333 90.1508995,15.7832403 89.6494295,15.3363516 C89.1479594,14.889463 88.7718626,14.329029 88.5211275,13.655033 C88.2703925,12.9810369 88.2095005,12.197162 88.3384501,11.3033846 L89.0691599,5.96272527 C89.1981095,5.05429581 89.4774957,4.27042088 89.907327,3.61107692 C90.3371584,2.95173297 90.8636942,2.40595088 91.4869497,1.97371429 C92.1102053,1.54147769 92.7943433,1.21913659 93.5393846,1.00668132 C94.2844259,0.794226044 95.0366195,0.688 95.7959885,0.688 C96.2831309,0.688 96.7774295,0.742944505 97.2788996,0.852835165 C97.7803697,0.962725824 98.2495951,1.14953714 98.6865905,1.41327473 C99.123586,1.67701231 99.5140102,2.02133121 99.8578754,2.44624176 C100.201741,2.87115231 100.459636,3.39129362 100.631568,4.00668132 L97.1929337,5.52316484 Z M102.458343,6.02865934 C102.587292,5.13488197 102.877424,4.35466999 103.328747,3.688 C103.78007,3.02133 104.331679,2.46455901 104.98359,2.01767033 C105.635501,1.57078165 106.351876,1.23745165 107.132736,1.01767033 C107.913597,0.797889011 108.698028,0.688 109.486052,0.688 C110.274076,0.688 111.033434,0.797889011 111.764147,1.01767033 C112.49486,1.23745165 113.125271,1.57078165 113.655396,2.01767033 C114.185521,2.46455901 114.586692,3.02133 114.858918,3.688 C115.131145,4.35466999 115.202782,5.13488197 115.073833,6.02865934 L114.321631,11.3473407 C114.192682,12.241118 113.909714,13.02133 113.472719,13.688 C113.035723,14.35467 112.49486,14.911441 111.850113,15.3583297 C111.205366,15.8052183 110.488991,16.1385484 109.700966,16.3583297 C108.912942,16.578111 108.103438,16.688 107.272431,16.688 C106.484407,16.688 105.728631,16.578111 105.005081,16.3583297 C104.281532,16.1385484 103.654703,15.8052183 103.124578,15.3583297 C102.594453,14.911441 102.193283,14.35467 101.921056,13.688 C101.64883,13.02133 101.577192,12.241118 101.706141,11.3473407 L102.458343,6.02865934 Z M105.553114,11.3473407 C105.51013,11.6257303 105.545949,11.8711491 105.660571,12.0836044 C105.775193,12.2960597 105.932795,12.4718821 106.133383,12.6110769 C106.333971,12.7502718 106.573957,12.8564978 106.853347,12.9297582 C107.132738,13.0030187 107.415706,13.0396484 107.70226,13.0396484 C108.01747,13.0396484 108.329093,13.0030187 108.637139,12.9297582 C108.945185,12.8564978 109.228153,12.7466088 109.486052,12.6000879 C109.743951,12.453567 109.962445,12.2667557 110.141541,12.0396484 C110.320638,11.812541 110.431676,11.5451444 110.474659,11.2374505 L111.22686,6.02865934 C111.269844,5.73561758 111.241189,5.47920989 111.140895,5.25942857 C111.040601,5.03964725 110.890162,4.8564989 110.689574,4.70997802 C110.488986,4.56345714 110.249,4.45356813 109.96961,4.38030769 C109.690219,4.30704725 109.392924,4.27041758 109.077714,4.27041758 C108.762504,4.27041758 108.450881,4.30704725 108.142835,4.38030769 C107.834789,4.45356813 107.551821,4.56345714 107.293922,4.70997802 C107.036023,4.8564989 106.817529,5.03964725 106.638433,5.25942857 C106.459336,5.47920989 106.348298,5.73561758 106.305315,6.02865934 L105.553114,11.3473407 Z M120.833545,6.92975824 L127.001596,6.92975824 L126.528784,10.4242637 L120.360733,10.4242637 L120.038361,12.7539341 L126.743698,12.7539341 L126.249395,16.4682198 L115.654102,16.4682198 L117.781757,0.90778022 L128.37705,0.90778022 L127.861254,4.62206593 L121.155917,4.62206593 L120.833545,6.92975824 Z M136.973636,4.4901978 L135.361776,16.4682198 L131.471821,16.4682198 L133.08368,4.4901978 L128.978811,4.4901978 L129.494606,0.885802198 L141.594301,0.885802198 L141.078506,4.4901978 L136.973636,4.4901978 Z M144.796529,16.4682198 L140.928065,16.4682198 L143.05572,0.90778022 L146.924184,0.90778022 L146.107508,6.79789011 L150.491767,6.79789011 L151.308443,0.90778022 L155.176907,0.90778022 L153.049252,16.4682198 L149.180788,16.4682198 L149.975972,10.6000879 L145.591713,10.6000879 L144.796529,16.4682198 Z M160.635739,6.92975824 L166.803789,6.92975824 L166.330977,10.4242637 L160.162927,10.4242637 L159.840555,12.7539341 L166.545892,12.7539341 L166.051588,16.4682198 L155.456296,16.4682198 L157.583951,0.90778022 L168.179243,0.90778022 L167.663448,4.62206593 L160.958111,4.62206593 L160.635739,6.92975824 Z" id="GABRIEL-GOETHE"></path>
        </g>
    </g>
</svg>