<?xml version="1.0" encoding="UTF-8" standalone="no"?>
<svg width="210px" height="30px" viewBox="0 0 210 30" version="1.1" xmlns="http://www.w3.org/2000/svg" xmlns:xlink="http://www.w3.org/1999/xlink">
    <!-- Generator: Sketch 41.2 (35397) - http://www.bohemiancoding.com/sketch -->
    <title>PORTFOLIO</title>
    <desc>Created with Sketch.</desc>
    <defs></defs>
    <g id="Page-1" stroke="none" stroke-width="1" fill="none" fill-rule="evenodd">
        <g id="Desktop-Landscape" transform="translate(-595.000000, -3359.000000)" fill="#FFFFFF">
            <g id="Portfolio" transform="translate(0.000000, 3197.000000)">
                <path d="M599.86,162.68 L611.18,162.68 C612.913342,162.68 614.379994,162.97333 615.58,163.56 C616.780006,164.14667 617.739996,164.913329 618.46,165.86 C619.180004,166.806671 619.673332,167.893327 619.94,169.12 C620.206668,170.346673 620.273334,171.599994 620.14,172.88 C619.979999,174.21334 619.620003,175.479994 619.06,176.68 C618.499997,177.880006 617.740005,178.926662 616.78,179.82 C615.819995,180.713338 614.666673,181.419997 613.32,181.94 C611.973327,182.460003 610.446675,182.72 608.74,182.72 L604.22,182.72 L603.06,191 L595.9,191 L599.86,162.68 Z M609.26,176.36 C609.820003,176.36 610.319998,176.260001 610.76,176.06 C611.200002,175.859999 611.579998,175.593335 611.9,175.26 C612.220002,174.926665 612.473332,174.533336 612.66,174.08 C612.846668,173.626664 612.966666,173.160002 613.02,172.68 C613.153334,171.746662 612.986669,170.960003 612.52,170.32 C612.053331,169.679997 611.300005,169.36 610.26,169.36 L606.1,169.36 L605.1,176.36 L609.26,176.36 Z M622.66,172 C622.900001,170.373325 623.439996,168.953339 624.28,167.74 C625.120004,166.526661 626.146661,165.513337 627.36,164.7 C628.573339,163.886663 629.906659,163.280002 631.36,162.88 C632.813341,162.479998 634.273326,162.28 635.74,162.28 C637.206674,162.28 638.619993,162.479998 639.98,162.88 C641.340007,163.280002 642.513328,163.886663 643.5,164.7 C644.486672,165.513337 645.233331,166.526661 645.74,167.74 C646.246669,168.953339 646.380001,170.373325 646.14,172 L644.74,181.68 C644.499999,183.306675 643.973337,184.726661 643.16,185.94 C642.346663,187.153339 641.340006,188.166663 640.14,188.98 C638.939994,189.793337 637.606674,190.399998 636.14,190.8 C634.673326,191.200002 633.166674,191.4 631.62,191.4 C630.153326,191.4 628.746673,191.200002 627.4,190.8 C626.053327,190.399998 624.886672,189.793337 623.9,188.98 C622.913328,188.166663 622.166669,187.153339 621.66,185.94 C621.153331,184.726661 621.019999,183.306675 621.26,181.68 L622.66,172 Z M628.42,181.68 C628.34,182.186669 628.406666,182.633331 628.62,183.02 C628.833334,183.406669 629.126665,183.726665 629.5,183.98 C629.873335,184.233335 630.319997,184.426666 630.84,184.56 C631.360003,184.693334 631.886664,184.76 632.42,184.76 C633.00667,184.76 633.586664,184.693334 634.16,184.56 C634.733336,184.426666 635.259998,184.226668 635.74,183.96 C636.220002,183.693332 636.626665,183.353335 636.96,182.94 C637.293335,182.526665 637.5,182.040003 637.58,181.48 L638.98,172 C639.06,171.466664 639.006668,171.000002 638.82,170.6 C638.633332,170.199998 638.353335,169.866668 637.98,169.6 C637.606665,169.333332 637.160003,169.133334 636.64,169 C636.119997,168.866666 635.56667,168.8 634.98,168.8 C634.39333,168.8 633.813336,168.866666 633.24,169 C632.666664,169.133334 632.140002,169.333332 631.66,169.6 C631.179998,169.866668 630.773335,170.199998 630.44,170.6 C630.106665,171.000002 629.9,171.466664 629.82,172 L628.42,181.68 Z M656.98,182 L655.7,182 L654.46,191 L647.22,191 L651.18,162.68 L662.5,162.68 C663.966674,162.68 665.306661,162.879998 666.52,163.28 C667.733339,163.680002 668.759996,164.279996 669.6,165.08 C670.440004,165.880004 671.046665,166.893327 671.42,168.12 C671.793335,169.346673 671.886668,170.786658 671.7,172.44 C671.513332,173.746673 671.233335,174.859995 670.86,175.78 C670.486665,176.700005 670.020003,177.486663 669.46,178.14 C668.899997,178.793337 668.233337,179.366664 667.46,179.86 C666.686663,180.353336 665.820005,180.826664 664.86,181.28 L671.66,191 L662.74,191 L656.98,182 Z M660.78,175.84 C661.900006,175.84 662.766664,175.500003 663.38,174.82 C663.993336,174.139997 664.353333,173.386671 664.46,172.56 C664.566667,171.706662 664.400002,170.960003 663.96,170.32 C663.519998,169.679997 662.766672,169.36 661.7,169.36 L657.5,169.36 L656.58,175.84 L660.78,175.84 Z M688.5,169.2 L685.5,191 L678.26,191 L681.26,169.2 L673.62,169.2 L674.58,162.64 L697.1,162.64 L696.14,169.2 L688.5,169.2 Z M705.38,174.56 L716.3,174.56 L715.38,181.24 L704.46,181.24 L703.1,191 L695.86,191 L699.82,162.68 L719.54,162.68 L718.58,169.48 L706.1,169.48 L705.38,174.56 Z M720.94,172 C721.180001,170.373325 721.719996,168.953339 722.56,167.74 C723.400004,166.526661 724.426661,165.513337 725.64,164.7 C726.853339,163.886663 728.186659,163.280002 729.64,162.88 C731.093341,162.479998 732.553326,162.28 734.02,162.28 C735.486674,162.28 736.899993,162.479998 738.26,162.88 C739.620007,163.280002 740.793328,163.886663 741.78,164.7 C742.766672,165.513337 743.513331,166.526661 744.02,167.74 C744.526669,168.953339 744.660001,170.373325 744.42,172 L743.02,181.68 C742.779999,183.306675 742.253337,184.726661 741.44,185.94 C740.626663,187.153339 739.620006,188.166663 738.42,188.98 C737.219994,189.793337 735.886674,190.399998 734.42,190.8 C732.953326,191.200002 731.446674,191.4 729.9,191.4 C728.433326,191.4 727.026673,191.200002 725.68,190.8 C724.333327,190.399998 723.166672,189.793337 722.18,188.98 C721.193328,188.166663 720.446669,187.153339 719.94,185.94 C719.433331,184.726661 719.299999,183.306675 719.54,181.68 L720.94,172 Z M726.7,181.68 C726.62,182.186669 726.686666,182.633331 726.9,183.02 C727.113334,183.406669 727.406665,183.726665 727.78,183.98 C728.153335,184.233335 728.599997,184.426666 729.12,184.56 C729.640003,184.693334 730.166664,184.76 730.7,184.76 C731.28667,184.76 731.866664,184.693334 732.44,184.56 C733.013336,184.426666 733.539998,184.226668 734.02,183.96 C734.500002,183.693332 734.906665,183.353335 735.24,182.94 C735.573335,182.526665 735.78,182.040003 735.86,181.48 L737.26,172 C737.34,171.466664 737.286668,171.000002 737.1,170.6 C736.913332,170.199998 736.633335,169.866668 736.26,169.6 C735.886665,169.333332 735.440003,169.133334 734.92,169 C734.399997,168.866666 733.84667,168.8 733.26,168.8 C732.67333,168.8 732.093336,168.866666 731.52,169 C730.946664,169.133334 730.420002,169.333332 729.94,169.6 C729.459998,169.866668 729.053335,170.199998 728.72,170.6 C728.386665,171.000002 728.18,171.466664 728.1,172 L726.7,181.68 Z M749.46,162.68 L756.66,162.68 L753.66,183.92 L765.18,183.92 L764.22,191 L745.5,191 L749.46,162.68 Z M774.1,191 L766.94,191 L770.9,162.68 L778.06,162.68 L774.1,191 Z M780.58,172 C780.820001,170.373325 781.359996,168.953339 782.2,167.74 C783.040004,166.526661 784.066661,165.513337 785.28,164.7 C786.493339,163.886663 787.826659,163.280002 789.28,162.88 C790.733341,162.479998 792.193326,162.28 793.66,162.28 C795.126674,162.28 796.539993,162.479998 797.9,162.88 C799.260007,163.280002 800.433328,163.886663 801.42,164.7 C802.406672,165.513337 803.153331,166.526661 803.66,167.74 C804.166669,168.953339 804.300001,170.373325 804.06,172 L802.66,181.68 C802.419999,183.306675 801.893337,184.726661 801.08,185.94 C800.266663,187.153339 799.260006,188.166663 798.06,188.98 C796.859994,189.793337 795.526674,190.399998 794.06,190.8 C792.593326,191.200002 791.086674,191.4 789.54,191.4 C788.073326,191.4 786.666673,191.200002 785.32,190.8 C783.973327,190.399998 782.806672,189.793337 781.82,188.98 C780.833328,188.166663 780.086669,187.153339 779.58,185.94 C779.073331,184.726661 778.939999,183.306675 779.18,181.68 L780.58,172 Z M786.34,181.68 C786.26,182.186669 786.326666,182.633331 786.54,183.02 C786.753334,183.406669 787.046665,183.726665 787.42,183.98 C787.793335,184.233335 788.239997,184.426666 788.76,184.56 C789.280003,184.693334 789.806664,184.76 790.34,184.76 C790.92667,184.76 791.506664,184.693334 792.08,184.56 C792.653336,184.426666 793.179998,184.226668 793.66,183.96 C794.140002,183.693332 794.546665,183.353335 794.88,182.94 C795.213335,182.526665 795.42,182.040003 795.5,181.48 L796.9,172 C796.98,171.466664 796.926668,171.000002 796.74,170.6 C796.553332,170.199998 796.273335,169.866668 795.9,169.6 C795.526665,169.333332 795.080003,169.133334 794.56,169 C794.039997,168.866666 793.48667,168.8 792.9,168.8 C792.31333,168.8 791.733336,168.866666 791.16,169 C790.586664,169.133334 790.060002,169.333332 789.58,169.6 C789.099998,169.866668 788.693335,170.199998 788.36,170.6 C788.026665,171.000002 787.82,171.466664 787.74,172 L786.34,181.68 Z" id="PORTFOLIO"></path>
            </g>
        </g>
    </g>
</svg>