<?xml version="1.0" encoding="UTF-8"?>
<svg width="127px" height="30px" viewBox="0 0 127 30" version="1.1" xmlns="http://www.w3.org/2000/svg" xmlns:xlink="http://www.w3.org/1999/xlink">
    <!-- Generator: Sketch 47.1 (45422) - http://www.bohemiancoding.com/sketch -->
    <title>skills</title>
    <desc>Created with Sketch.</desc>
    <defs></defs>
    <g id="Page-1" stroke="none" stroke-width="1" fill="none" fill-rule="evenodd">
        <g id="skills" fill-rule="nonzero" fill="#A01F00">
            <path d="M5.44,20.04 C6.053336,20.94667 6.893328,21.62666 7.96,22.08 C9.026672,22.53334 10.093328,22.76 11.16,22.76 C12.120005,22.76 12.97333,22.58667 13.72,22.24 C14.46667,21.89333 14.906666,21.34667 15.04,20.6 C15.12,20.17333 15.040001,19.79333 14.8,19.46 C14.559999,19.12666 14.226669,18.85333 13.8,18.64 C13.373331,18.42667 12.873336,18.24667 12.3,18.1 C11.726664,17.95333 11.160003,17.84 10.6,17.76 C9.479994,17.57333 8.420005,17.22 7.42,16.7 C6.419995,16.18 5.560004,15.50667 4.84,14.68 C4.119996,13.85333 3.600002,12.88667 3.28,11.78 C2.959998,10.67333 2.919999,9.45334 3.16,8.12 C3.426668,6.67999 3.926663,5.46 4.66,4.46 C5.393337,3.46 6.279995,2.64667 7.32,2.02 C8.360005,1.39333 9.499994,0.94667 10.74,0.68 C11.980006,0.41333 13.253327,0.28 14.56,0.28 C15.413338,0.28 16.253329,0.34667 17.08,0.48 C17.906671,0.61333 18.706663,0.85333 19.48,1.2 C20.253337,1.54667 20.986663,2.01333 21.68,2.6 C22.373337,3.18667 23.026664,3.92 23.64,4.8 L18.44,8.4 C17.826664,7.70666 17.093338,7.2 16.24,6.88 C15.386662,6.56 14.546671,6.38667 13.72,6.36 C12.813329,6.33333 12.02667,6.49333 11.36,6.84 C10.69333,7.18667 10.32,7.72 10.24,8.44 C10.133333,9.26667 10.399997,9.88666 11.04,10.3 C11.680003,10.71334 12.546661,11.04 13.64,11.28 C14.866673,11.52 16.059994,11.83333 17.22,12.22 C18.380006,12.60667 19.366663,13.16666 20.18,13.9 C20.993337,14.63334 21.586665,15.57999 21.96,16.74 C22.333335,17.90001 22.360002,19.35999 22.04,21.12 C21.773332,22.50667 21.28667,23.71333 20.58,24.74 C19.87333,25.76667 19.000005,26.62666 17.96,27.32 C16.919995,28.01334 15.726673,28.53333 14.38,28.88 C13.033327,29.22667 11.600008,29.4 10.08,29.4 C9.226662,29.4 8.340005,29.29333 7.42,29.08 C6.499995,28.86667 5.606671,28.54667 4.74,28.12 C3.873329,27.69333 3.053337,27.16 2.28,26.52 C1.506663,25.88 0.853336,25.13334 0.32,24.28 L5.44,20.04 Z M42.84,0.68 L51.76,0.68 L38.6,14.6 L47.76,29 L38.76,29 L32.84,18.88 L32.56,19.2 L31.2,29 L24,29 L27.96,0.68 L35.16,0.68 L33.68,11.16 L42.84,0.68 Z M56.68,29 L49.52,29 L53.48,0.68 L60.64,0.68 L56.68,29 Z M65.12,0.68 L72.32,0.68 L69.32,21.92 L80.84,21.92 L79.88,29 L61.16,29 L65.12,0.68 Z M86.56,0.68 L93.76,0.68 L90.76,21.92 L102.28,21.92 L101.32,29 L82.6,29 L86.56,0.68 Z M108.24,20.04 C108.853336,20.94667 109.693328,21.62666 110.76,22.08 C111.826672,22.53334 112.893328,22.76 113.96,22.76 C114.920005,22.76 115.77333,22.58667 116.52,22.24 C117.26667,21.89333 117.706666,21.34667 117.84,20.6 C117.92,20.17333 117.840001,19.79333 117.6,19.46 C117.359999,19.12666 117.026669,18.85333 116.6,18.64 C116.173331,18.42667 115.673336,18.24667 115.1,18.1 C114.526664,17.95333 113.960003,17.84 113.4,17.76 C112.279994,17.57333 111.220005,17.22 110.22,16.7 C109.219995,16.18 108.360004,15.50667 107.64,14.68 C106.919996,13.85333 106.400002,12.88667 106.08,11.78 C105.759998,10.67333 105.719999,9.45334 105.96,8.12 C106.226668,6.67999 106.726663,5.46 107.46,4.46 C108.193337,3.46 109.079995,2.64667 110.12,2.02 C111.160005,1.39333 112.299994,0.94667 113.54,0.68 C114.780006,0.41333 116.053327,0.28 117.36,0.28 C118.213338,0.28 119.053329,0.34667 119.88,0.48 C120.706671,0.61333 121.506663,0.85333 122.28,1.2 C123.053337,1.54667 123.786663,2.01333 124.48,2.6 C125.173337,3.18667 125.826664,3.92 126.44,4.8 L121.24,8.4 C120.626664,7.70666 119.893338,7.2 119.04,6.88 C118.186662,6.56 117.346671,6.38667 116.52,6.36 C115.613329,6.33333 114.82667,6.49333 114.16,6.84 C113.49333,7.18667 113.12,7.72 113.04,8.44 C112.933333,9.26667 113.199997,9.88666 113.84,10.3 C114.480003,10.71334 115.346661,11.04 116.44,11.28 C117.666673,11.52 118.859994,11.83333 120.02,12.22 C121.180006,12.60667 122.166663,13.16666 122.98,13.9 C123.793337,14.63334 124.386665,15.57999 124.76,16.74 C125.133335,17.90001 125.160002,19.35999 124.84,21.12 C124.573332,22.50667 124.08667,23.71333 123.38,24.74 C122.67333,25.76667 121.800005,26.62666 120.76,27.32 C119.719995,28.01334 118.526673,28.53333 117.18,28.88 C115.833327,29.22667 114.400008,29.4 112.88,29.4 C112.026662,29.4 111.140005,29.29333 110.22,29.08 C109.299995,28.86667 108.406671,28.54667 107.54,28.12 C106.673329,27.69333 105.853337,27.16 105.08,26.52 C104.306663,25.88 103.653336,25.13334 103.12,24.28 L108.24,20.04 Z" id="SKILLS"></path>
        </g>
    </g>
</svg>