<?xml version="1.0" encoding="UTF-8" standalone="no"?>
<svg width="127px" height="30px" viewBox="0 0 127 30" version="1.1" xmlns="http://www.w3.org/2000/svg" xmlns:xlink="http://www.w3.org/1999/xlink">
    <!-- Generator: Sketch 41.2 (35397) - http://www.bohemiancoding.com/sketch -->
    <title>SKILLS</title>
    <desc>Created with Sketch.</desc>
    <defs></defs>
    <g id="Page-1" stroke="none" stroke-width="1" fill="none" fill-rule="evenodd">
        <g id="Desktop-Landscape" transform="translate(-637.000000, -2347.000000)" fill="#7000FF">
            <path d="M642.44,2367.04 C643.053336,2367.94667 643.893328,2368.62666 644.96,2369.08 C646.026672,2369.53334 647.093328,2369.76 648.16,2369.76 C649.120005,2369.76 649.97333,2369.58667 650.72,2369.24 C651.46667,2368.89333 651.906666,2368.34667 652.04,2367.6 C652.12,2367.17333 652.040001,2366.79333 651.8,2366.46 C651.559999,2366.12666 651.226669,2365.85333 650.8,2365.64 C650.373331,2365.42667 649.873336,2365.24667 649.3,2365.1 C648.726664,2364.95333 648.160003,2364.84 647.6,2364.76 C646.479994,2364.57333 645.420005,2364.22 644.42,2363.7 C643.419995,2363.18 642.560004,2362.50667 641.84,2361.68 C641.119996,2360.85333 640.600002,2359.88667 640.28,2358.78 C639.959998,2357.67333 639.919999,2356.45334 640.16,2355.12 C640.426668,2353.67999 640.926663,2352.46 641.66,2351.46 C642.393337,2350.46 643.279995,2349.64667 644.32,2349.02 C645.360005,2348.39333 646.499994,2347.94667 647.74,2347.68 C648.980006,2347.41333 650.253327,2347.28 651.56,2347.28 C652.413338,2347.28 653.253329,2347.34667 654.08,2347.48 C654.906671,2347.61333 655.706663,2347.85333 656.48,2348.2 C657.253337,2348.54667 657.986663,2349.01333 658.68,2349.6 C659.373337,2350.18667 660.026664,2350.92 660.64,2351.8 L655.44,2355.4 C654.826664,2354.70666 654.093338,2354.2 653.24,2353.88 C652.386662,2353.56 651.546671,2353.38667 650.72,2353.36 C649.813329,2353.33333 649.02667,2353.49333 648.36,2353.84 C647.69333,2354.18667 647.32,2354.72 647.24,2355.44 C647.133333,2356.26667 647.399997,2356.88666 648.04,2357.3 C648.680003,2357.71334 649.546661,2358.04 650.64,2358.28 C651.866673,2358.52 653.059994,2358.83333 654.22,2359.22 C655.380006,2359.60667 656.366663,2360.16666 657.18,2360.9 C657.993337,2361.63334 658.586665,2362.57999 658.96,2363.74 C659.333335,2364.90001 659.360002,2366.35999 659.04,2368.12 C658.773332,2369.50667 658.28667,2370.71333 657.58,2371.74 C656.87333,2372.76667 656.000005,2373.62666 654.96,2374.32 C653.919995,2375.01334 652.726673,2375.53333 651.38,2375.88 C650.033327,2376.22667 648.600008,2376.4 647.08,2376.4 C646.226662,2376.4 645.340005,2376.29333 644.42,2376.08 C643.499995,2375.86667 642.606671,2375.54667 641.74,2375.12 C640.873329,2374.69333 640.053337,2374.16 639.28,2373.52 C638.506663,2372.88 637.853336,2372.13334 637.32,2371.28 L642.44,2367.04 Z M679.84,2347.68 L688.76,2347.68 L675.6,2361.6 L684.76,2376 L675.76,2376 L669.84,2365.88 L669.56,2366.2 L668.2,2376 L661,2376 L664.96,2347.68 L672.16,2347.68 L670.68,2358.16 L679.84,2347.68 Z M693.68,2376 L686.52,2376 L690.48,2347.68 L697.64,2347.68 L693.68,2376 Z M702.12,2347.68 L709.32,2347.68 L706.32,2368.92 L717.84,2368.92 L716.88,2376 L698.16,2376 L702.12,2347.68 Z M723.56,2347.68 L730.76,2347.68 L727.76,2368.92 L739.28,2368.92 L738.32,2376 L719.6,2376 L723.56,2347.68 Z M745.24,2367.04 C745.853336,2367.94667 746.693328,2368.62666 747.76,2369.08 C748.826672,2369.53334 749.893328,2369.76 750.96,2369.76 C751.920005,2369.76 752.77333,2369.58667 753.52,2369.24 C754.26667,2368.89333 754.706666,2368.34667 754.84,2367.6 C754.92,2367.17333 754.840001,2366.79333 754.6,2366.46 C754.359999,2366.12666 754.026669,2365.85333 753.6,2365.64 C753.173331,2365.42667 752.673336,2365.24667 752.1,2365.1 C751.526664,2364.95333 750.960003,2364.84 750.4,2364.76 C749.279994,2364.57333 748.220005,2364.22 747.22,2363.7 C746.219995,2363.18 745.360004,2362.50667 744.64,2361.68 C743.919996,2360.85333 743.400002,2359.88667 743.08,2358.78 C742.759998,2357.67333 742.719999,2356.45334 742.96,2355.12 C743.226668,2353.67999 743.726663,2352.46 744.46,2351.46 C745.193337,2350.46 746.079995,2349.64667 747.12,2349.02 C748.160005,2348.39333 749.299994,2347.94667 750.54,2347.68 C751.780006,2347.41333 753.053327,2347.28 754.36,2347.28 C755.213338,2347.28 756.053329,2347.34667 756.88,2347.48 C757.706671,2347.61333 758.506663,2347.85333 759.28,2348.2 C760.053337,2348.54667 760.786663,2349.01333 761.48,2349.6 C762.173337,2350.18667 762.826664,2350.92 763.44,2351.8 L758.24,2355.4 C757.626664,2354.70666 756.893338,2354.2 756.04,2353.88 C755.186662,2353.56 754.346671,2353.38667 753.52,2353.36 C752.613329,2353.33333 751.82667,2353.49333 751.16,2353.84 C750.49333,2354.18667 750.12,2354.72 750.04,2355.44 C749.933333,2356.26667 750.199997,2356.88666 750.84,2357.3 C751.480003,2357.71334 752.346661,2358.04 753.44,2358.28 C754.666673,2358.52 755.859994,2358.83333 757.02,2359.22 C758.180006,2359.60667 759.166663,2360.16666 759.98,2360.9 C760.793337,2361.63334 761.386665,2362.57999 761.76,2363.74 C762.133335,2364.90001 762.160002,2366.35999 761.84,2368.12 C761.573332,2369.50667 761.08667,2370.71333 760.38,2371.74 C759.67333,2372.76667 758.800005,2373.62666 757.76,2374.32 C756.719995,2375.01334 755.526673,2375.53333 754.18,2375.88 C752.833327,2376.22667 751.400008,2376.4 749.88,2376.4 C749.026662,2376.4 748.140005,2376.29333 747.22,2376.08 C746.299995,2375.86667 745.406671,2375.54667 744.54,2375.12 C743.673329,2374.69333 742.853337,2374.16 742.08,2373.52 C741.306663,2372.88 740.653336,2372.13334 740.12,2371.28 L745.24,2367.04 Z" id="SKILLS"></path>
        </g>
    </g>
</svg>