<?xml version="1.0" encoding="UTF-8" standalone="no"?>
<svg width="57px" height="61px" viewBox="0 0 57 61" version="1.1" xmlns="http://www.w3.org/2000/svg" xmlns:xlink="http://www.w3.org/1999/xlink">
    <!-- Generator: Sketch 41.2 (35397) - http://www.bohemiancoding.com/sketch -->
    <title>angular</title>
    <desc>Created with Sketch.</desc>
    <defs></defs>
    <g id="Page-1" stroke="none" stroke-width="1" fill="none" fill-rule="evenodd">
        <g id="Desktop-Landscape" transform="translate(-260.000000, -2605.000000)">
            <g id="Skills-Items-3" transform="translate(259.000000, 2480.000000)">
                <g id="Angular" transform="translate(1.000000, 125.000000)">
                    <g id="angular">
                        <g id="Layer_1">
                            <g id="Group">
                                <polygon id="Shape" fill="#024AA1" points="28.5 0 28.5 0 28.5 0 0.27287234 10.126 4.57819149 47.6715 28.5 61 28.5 61 28.5 61 52.4218085 47.6715 56.7271277 10.126"></polygon>
                                <polygon id="Shape" fill="#660FE1" points="28.5 0 28.5 6.771 28.5 6.7405 28.5 37.637 28.5 37.637 28.5 61 28.5 61 52.4218085 47.6715 56.7271277 10.126"></polygon>
                                <path d="M28.5,6.7405 L10.8542553,46.543 L10.8542553,46.543 L17.4335106,46.543 L17.4335106,46.543 L20.9808511,37.637 L35.9585106,37.637 L39.5058511,46.543 L39.5058511,46.543 L46.0851064,46.543 L46.0851064,46.543 L28.5,6.7405 L28.5,6.7405 L28.5,6.7405 L28.5,6.7405 L28.5,6.7405 Z M33.6542553,32.147 L23.3457447,32.147 L28.5,19.6725 L33.6542553,32.147 Z" id="Shape" fill="#FFFFFF"></path>
                            </g>
                        </g>
                    </g>
                </g>
            </g>
        </g>
    </g>
</svg>