<?xml version="1.0" encoding="UTF-8" standalone="no"?>
<svg width="53px" height="61px" viewBox="0 0 53 61" version="1.1" xmlns="http://www.w3.org/2000/svg" xmlns:xlink="http://www.w3.org/1999/xlink">
    <!-- Generator: Sketch 41.2 (35397) - http://www.bohemiancoding.com/sketch -->
    <title>drupal</title>
    <desc>Created with Sketch.</desc>
    <defs>
        <linearGradient x1="0%" y1="46.1309288%" x2="100%" y2="48.3933812%" id="linearGradient-1">
            <stop stop-color="#3900A0" offset="0%"></stop>
            <stop stop-color="#9502FF" offset="100%"></stop>
        </linearGradient>
    </defs>
    <g id="Page-1" stroke="none" stroke-width="1" fill="none" fill-rule="evenodd">
        <g id="Desktop-Landscape" transform="translate(-862.000000, -2717.000000)" fill="url(#linearGradient-1)">
            <g id="Skills-Items-3" transform="translate(259.000000, 2480.000000)">
                <g id="CMS" transform="translate(603.000000, 237.000000)">
                    <g id="drupal">
                        <g id="Drupal">
                            <path d="M40.3809524,12.2 C37.352381,10.1666667 33.112381,8.13333333 30.2857143,6.1 C28.4685714,4.88 26.247619,2.44 24.2285714,0 C23.8247619,4.06666667 23.6228571,4.88 22.2095238,6.1 C19.1809524,8.54 16.152381,9.96333333 13.7295238,11.3866667 C10.2971429,13.0133333 0,19.3166667 0,34.5666667 C0,49.8166667 12.3161905,61 26.4495238,61 C40.5828571,61 52.6971429,50.63 52.6971429,35.1766667 C52.6971429,19.7233333 42.1980952,13.42 40.3809524,12.2 Z M39.7752381,55.51 C39.5733333,55.7133333 36.7466667,57.7466667 33.7180952,57.95 C30.6895238,58.1533333 26.247619,58.3566667 23.8247619,56.12 C23.4209524,55.7133333 23.6228571,55.1033333 23.8247619,54.9 C24.0266667,54.6966667 24.4304762,54.4933333 24.632381,54.4933333 C25.0361905,54.4933333 24.8342857,54.4933333 25.0361905,54.6966667 C26.247619,55.7133333 27.8628571,56.3233333 31.6990476,56.3233333 C35.5352381,56.3233333 37.9580952,55.3066667 39.1695238,54.29 C39.7752381,53.8833333 39.9771429,54.29 39.9771429,54.4933333 C39.9771429,54.6966667 40.1790476,55.1033333 39.7752381,55.51 Z M29.4780952,50.02 C30.0838095,49.41 31.0933333,48.3933333 32.1028571,47.9866667 C33.112381,47.58 33.7180952,47.58 34.5257143,47.58 C35.5352381,47.58 36.5447619,47.58 37.1504762,48.19 C37.7561905,48.5966667 38.16,49.8166667 38.5638095,50.2233333 C38.7657143,50.8333333 38.5638095,51.24 38.16,51.4433333 C37.7561905,51.6466667 37.7561905,51.6466667 37.352381,50.8333333 C36.9485714,50.02 36.5447619,49.2066667 34.5257143,49.2066667 C32.5066667,49.2066667 31.9009524,49.8166667 30.8914286,50.8333333 C29.8819048,51.6466667 29.4780952,51.85 29.2761905,51.4433333 C28.872381,51.24 28.872381,50.63 29.4780952,50.02 Z M44.4190476,50.8333333 C42.4,50.63 38.967619,44.9366667 36.3428571,44.7333333 C32.9104762,44.53 26.0457143,50.8333333 20.1904762,50.8333333 C16.7580952,50.8333333 15.3447619,49.6133333 14.1333333,48.8 C12.3161905,47.58 10.0952381,45.3433333 10.0952381,42.7 C10.0952381,38.0233333 14.7390476,34.5666667 20.1904762,34.5666667 C27.0552381,34.5666667 32.9104762,40.6666667 36.3428571,40.6666667 C39.1695238,40.6666667 43.6114286,34.5666667 46.4380952,34.5666667 C49.2647619,34.5666667 50.4761905,38.8366667 50.4761905,40.6666667 C50.4761905,42.4966667 50.2742857,45.75 48.8609524,47.9866667 C47.447619,50.2233333 46.0342857,51.0366667 44.4190476,50.8333333 Z" id="Drupicon"></path>
                        </g>
                    </g>
                </g>
            </g>
        </g>
    </g>
</svg>