<svg width="512" height="512" xmlns="http://www.w3.org/2000/svg">

 <g>
  <title>background</title>
  <rect fill="none" id="canvas_background" height="402" width="582" y="-1" x="-1"/>
 </g>
 <g>
  <title>Layer 1</title>
  <path id="svg_2" fill="#ff0000" d="m297.036,205.578l-36.334,33.809l-33.716,-68.005l17.446,-39.108c4.416,-7.84 11.621,-7.855 16.037,0l36.567,73.304z"/>
  <polygon id="svg_3" points="260.702,239.386 124.924,365.697 226.986,171.381  " fill="#bf0000"/>
  <path id="svg_4" fill="#bf0000" d="m336.776,153.901c6.491,-6.239 13.202,-4.111 14.912,4.729l35.342,205.375l-117.157,70.215c-4.1,2.264 -14.957,3.246 -14.957,3.246s-9.91,-1.185 -13.687,-3.281l-116.309,-68.495l211.856,-211.789z"/>
  <path id="svg_5" fill="#bf0000" d="m226.986,171.381l-102.062,194.316l45.46,-283.998c1.674,-8.847 6.71,-9.699 11.203,-1.89l45.399,91.572z"/>
 </g>
</svg>