<?xml version="1.0" encoding="UTF-8" standalone="no"?>
<svg width="55px" height="55px" viewBox="0 0 55 55" version="1.1" xmlns="http://www.w3.org/2000/svg" xmlns:xlink="http://www.w3.org/1999/xlink">
    <!-- Generator: Sketch 41.2 (35397) - http://www.bohemiancoding.com/sketch -->
    <title>git</title>
    <desc>Created with Sketch.</desc>
    <defs>
        <linearGradient x1="0%" y1="46.1309288%" x2="100%" y2="48.3933812%" id="linearGradient-1">
            <stop stop-color="#3900A0" offset="0%"></stop>
            <stop stop-color="#9502FF" offset="100%"></stop>
        </linearGradient>
    </defs>
    <g id="Page-1" stroke="none" stroke-width="1" fill="none" fill-rule="evenodd">
        <g id="Desktop-Landscape" transform="translate(-263.000000, -2841.000000)" fill="url(#linearGradient-1)">
            <g id="Skills-Items-3" transform="translate(259.000000, 2480.000000)">
                <g id="Git" transform="translate(4.000000, 361.000000)">
                    <g id="git">
                        <g id="Layer_1">
                            <path d="M31.8076172,38.0488281 C37.1679688,37.4150391 42.8613281,35.4707031 42.8613281,26.2109375 C42.8613281,23.5791016 41.9375,21.4414062 40.4228516,19.7763672 C40.6699219,19.1425781 41.4433594,16.7578125 40.1328125,13.4492188 C40.1328125,13.4492188 38.1884766,12.8154297 33.6015625,15.8876953 C31.6572266,15.3505859 29.5087891,15.0068359 27.5107422,15.0068359 C25.4589844,15.0068359 23.3212891,15.3505859 21.4199219,15.8876953 C16.7900391,12.8154297 14.8457031,13.4492187 14.8457031,13.4492187 C13.5351563,16.7578125 14.3085938,19.1533203 14.5556641,19.7763672 C13.0410156,21.4306641 12.1171875,23.5791016 12.1171875,26.2109375 C12.1171875,35.4707031 17.8212891,37.4150391 23.1708984,38.0488281 C22.4941406,38.6396484 21.8603516,39.7568359 21.6132813,41.3144531 C20.2490234,41.8945312 16.6933594,43.0224609 14.5449219,39.3164062 C14.5449219,39.3164062 13.2773438,37.0283203 10.8925781,36.8779297 C10.8925781,36.8779297 8.5078125,36.8242188 10.6992188,38.3388672 C10.6992188,38.3388672 12.3105469,39.0693359 13.3740234,41.8515625 C13.3740234,41.8515625 14.8349609,46.4814453 21.5595703,45.0205078 L21.5595703,49.15625 C21.5595703,49.7900391 21.0761719,50.5205078 19.8515625,50.3271484 C10.3232422,47.1582031 3.45898438,38.0917969 3.45898438,27.4785156 C3.45898438,14.1796875 14.2226562,3.41601562 27.5214844,3.41601562 C40.7666016,3.41601562 51.5839844,14.1796875 51.5410156,27.4785156 C51.5410156,38.1025391 44.6767578,47.1152344 35.1269531,50.3271484 C33.9130859,50.5742188 33.4189453,49.84375 33.4189453,49.15625 L33.4189453,42.4853516 C33.4189453,40.2402344 32.6884766,38.7792969 31.8076172,38.0488281 L31.8076172,38.0488281 Z M55,27.5214844 C55,12.3212891 42.6787109,0 27.5214844,0 C12.3212891,0 0,12.3212891 0,27.5214844 C0,42.6787109 12.3212891,55 27.5214844,55 C42.6787109,55 55,42.6787109 55,27.5214844 L55,27.5214844 Z" id="Shape"></path>
                        </g>
                    </g>
                </g>
            </g>
        </g>
    </g>
</svg>