<?xml version="1.0" encoding="UTF-8" standalone="no"?>
<svg width="49px" height="55px" viewBox="0 0 49 55" version="1.1" xmlns="http://www.w3.org/2000/svg" xmlns:xlink="http://www.w3.org/1999/xlink">
    <!-- Generator: Sketch 41.2 (35397) - http://www.bohemiancoding.com/sketch -->
    <title>html5</title>
    <desc>Created with Sketch.</desc>
    <defs>
        <linearGradient x1="0%" y1="46.1309288%" x2="100%" y2="48.3933812%" id="linearGradient-1">
            <stop stop-color="#3900A0" offset="0%"></stop>
            <stop stop-color="#9502FF" offset="100%"></stop>
        </linearGradient>
    </defs>
    <g id="Page-1" stroke="none" stroke-width="1" fill="none" fill-rule="evenodd">
        <g id="Desktop-Landscape" transform="translate(-862.000000, -2480.000000)" fill="url(#linearGradient-1)">
            <g id="Skills-Items-3" transform="translate(259.000000, 2480.000000)">
                <g id="Accesibility" transform="translate(603.000000, 0.000000)">
                    <g id="html5">
                        <g id="Layer_1">
                            <g id="XMLID_106_">
                                <path d="M0.988690566,0 C0.4802,0 0.101328302,0.41085 0.146445283,0.913 L4.43329811,48.5882833 C4.47841509,49.0904333 4.91608679,49.61165 5.4062717,49.7465833 L23.5974755,54.7545167 C24.0874755,54.88945 24.8892264,54.88945 25.3794113,54.7548833 L43.6259019,49.7387 C44.1159019,49.60395 44.5541283,49.0827333 44.5992453,48.5807667 L48.8931245,0.913 C48.9386113,0.41085 48.5593698,0 48.0508792,0 L0.988690566,0 Z M39.7637774,10.9341833 C39.723283,11.3820667 39.6532038,12.1595833 39.6080868,12.6617333 L39.4951094,13.9126167 C39.4496226,14.4145833 39.3849057,15.1325167 39.3506981,15.5078 C39.3166755,15.8832667 39.284317,16.19035 39.2784,16.19035 L38.3433321,16.19035 L25.4443132,16.19035 L24.5099849,16.19035 L23.5752868,16.19035 L16.7818528,16.19035 C16.2733623,16.19035 15.8944906,16.6012 15.9396075,17.10335 L16.3358604,21.4951 C16.3809774,21.9970667 16.8341811,22.4081 17.3426717,22.4081 L23.5754717,22.4081 L24.5101698,22.4081 L25.4444981,22.4081 L36.1577472,22.4081 L37.9064,22.4081 C38.359234,22.4081 38.6965019,22.7745833 38.6554528,23.2224667 C38.6142189,23.67035 38.5437698,24.44805 38.4986528,24.9500167 L37.2244679,39.1084833 C37.1789811,39.6106333 37.1214755,40.2521167 37.0966981,40.5340833 C37.071366,40.8158667 36.649966,41.1566833 36.159966,41.2914333 L25.4108453,44.2465833 C24.9208453,44.38115 24.513683,44.4926167 24.5061019,44.4942667 C24.4985208,44.4959167 24.0915434,44.3868333 23.6013585,44.2520833 L12.8407736,41.2916167 C12.3507736,41.1568667 11.912917,40.63565 11.8678,40.1335 L11.1751434,32.42525 C11.1300264,31.9231 11.5092679,31.51225 12.0177585,31.51225 L12.9997925,31.51225 L14.8488491,31.51225 L16.3133019,31.51225 C16.8217925,31.51225 17.2746264,31.9231 17.3201132,32.42525 L17.5917396,35.4427333 C17.6368566,35.9448833 18.0752679,36.4631667 18.5663774,36.5946167 L23.5996943,37.9423 C24.090434,38.07375 24.4938981,38.1813667 24.496117,38.1813667 C24.4983358,38.1813667 24.9016151,38.0735667 25.3925396,37.9421167 L30.434917,36.5911333 C30.9256566,36.4596833 31.3644377,35.9412167 31.4099245,35.43925 L31.9566906,29.39365 C32.0021774,28.8915 31.6233057,28.48065 31.1148151,28.48065 L25.4444981,28.48065 L24.5101698,28.48065 L23.5754717,28.48065 L11.7435434,28.48065 C11.2350528,28.48065 10.7822189,28.0696167 10.7371019,27.56765 L9.39542642,12.66155 C9.35030943,12.1594 9.28023019,11.3820667 9.23973585,10.934 C9.19961132,10.4861167 9.58255094,10.1196333 10.0910415,10.1196333 L23.5754717,10.1196333 L24.5101698,10.1196333 L25.4444981,10.1196333 L38.9126566,10.1196333 C39.4209623,10.1196333 39.8040868,10.4861167 39.7637774,10.9341833 Z" id="XMLID_107_"></path>
                            </g>
                        </g>
                    </g>
                </g>
            </g>
        </g>
    </g>
</svg>