<?xml version="1.0" encoding="UTF-8"?>
<svg width="55px" height="55px" viewBox="0 0 55 55" version="1.1" xmlns="http://www.w3.org/2000/svg" xmlns:xlink="http://www.w3.org/1999/xlink">
    <!-- Generator: Sketch 47.1 (45422) - http://www.bohemiancoding.com/sketch -->
    <title>ionic</title>
    <desc>Created with Sketch.</desc>
    <defs>
        <linearGradient x1="0%" y1="46.1309288%" x2="100%" y2="48.3933812%" id="linearGradient-1">
            <stop stop-color="#A01F00" offset="0%"></stop>
            <stop stop-color="#FC5702" offset="100%"></stop>
        </linearGradient>
        <linearGradient x1="2.42546275%" y1="46.1858037%" x2="99.9999996%" y2="48.3933812%" id="linearGradient-2">
            <stop stop-color="#A01F00" offset="0%"></stop>
            <stop stop-color="#FC5702" offset="100%"></stop>
        </linearGradient>
    </defs>
    <g id="Page-1" stroke="none" stroke-width="1" fill="none" fill-rule="evenodd">
        <g id="ionic" fill-rule="nonzero">
            <path d="M49.9098558,11.4759615 C50.53125,10.6959135 50.9014423,9.69110577 50.9014423,8.62019231 C50.9014423,6.08173077 48.8389423,4.00600962 46.3004808,4.00600962 C45.2163462,4.00600962 44.2247596,4.37620192 43.4447115,4.99759615 C38.9495192,1.79807692 33.5288462,0 27.5925481,0 C12.4014423,-1.87883896e-15 0,12.2295673 0,27.4471154 C0,42.6646635 12.3882212,55 27.5793269,55 C42.7704327,55 55,42.6646635 55,27.4471154 C55,21.4975962 53.109375,15.984375 49.9098558,11.4759615 Z M46.2740385,5.72475962 C47.8870192,5.72475962 49.1826923,7.03365385 49.1826923,8.63341346 C49.1826923,10.2463942 47.8737981,11.5420673 46.2740385,11.5420673 C44.6610577,11.5420673 43.3653846,10.2331731 43.3653846,8.63341346 C43.3653846,7.03365385 44.6610577,5.72475962 46.2740385,5.72475962 Z M45.4543269,45.4411058 C43.1274038,47.7680288 40.4038462,49.6189904 37.3762019,50.9014423 C34.2427885,52.2235577 31.0036058,52.9110577 27.5661058,52.9110577 C24.1418269,52.9110577 20.7307692,52.2367788 17.5973558,50.9014423 C14.5697115,49.6189904 11.859375,47.7944712 9.51923077,45.4411058 C7.19230769,43.1141827 5.35456731,40.3774038 4.07211538,37.3497596 C2.75,34.2163462 2.07572115,30.8846154 2.07572115,27.4471154 C2.07572115,24.0228365 2.75,20.6778846 4.07211538,17.5444712 C5.35456731,14.5168269 7.17908654,11.7932692 9.51923077,9.453125 C11.859375,7.11298077 14.5697115,5.27524038 17.5973558,3.99278846 C20.7307692,2.67067308 24.1286058,2.12860577 27.5661058,2.12860577 C30.9903846,2.12860577 34.2427885,2.65745192 37.3762019,3.99278846 C39.0552885,4.70673077 40.6418269,5.59254808 42.1225962,6.63701923 C41.8449519,7.23197115 41.6862981,7.89302885 41.6862981,8.60697115 C41.6862981,11.1454327 43.7487981,13.2211538 46.2872596,13.2211538 C46.9879808,13.2211538 47.6490385,13.0625 48.2572115,12.7848558 C49.3016827,14.265625 50.1875,15.8521635 50.9014423,17.5444712 C52.2235577,20.6778846 52.8978365,24.0096154 52.8978365,27.4471154 C52.8978365,30.8713942 52.2235577,34.2163462 50.9014423,37.3497596 C49.6189904,40.3774038 47.7944712,43.1009615 45.4543269,45.4411058 Z" id="Shape" fill="url(#linearGradient-1)"></path>
            <path d="M27.5661058,14.8209135 C20.5588942,14.8209135 14.8737981,20.4795673 14.8737981,27.5 C14.8737981,34.5204327 20.5456731,40.2055288 27.5661058,40.2055288 C34.5733173,40.2055288 40.2584135,34.5204327 40.2584135,27.5 C40.2584135,20.4795673 34.5733173,14.8209135 27.5661058,14.8209135 Z M27.5661058,38.0504808 C21.7355769,38.0504808 17.0288462,33.3173077 17.0288462,27.5 C17.0288462,21.6694712 21.7355769,16.9759615 27.5661058,16.9759615 C33.3966346,16.9759615 38.1033654,21.6826923 38.1033654,27.5 C38.1033654,33.3305288 33.3834135,38.0504808 27.5661058,38.0504808 Z" id="Shape" fill="url(#linearGradient-2)"></path>
        </g>
    </g>
</svg>