<?xml version="1.0" encoding="UTF-8" standalone="no"?>
<svg width="60px" height="60px" viewBox="0 0 60 60" version="1.1" xmlns="http://www.w3.org/2000/svg" xmlns:xlink="http://www.w3.org/1999/xlink">
    <!-- Generator: Sketch 41.2 (35397) - http://www.bohemiancoding.com/sketch -->
    <title>1493594540_mysql</title>
    <desc>Created with Sketch.</desc>
    <defs>
        <linearGradient x1="0%" y1="46.1309288%" x2="100%" y2="48.3933812%" id="linearGradient-1">
            <stop stop-color="#3900A0" offset="0%"></stop>
            <stop stop-color="#9502FF" offset="100%"></stop>
        </linearGradient>
    </defs>
    <g id="Page-1" stroke="none" stroke-width="1" fill="none" fill-rule="evenodd">
        <g id="Desktop-Landscape" transform="translate(-587.000000, -2714.000000)">
            <g id="Skills-Items-3" transform="translate(259.000000, 2480.000000)">
                <g id="php" transform="translate(328.000000, 234.000000)">
                    <g id="1493594540_mysql">
                        <g id="Layer_1">
                            <path d="M59.9255583,29.9702233 C58.5558313,38.6799007 55.8908189,41.2258065 51.1712159,47.0769231 C46.4516129,52.0347395 39.662531,60.3126551 30.044665,59.8511166 C21.3349876,58.4813896 18.7890819,55.8163772 12.9379653,51.0967742 C7.98014888,46.3771712 -0.297766749,39.5880893 0.163771712,29.9702233 C1.53349876,21.2605459 4.19851117,18.7146402 8.91811414,12.8635236 C13.6377171,7.9057072 20.426799,-0.372208437 30.044665,0.0893300248 C38.7543424,1.45905707 41.3002481,4.12406948 47.1513648,8.84367246 C52.1091811,13.5632754 60.3870968,20.3523573 59.9255583,29.9702233 Z" id="Shape" fill="url(#linearGradient-1)"></path>
                            <g id="Group" transform="translate(8.635236, 15.781638)" fill="#FFFFFF">
                                <path d="M9.27543424,13.7270471 C8.20347395,13.4143921 7.47394541,13.6823821 7.16129032,14.4119107 L5.01736973,19.235732 L2.91811414,14.4119107 C2.60545906,13.6823821 1.87593052,13.4143921 0.803970223,13.7270471 C0.342431762,13.8759305 0.1191067,14.1141439 0.1191067,14.6799007 L0.1191067,20.2779156 L1.53349876,20.2779156 L1.53349876,14.6799007 L3.75186104,19.5483871 C3.99007444,20.1290323 4.36228288,20.3523573 5.06203474,20.3523573 C5.7617866,20.3523573 6.08933002,20.1290323 6.3573201,19.5483871 L8.54590571,14.6799007 L8.54590571,20.2779156 L9.96029777,20.2779156 L9.96029777,14.6799007 C9.96029777,14.1439206 9.7369727,13.8759305 9.27543424,13.7270471 Z" id="Shape"></path>
                                <path d="M16.4813896,19.369727 L13.3846154,19.369727 C12.5955335,19.3548387 12.5508685,18.9528536 12.5508685,18.7890819 L12.5508685,15.7220844 L11.1364764,15.7220844 C11.1811414,15.7369727 11.1364764,18.8039702 11.1513648,18.8784119 C11.1513648,19.5781638 12.044665,20.2183623 13.4590571,20.2183623 L16.4813896,20.2183623 L16.4813896,20.5905707 C16.4813896,20.7245658 16.5856079,21.1861042 15.6774194,21.2903226 L11.1960298,21.2903226 L11.1960298,22.2431762 L15.6476427,22.2431762 C16.3622829,22.2431762 17.8957816,21.9751861 17.8957816,20.7394541 L17.8957816,15.6923077 L16.4813896,15.6923077 L16.4813896,19.369727 Z" id="Shape"></path>
                                <path d="M42.7593052,15.3200993 C42.6550868,15.2158809 42.5359801,15.1265509 42.4466501,15.0074442 C42.133995,14.5905707 41.7468983,14.2034739 41.3300248,13.9057072 C40.9875931,13.6674938 40.2133995,13.3399504 40.0942928,12.9379653 C40.0942928,12.9379653 40.0942928,12.9379653 40.0645161,12.9081886 C40.3027295,12.8784119 40.5707196,12.8039702 40.8238213,12.7444169 C41.1960298,12.6401985 41.5235732,12.6699752 41.9255583,12.5806452 C42.08933,12.5359801 42.2679901,12.4764268 42.4317618,12.4317618 L42.4317618,12.3275434 C42.2382134,12.133995 42.08933,11.866005 41.8957816,11.6873449 C41.3300248,11.1960298 40.719603,10.7344913 40.0942928,10.3473945 C39.751861,10.1240695 39.3200993,9.9751861 38.9776675,9.81141439 C38.8585608,9.7369727 38.6352357,9.70719603 38.560794,9.617866 C38.3672457,9.37965261 38.248139,9.05210918 38.1290323,8.78411911 C37.8163772,8.17369727 37.5186104,7.51861042 37.2208437,6.87841191 C37.0272953,6.46153846 36.9081886,6.02977667 36.6550868,5.6426799 C35.5384615,3.79652605 34.3176179,2.66501241 32.4416873,1.57816377 C32.0248139,1.35483871 31.5632754,1.26550868 31.057072,1.14640199 C30.7890819,1.14640199 30.5210918,1.11662531 30.2531017,1.10173697 C30.08933,1.02729529 29.91067,0.803970223 29.7468983,0.714640199 C29.1364764,0.327543424 27.528536,-0.521091811 27.0669975,0.595533499 C26.7692308,1.29528536 27.4987593,2.00992556 27.751861,2.35235732 C27.9454094,2.59057072 28.1687345,2.88833747 28.3176179,3.15632754 C28.3920596,3.34987593 28.4218362,3.54342432 28.4813896,3.7369727 C28.6451613,4.22828784 28.8238213,4.73449132 29.0471464,5.19602978 C29.1662531,5.41935484 29.2853598,5.65756824 29.4640199,5.8808933 C29.5682382,6 29.7022333,6.04466501 29.7320099,6.25310174 C29.5831266,6.4764268 29.5682382,6.78908189 29.4937965,7.05707196 C29.1066998,8.27791563 29.2555831,9.81141439 29.8064516,10.7047146 C29.9702233,10.9727047 30.3870968,11.5831266 30.9528536,11.3449132 C31.4441687,11.1513648 31.3399504,10.5409429 31.4590571,9.9751861 C31.4888337,9.8560794 31.4590571,9.75186104 31.5334988,9.67741935 L31.5334988,9.70719603 C31.6823821,10.0049628 31.8312655,10.3176179 31.9652605,10.6153846 C32.3076923,11.1513648 32.8883375,11.7171216 33.3796526,12.0744417 C33.6476427,12.2679901 33.8411911,12.6104218 34.1836228,12.7295285 L34.1836228,12.6997519 C34.1836228,12.6997519 34.1836228,12.6997519 34.1538462,12.6997519 C34.0794045,12.5955335 33.9900744,12.5508685 33.9156328,12.4764268 C33.7220844,12.2828784 33.4987593,12.044665 33.3498759,11.82134 C32.8883375,11.2109181 32.5012407,10.5260546 32.1290323,9.84119107 C31.9652605,9.49875931 31.8163772,9.14143921 31.6674938,8.79900744 C31.5930521,8.67990074 31.5930521,8.48635236 31.5037221,8.41191067 C31.3399504,8.65012407 31.0868486,8.84367246 30.9975186,9.14143921 C30.8039702,9.60297767 30.7741935,10.1836228 30.6997519,10.7791563 C30.6550868,10.7791563 30.6699752,10.7791563 30.6550868,10.808933 C30.3126551,10.7047146 30.1935484,10.3771712 30.044665,10.0496278 C29.7320099,9.27543424 29.6575682,8.0248139 29.9404467,7.14640199 C30.0148883,6.92307692 30.3573201,6.19354839 30.2084367,5.97022333 C30.133995,5.77667494 29.91067,5.65756824 29.7915633,5.47890819 C29.6426799,5.2853598 29.4937965,5.01736973 29.4044665,4.77915633 C29.1364764,4.16873449 29.0173697,3.48387097 28.719603,2.87344913 C28.6004963,2.57568238 28.3473945,2.29280397 28.1836228,2.03970223 C27.9900744,1.74193548 27.751861,1.53349876 27.573201,1.191067 C27.528536,1.0719603 27.4540943,0.878411911 27.528536,0.759305211 C27.5583127,0.655086849 27.6029777,0.640198511 27.6774194,0.610421836 C27.8263027,0.491315136 28.2133995,0.640198511 28.3622829,0.714640199 C28.7791563,0.878411911 29.0918114,1.02729529 29.4342432,1.25062035 C29.5831266,1.35483871 29.7468983,1.56327543 29.9404467,1.62282878 L30.1637717,1.62282878 C30.5062035,1.69727047 30.8933002,1.65260546 31.235732,1.74193548 C31.8163772,1.93548387 32.337469,2.20347395 32.7990074,2.50124069 C34.2133995,3.40942928 35.4044665,4.6898263 36.17866,6.22332506 C36.2977667,6.46153846 36.3722084,6.7146402 36.4764268,6.9528536 C36.6997519,7.48883375 36.9826303,8.0248139 37.2059553,8.56079404 C37.4292804,9.06699752 37.6377171,9.58808933 37.9801489,10.0198511 C38.1439206,10.2431762 38.7841191,10.3622829 39.0967742,10.4813896 C39.3200993,10.5856079 39.662531,10.674938 39.8560794,10.7791563 C40.2282878,11.0024814 40.5856079,11.2704715 40.9578164,11.5086849 C41.0918114,11.6426799 41.6575682,11.91067 41.6873449,12.133995 C40.808933,12.1042184 40.1538462,12.2084367 39.573201,12.4317618 C39.4094293,12.5062035 39.1563275,12.5062035 39.1414392,12.6997519 C39.2456576,12.8039702 39.2456576,12.9230769 39.3052109,13.0421836 C39.4243176,13.2655087 39.6774194,13.5483871 39.8709677,13.6972705 C40.0942928,13.8610422 40.3325062,14.0397022 40.5707196,14.2034739 C40.9875931,14.471464 41.4789082,14.6203474 41.8808933,14.8883375 C42.1191067,15.0372208 42.3722084,15.2307692 42.5806452,15.3945409 C42.6997519,15.4987593 42.7741935,15.617866 42.9230769,15.6923077 L42.9230769,15.662531 C42.8486352,15.5583127 42.8188586,15.4243176 42.7593052,15.3200993 Z" id="Shape"></path>
                                <path d="M30.1637717,2.75434243 C30.1637717,2.75434243 30.1637717,2.75434243 30.1637717,2.78411911 L30.1935484,2.78411911 C30.2977667,2.94789082 30.4317618,3.08188586 30.5359801,3.21588089 C30.6401985,3.37965261 30.6997519,3.55831266 30.7741935,3.72208437 L30.8039702,3.69230769 C30.9528536,3.58808933 31.0272953,3.39454094 31.0272953,3.15632754 C30.9528536,3.08188586 30.9528536,3.00744417 30.9081886,2.93300248 C30.8188586,2.82878412 30.6699752,2.78411911 30.5955335,2.70967742 C30.4019851,2.70967742 30.2828784,2.73945409 30.1637717,2.75434243 Z" id="Shape"></path>
                                <path d="M20.2183623,13.8610422 C19.3846154,14.1290323 18.9975186,14.5459057 18.9975186,15.2754342 L18.9975186,16.0496278 C18.9975186,16.6898263 19.6972705,17.2406948 20.9181141,17.3598015 L21.3349876,17.3598015 L22.7940447,17.3598015 L22.942928,17.3598015 C23.3746898,17.4044665 23.5831266,17.4789082 23.7171216,17.6575682 C23.82134,17.7617866 23.82134,17.82134 23.82134,17.9255583 L23.82134,18.7593052 C23.82134,18.8635236 23.7468983,18.9826303 23.6277916,19.101737 C23.5086849,19.2208437 23.2853598,19.2952854 23.0173697,19.2952854 L22.8684864,19.2952854 L18.9677419,19.2952854 L18.9677419,20.2779156 L18.9826303,20.2779156 L23.0769231,20.2779156 C23.5682382,20.2779156 24,20.1736973 24.3870968,20.0099256 C24.9975186,19.7121588 25.2952854,19.3548387 25.2952854,18.8337469 L25.2952854,17.7915633 C25.2952854,17.3746898 24.9528536,17.0173697 24.2977667,16.7493797 C23.955335,16.630273 23.5235732,16.5558313 23.0769231,16.5558313 L21.3647643,16.5558313 C20.7841191,16.5558313 20.516129,16.3920596 20.4416873,15.9900744 L20.4416873,15.8709677 L20.4416873,15.2307692 L20.4416873,15.1116625 C20.516129,14.8138958 20.6650124,14.7394541 21.1712159,14.6947891 L21.2903226,14.6947891 L25.3399504,14.6947891 L25.3399504,13.7419355 L21.3647643,13.7419355 C20.7841191,13.7419355 20.4863524,13.7717122 20.2183623,13.8610422 Z" id="Shape"></path>
                                <path d="M35.5682382,18.5955335 L35.5682382,13.7270471 L34.1538462,13.7270471 L34.1240695,18.6104218 C34.1240695,19.5781638 34.853598,20.1141439 36.3126551,20.2183623 C36.4615385,20.2183623 36.5806452,20.248139 36.7295285,20.248139 L40.4367246,20.248139 L40.4367246,19.2952854 L36.7146402,19.2952854 C35.8808933,19.2952854 35.5682382,19.101737 35.5682382,18.5955335 Z" id="Shape"></path>
                                <path d="M33.2754342,18.6699752 L33.2754342,15.3052109 C33.2754342,14.4565757 32.6947891,13.9354839 31.5037221,13.7717122 C31.3548387,13.7419355 31.235732,13.7419355 31.0868486,13.7419355 L28.3771712,13.7419355 C28.2580645,13.7419355 28.1091811,13.7717122 27.9900744,13.7717122 C26.7990074,13.9205955 26.1885856,14.4565757 26.1885856,15.3052109 L26.1885856,18.6699752 C26.1885856,19.4441687 26.6203474,19.9354839 27.5880893,20.1885856 C27.8858561,20.2630273 28.1836228,20.292804 28.4218362,20.292804 L29.9255583,20.292804 L31.0719603,20.2183623 L32.1885856,21.2456576 L33.8263027,21.2456576 L32.4416873,19.9801489 C33.0372208,19.7419355 33.2754342,19.369727 33.2754342,18.6699752 Z M31.9057072,15.3796526 L31.9057072,18.5955335 L31.9057072,18.7444169 C31.8461538,18.9379653 31.7270471,19.101737 31.5334988,19.2059553 L30.5062035,18.2828784 L28.8684864,18.2828784 L30.044665,19.3548387 L28.7493797,19.3548387 C28.1836228,19.3548387 27.8263027,19.1315136 27.751861,18.7444169 C27.751861,18.6997519 27.7220844,18.6401985 27.7220844,18.5955335 L27.7220844,15.3796526 C27.7220844,14.9478908 28.1240695,14.6799007 28.764268,14.6799007 L30.9081886,14.6799007 C31.4739454,14.6799007 31.8312655,14.8883375 31.9057072,15.2605459 L31.9057072,15.3796526 Z" id="Shape"></path>
                                <polygon id="Shape" points="42.3126551 19.9801489 42.044665 19.325062 41.7468983 19.325062 41.7468983 20.2779156 41.9404467 20.2779156 41.9404467 19.5483871 42.2084367 20.2779156 42.3573201 20.2779156 42.6253102 19.5483871 42.6550868 20.2779156 42.8486352 20.2779156 42.8486352 19.325062 42.5508685 19.325062"></polygon>
                                <polygon id="Shape" points="40.7791563 19.4739454 41.0769231 19.4739454 41.0769231 20.2779156 41.0769231 20.2779156 41.2704715 20.2779156 41.2704715 19.4739454 41.5384615 19.4739454 41.5384615 19.3101737 40.7791563 19.3101737"></polygon>
                            </g>
                        </g>
                    </g>
                </g>
            </g>
        </g>
    </g>
</svg>