<?xml version="1.0" encoding="UTF-8" standalone="no"?>
<svg width="50px" height="57px" viewBox="0 0 50 57" version="1.1" xmlns="http://www.w3.org/2000/svg" xmlns:xlink="http://www.w3.org/1999/xlink">
    <!-- Generator: Sketch 41.2 (35397) - http://www.bohemiancoding.com/sketch -->
    <title>node</title>
    <desc>Created with Sketch.</desc>
    <defs>
        <linearGradient x1="0%" y1="46.1309288%" x2="100%" y2="48.3933812%" id="linearGradient-1">
            <stop stop-color="#3900A0" offset="0%"></stop>
            <stop stop-color="#9502FF" offset="100%"></stop>
        </linearGradient>
    </defs>
    <g id="Page-1" stroke="none" stroke-width="1" fill="none" fill-rule="evenodd">
        <g id="Desktop-Landscape" transform="translate(-860.000000, -2600.000000)" fill="url(#linearGradient-1)">
            <g id="Skills-Items-3" transform="translate(259.000000, 2480.000000)">
                <g id="Node-JS" transform="translate(601.000000, 120.000000)">
                    <g id="node">
                        <g id="Lager_1">
                            <g id="Group">
                                <path d="M24.8301887,56.8661074 C24.0377358,56.8661074 23.3396226,56.6939597 22.6415094,56.2348993 L15.7924528,52.1416107 C14.7358491,51.5104027 15.2641509,51.338255 15.6226415,51.2426174 C17.0188679,50.707047 17.2830189,50.6114094 18.6981132,49.8271812 C18.8679245,49.7315436 19.0566038,49.7315436 19.2264151,49.9228188 L24.490566,53.1171141 C24.6603774,53.2127517 24.9245283,53.2127517 25.1132075,53.1171141 L45.6415094,41.1241611 C45.8113208,41.0285235 46,40.7607383 46,40.5885906 L46,16.5644295 C46,16.2966443 45.9056604,16.1244966 45.6415094,16.0288591 L25.1886792,3.94026846 C25.0188679,3.84463087 24.754717,3.84463087 24.5660377,3.94026846 L4.03773585,15.8567114 C3.86792453,15.952349 3.67924528,16.2201342 3.67924528,16.3922819 L3.67924528,40.416443 C3.67924528,40.5885906 3.77358491,40.8563758 4.03773585,40.9520134 L9.66037736,44.2419463 C12.7358491,45.7530201 14.5660377,43.9741611 14.5660377,42.0996644 L14.5660377,18.5345638 C14.5660377,18.1711409 14.8301887,17.9033557 15.1886792,17.9033557 L17.8301887,17.9033557 C18.1886792,17.9033557 18.4528302,18.1711409 18.4528302,18.5345638 L18.4528302,42.195302 C18.4528302,46.3842282 16.2641509,48.6795302 12.3962264,48.6795302 C11.1698113,48.6795302 10.2830189,48.6795302 7.66037736,47.340604 L2.30188679,44.2228188 C0.981132075,43.4194631 0.113207547,42.0040268 0.113207547,40.3973154 L0.113207547,16.3922819 C0.113207547,14.8812081 0.905660377,13.3701342 2.30188679,12.5667785 L22.8301887,0.554697987 C24.1509434,-0.153020134 25.9056604,-0.153020134 27.1320755,0.554697987 L47.6603774,12.5667785 C48.9811321,13.3701342 49.8490566,14.7855705 49.8490566,16.3922819 L49.8490566,40.416443 C49.8490566,41.9275168 49.0566038,43.4385906 47.6603774,44.2419463 L27.0377358,56.3305369 C26.3207547,56.6939597 25.6226415,56.8661074 24.8301887,56.8661074 Z" id="Shape"></path>
                                <path d="M31.245283,40.3208054 C22.3018868,40.3208054 20.3584906,36.1318792 20.3584906,32.6697987 C20.3584906,32.3063758 20.6226415,32.0385906 20.9811321,32.0385906 L23.6226415,32.0385906 C23.8867925,32.0385906 24.1509434,32.2107383 24.245283,32.5741611 C24.6037736,35.3285235 25.8301887,36.6674497 31.2641509,36.6674497 C35.5660377,36.6674497 37.4150943,35.6919463 37.4150943,33.3775168 C37.4150943,32.0385906 36.8867925,31.0630872 30.1320755,30.3553691 C24.509434,29.8197987 21,28.5765101 21,23.947651 C21,19.7587248 24.509434,17.2721477 30.3962264,17.2721477 C36.9811321,17.2721477 40.2264151,19.5865772 40.6603774,24.5597315 C40.6603774,24.7318792 40.5660377,24.9231544 40.490566,24.9996644 C40.4150943,25.0761745 40.2264151,25.1718121 40.0566038,25.1718121 L37.4150943,25.1718121 C37.1509434,25.1718121 36.8867925,24.9996644 36.7924528,24.7318792 C36.1698113,21.8818792 34.6037736,20.9063758 30.3962264,20.9063758 C25.6603774,20.9063758 25.1320755,22.5895973 25.1320755,23.8328859 C25.1320755,25.3439597 25.754717,25.7838926 32.1509434,26.6828859 C38.4716981,27.4862416 41.4528302,28.7295302 41.4528302,33.1671141 C41.4150943,37.7385906 37.7358491,40.3208054 31.245283,40.3208054 Z" id="Shape"></path>
                            </g>
                        </g>
                    </g>
                </g>
            </g>
        </g>
    </g>
</svg>