<?xml version="1.0" encoding="UTF-8" standalone="no"?>
<svg width="50px" height="61px" viewBox="0 0 50 61" version="1.1" xmlns="http://www.w3.org/2000/svg" xmlns:xlink="http://www.w3.org/1999/xlink">
    <!-- Generator: Sketch 41.2 (35397) - http://www.bohemiancoding.com/sketch -->
    <title>osx</title>
    <desc>Created with Sketch.</desc>
    <defs>
        <linearGradient x1="0%" y1="46.1309288%" x2="100%" y2="48.3933812%" id="linearGradient-1">
            <stop stop-color="#3900A0" offset="0%"></stop>
            <stop stop-color="#9502FF" offset="100%"></stop>
        </linearGradient>
    </defs>
    <g id="Page-1" stroke="none" stroke-width="1" fill="none" fill-rule="evenodd">
        <g id="Desktop-Landscape" transform="translate(-865.000000, -2838.000000)" fill="url(#linearGradient-1)">
            <g id="Skills-Items-3" transform="translate(259.000000, 2480.000000)">
                <g id="OS" transform="translate(606.000000, 358.000000)">
                    <g id="osx">
                        <g id="Layer_1">
                            <g id="Group">
                                <path d="M41.2195122,32.33 C41.097561,24.766 47.4390244,21.106 47.6829268,20.862 C44.1463415,15.738 38.6585366,15.006 36.7073171,14.884 C32.0731707,14.396 27.5609756,17.69 25.2439024,17.69 C22.9268293,17.69 19.2682927,15.006 15.3658537,15.128 C10.2439024,15.25 5.6097561,18.056 2.92682927,22.692 C-2.43902439,31.842 1.58536585,45.384 6.70731707,52.826 C9.26829268,56.486 12.195122,60.512 16.2195122,60.39 C20,60.268 21.4634146,57.95 26.097561,57.95 C30.7317073,57.95 31.9512195,60.39 35.9756098,60.39 C40.1219512,60.268 42.6829268,56.73 45.1219512,53.07 C48.0487805,48.8 49.1463415,44.774 49.2682927,44.53 C49.1463415,44.408 41.2195122,41.48 41.2195122,32.33 Z" id="Shape"></path>
                                <path d="M33.6585366,10.004 C35.7317073,7.442 37.195122,3.904 36.8292683,0.366 C33.7804878,0.488 30.1219512,2.318 28.0487805,4.88 C26.097561,7.076 24.3902439,10.736 24.8780488,14.152 C28.0487805,14.518 31.5853659,12.566 33.6585366,10.004 Z" id="Shape"></path>
                            </g>
                        </g>
                    </g>
                </g>
            </g>
        </g>
    </g>
</svg>