<?xml version="1.0" encoding="UTF-8" standalone="no"?>
<svg width="56px" height="55px" viewBox="0 0 56 55" version="1.1" xmlns="http://www.w3.org/2000/svg" xmlns:xlink="http://www.w3.org/1999/xlink">
    <!-- Generator: Sketch 41.2 (35397) - http://www.bohemiancoding.com/sketch -->
    <title>sass</title>
    <desc>Created with Sketch.</desc>
    <defs>
        <linearGradient x1="0%" y1="46.1309288%" x2="100%" y2="48.3933812%" id="linearGradient-1">
            <stop stop-color="#3900A0" offset="0%"></stop>
            <stop stop-color="#9502FF" offset="100%"></stop>
        </linearGradient>
    </defs>
    <g id="Page-1" stroke="none" stroke-width="1" fill="none" fill-rule="evenodd">
        <g id="Desktop-Landscape" transform="translate(-591.000000, -2602.000000)" fill="url(#linearGradient-1)">
            <g id="Skills-Items-3" transform="translate(259.000000, 2480.000000)">
                <g id="Sass" transform="translate(332.000000, 122.000000)">
                    <g id="sass">
                        <g id="Layer_1">
                            <path d="M53.1594203,35.7902439 C53.0241546,34.7439024 52.8888889,34.1 53.0512077,32.8926829 C53.2135266,31.6853659 53.8628019,30.0756098 53.8628019,29.9414634 C53.8628019,29.8073171 53.7004831,29.1634146 52.3478261,28.895122 C50.9681159,28.6268293 49.8048309,28.7073171 49.6695652,29.0829268 C49.5342995,29.4585366 49.3719807,30.3170732 49.1014493,31.1487805 C49.1014493,31.1756098 49.0743961,31.202439 49.0743961,31.2560976 C48.4521739,32.8658537 46.1797101,36.4609756 44.8270531,38.5268293 C44.3130435,37.4804878 43.8531401,36.5682927 43.7449275,35.8170732 C43.6096618,34.7707317 43.4743961,34.1268293 43.636715,32.9195122 C43.7990338,31.7121951 44.4483092,30.102439 44.4483092,29.9682927 C44.4483092,29.8341463 44.2859903,29.1902439 42.9333333,28.9219512 C41.5536232,28.6536585 40.3903382,28.7341463 40.2550725,29.1097561 C40.1198068,29.4853659 39.9574879,30.3439024 39.6869565,31.1756098 C39.4164251,32.0073171 36.0888889,39.3585366 35.2231884,41.2634146 C34.7903382,42.2292683 34.3845411,43.0073171 34.1140097,43.5439024 L34.1140097,43.5439024 C34.1140097,43.5439024 34.0869565,43.5707317 34.0599034,43.6512195 C33.8164251,44.1073171 33.6811594,44.3487805 33.6811594,44.3487805 L33.6811594,44.3487805 C33.4917874,44.6707317 33.3024155,44.9658537 33.1942029,44.9658537 C33.1130435,44.9658537 32.9777778,43.9731707 33.221256,42.6853659 C33.7082126,40.0292683 35.1961353,35.9243902 35.1690821,35.7902439 C35.1690821,35.7097561 35.3855072,35.0121951 34.3845411,34.4219512 C33.410628,33.8585366 33.0589372,34.4487805 32.9777778,34.4219512 C32.8966184,34.395122 32.8154589,34.6097561 32.8154589,34.6097561 C32.8154589,34.6097561 33.8975845,29.9682927 30.7594203,29.404878 C29.2444444,29.1365854 27.2695652,30.1560976 25.8357488,31.497561 C24.7536232,32.1146341 21.9942029,33.697561 19.7217391,34.9317073 C18.9371981,35.3609756 18.0985507,35.8170732 17.3410628,36.2463415 C17.2869565,36.1926829 17.2328502,36.1390244 17.178744,36.0853659 C13.0666667,31.7121951 5.43768116,28.6268293 5.76231884,22.7780488 C5.8705314,20.6585366 6.62801932,15.0243902 20.3980676,8.23658537 C31.6792271,2.65609756 40.7149758,4.18536585 42.2570048,7.59268293 C44.4753623,12.4487805 37.4415459,21.4902439 25.7275362,22.7780488 C21.2637681,23.2609756 18.9101449,21.5707317 18.342029,20.9268293 C17.7198068,20.2560976 17.6386473,20.2292683 17.3951691,20.3365854 C17.0164251,20.5512195 17.2599034,21.1414634 17.3951691,21.4902439 C17.7468599,22.402439 19.1806763,23.9853659 21.6154589,24.7902439 C23.7797101,25.4878049 29.0009662,25.8634146 35.331401,23.4487805 C42.4193237,20.7121951 47.9652174,13.1463415 46.342029,6.81463415 C44.6917874,0.375609756 33.9246377,-1.74390244 23.7256039,1.85121951 C17.6657005,3.99756098 11.0917874,7.35121951 6.38454106,11.7243902 C0.784541063,16.9292683 -0.10821256,21.4634146 0.243478261,23.3682927 C1.54202899,30.102439 10.9024155,34.4756098 14.6357488,37.7219512 C14.4463768,37.8292683 14.284058,37.9097561 14.1217391,38.0170732 C12.2550725,38.9292683 5.11304348,42.6317073 3.32753623,46.5487805 C1.29855072,50.9756098 3.65217391,54.1682927 5.1942029,54.597561 C10.0096618,55.9121951 14.9333333,53.5243902 17.5845411,49.6073171 C20.2357488,45.6902439 19.9111111,40.5658537 18.6937198,38.2317073 C18.6666667,38.204878 18.6666667,38.1780488 18.6396135,38.1512195 C19.12657,37.8560976 19.6135266,37.5878049 20.1004831,37.2926829 C21.1285024,36.6756098 22.1565217,36.1390244 23.0222222,35.6560976 C22.4541063,36.8634146 22.021256,38.3390244 21.8589372,40.6463415 C21.6695652,43.1414634 22.3188406,46.6292683 23.8879227,48.0780488 C24.4560386,48.6146341 25.105314,48.8829268 25.5381643,48.9634146 C26.9990338,49.2317073 27.6753623,48.0512195 28.4057971,46.6292683 C29.2985507,44.8853659 30.1101449,42.8463415 30.1101449,42.8463415 C30.1101449,42.8463415 29.1091787,48.6146341 31.8415459,49.1243902 C32.8425121,49.3121951 33.8434783,48.104878 34.2763285,47.4878049 L34.2763285,47.4878049 C34.2763285,47.4878049 34.3033816,47.4341463 34.3574879,47.3536585 C34.4657005,47.1926829 34.5198068,47.1121951 34.5198068,47.1121951 C34.5198068,47.1121951 34.5198068,47.1121951 34.5198068,47.0853659 C34.9256039,46.4146341 35.8183575,44.8585366 37.1439614,42.3097561 C38.8753623,38.9829268 40.5256039,34.7439024 40.5256039,34.7439024 C40.5256039,34.7439024 40.6879227,35.8707317 41.1748792,37.802439 C41.4995169,39.0097561 42.2028986,40.2170732 42.7439614,41.3707317 C42.1758454,42.095122 41.52657,42.8731707 41.0666667,43.3829268 C39.7140097,44.8853659 38.036715,46.2268293 37.8202899,46.7634146 C37.5768116,47.3804878 37.6309179,47.8902439 38.1178744,48.4 C38.4695652,48.7487805 39.1188406,48.9097561 39.7951691,48.9902439 C41.0125604,49.1243902 41.8782609,48.9634146 42.284058,48.8292683 C42.9333333,48.695122 43.7178744,48.4536585 44.421256,47.997561 C45.7468599,47.1926829 46.5584541,45.8243902 46.4772947,43.8121951 C46.4502415,42.7658537 46.1256039,41.7463415 45.7468599,40.7804878 C45.8280193,40.6731707 45.8821256,40.5926829 45.963285,40.4853659 C47.6405797,38.1512195 49.3178744,35.6560976 49.9400966,34.7170732 L49.9400966,34.7439024 C49.9400966,34.7439024 50.1024155,35.8707317 50.589372,37.802439 C51.1304348,39.8414634 52.8347826,41.9073171 52.8077295,43.6243902 C52.7536232,46.8707317 50.2376812,47.702439 49.5884058,47.8365854 C48.3439614,48.0780488 48.2357488,48.6682927 49.047343,48.9634146 C49.6154589,49.1512195 51.9690821,49.1512195 53.8628019,47.997561 C55.1884058,47.1926829 56,45.8243902 55.9188406,43.8121951 C55.8647343,40.5658537 53.3758454,37.6146341 53.1594203,35.7902439 Z M13.9864734,48.4804878 C11.8763285,50.7878049 8.90048309,51.6463415 7.62898551,50.9219512 C6.24927536,50.1439024 6.79033816,46.7365854 9.41449275,44.295122 C11.010628,42.8195122 13.0666667,41.4512195 14.4193237,40.5926829 C14.7169082,40.404878 15.1768116,40.1365854 15.7449275,39.8146341 C15.826087,39.7609756 15.8801932,39.7341463 15.8801932,39.7341463 L15.8801932,39.7341463 C15.9884058,39.6804878 16.0966184,39.6 16.2048309,39.5463415 C17.1516908,43.0073171 16.2318841,46.0658537 13.9864734,48.4804878 Z M28.8927536,39.0634146 C28.2164251,40.7268293 26.7826087,45.0463415 25.9169082,44.6439024 C25.1594203,44.295122 24.915942,40.7268293 25.9710145,37.5073171 C26.5120773,35.8707317 27.7294686,34.0195122 28.4057971,33.3487805 C29.4879227,32.2487805 30.6512077,32.0609756 30.9487923,32.6243902 C31.27343,33.3487805 29.2985507,38.0439024 28.8927536,39.0634146 Z M40.7961353,47.004878 C40.4985507,47.1121951 40.2280193,47.1658537 40.1198068,47.0585366 C40.0386473,46.9780488 40.2280193,46.8170732 40.2280193,46.8170732 C40.2280193,46.8170732 41.715942,45.3682927 42.284058,44.697561 C42.6357488,44.295122 43.0144928,43.8926829 43.447343,43.4365854 L43.447343,43.5170732 C43.447343,45.5560976 41.6077295,46.602439 40.7961353,47.004878 Z" id="Shape"></path>
                        </g>
                    </g>
                </g>
            </g>
        </g>
    </g>
</svg>