<?xml version="1.0" encoding="UTF-8" standalone="no"?>
<svg width="7px" height="7px" viewBox="0 0 7 7" version="1.1" xmlns="http://www.w3.org/2000/svg" xmlns:xlink="http://www.w3.org/1999/xlink">
    <!-- Generator: Sketch 41.2 (35397) - http://www.bohemiancoding.com/sketch -->
    <title>Shape</title>
    <desc>Created with Sketch.</desc>
    <defs>
        <linearGradient x1="0%" y1="46.1309288%" x2="100%" y2="48.3933812%" id="linearGradient-1">
            <stop stop-color="#3900A0" offset="0%"></stop>
            <stop stop-color="#9502FF" offset="100%"></stop>
        </linearGradient>
    </defs>
    <g id="Page-1" stroke="none" stroke-width="1" fill="none" fill-rule="evenodd">
        <g id="Desktop-Landscape" transform="translate(-1080.000000, -3040.000000)" fill="url(#linearGradient-1)">
            <g id="video" transform="translate(1047.000000, 3015.000000)">
                <g id="Layer_1">
                    <path d="M36.0526944,25.0812 C34.3609412,25.0812 32.9846536,26.462 32.9846536,28.1593 C32.9846536,29.8566 34.3610408,31.2376 36.0526944,31.2376 C37.7445474,31.2376 39.120835,29.8567 39.120835,28.1593 C39.120835,26.462 37.7444477,25.0812 36.0526944,25.0812 Z M36.0526944,29.1854 C35.4888431,29.1854 35.0301471,28.7252 35.0301471,28.1593 C35.0301471,27.5936 35.4888431,27.1334 36.0526944,27.1334 C36.6166454,27.1334 37.0753415,27.5936 37.0753415,28.1593 C37.0753415,28.725 36.6166454,29.1854 36.0526944,29.1854 Z" id="Shape"></path>
                </g>
            </g>
        </g>
    </g>
</svg>