<?xml version="1.0" encoding="UTF-8" standalone="no"?>
<svg width="61px" height="56px" viewBox="0 0 61 56" version="1.1" xmlns="http://www.w3.org/2000/svg" xmlns:xlink="http://www.w3.org/1999/xlink">
    <!-- Generator: Sketch 41.2 (35397) - http://www.bohemiancoding.com/sketch -->
    <title>sketch</title>
    <desc>Created with Sketch.</desc>
    <defs>
        <linearGradient x1="0%" y1="46.1309288%" x2="100%" y2="48.3933812%" id="linearGradient-1">
            <stop stop-color="#3900A0" offset="0%"></stop>
            <stop stop-color="#9502FF" offset="100%"></stop>
        </linearGradient>
    </defs>
    <g id="Page-1" stroke="none" stroke-width="1" fill="none" fill-rule="evenodd">
        <g id="Desktop-Landscape" transform="translate(-588.000000, -2480.000000)" fill="url(#linearGradient-1)">
            <g id="Skills-Items-3" transform="translate(259.000000, 2480.000000)">
                <g id="Sketch" transform="translate(329.000000, 0.000000)">
                    <g id="sketch">
                        <g id="Shape">
                            <path d="M60.8978224,17.8397059 C60.9080402,17.8088235 60.918258,17.7882353 60.918258,17.7573529 C60.9386935,17.6338235 60.9284757,17.5102941 60.9080402,17.3867647 C60.8978224,17.3558824 60.8876047,17.3352941 60.8773869,17.3044118 C60.8569514,17.2426471 60.8467337,17.1808824 60.8160804,17.1294118 C60.7956449,17.0882353 60.7649916,17.0573529 60.7445561,17.0264706 C60.7343384,17.0058824 60.7343384,16.9852941 60.7139028,16.9647059 L52.5703518,5.47647059 C52.4579564,5.31176471 52.2944724,5.20882353 52.1309883,5.13676471 C52.018593,4.88970588 51.8346734,4.67352941 51.5690117,4.56029412 L41.5249581,0.185294118 C41.3921273,0.123529412 41.238861,0.0926470588 41.0958124,0.0926470588 L19.9246231,0.0926470588 C19.7713568,0.0926470588 19.6283082,0.123529412 19.4954774,0.185294118 L9.45142379,4.56029412 C9.1959799,4.67352941 9.00184255,4.87941176 8.88944724,5.13676471 C8.72596315,5.20882353 8.56247906,5.32205882 8.45008375,5.47647059 L0.296314908,16.9647059 C0.286097152,16.9852941 0.286097152,17.0058824 0.265661642,17.0264706 C0.245226131,17.0573529 0.214572864,17.0882353 0.194137353,17.1294118 C0.163484087,17.1911765 0.153266332,17.2426471 0.132830821,17.3044118 C0.122613065,17.3352941 0.11239531,17.3558824 0.102177554,17.3867647 C0.0817420436,17.5102941 0.0715242881,17.6338235 0.091959799,17.7573529 C0.091959799,17.7882353 0.102177554,17.8088235 0.11239531,17.8397059 C0.132830821,17.9323529 0.163484087,18.025 0.214572864,18.1176471 C0.235008375,18.1485294 0.245226131,18.1794118 0.265661642,18.2102941 C0.286097152,18.2308824 0.286097152,18.2617647 0.306532663,18.2823529 L29.6314908,55.4955882 C29.6417085,55.5058824 29.6519263,55.5058824 29.6621441,55.5161765 C29.7541039,55.6294118 29.8664992,55.7117647 29.9891122,55.7838235 C30.0095477,55.7941176 30.0299832,55.8044118 30.0504188,55.8044118 C30.1832496,55.8661765 30.3262982,55.9073529 30.4795645,55.9073529 C30.6328308,55.9073529 30.7758794,55.8661765 30.9087102,55.8044118 C30.9291457,55.7941176 30.9495812,55.7941176 30.9700168,55.7838235 C31.0926298,55.7220588 31.2050251,55.6294118 31.2969849,55.5161765 C31.3072027,55.5058824 31.3174204,55.5058824 31.3276382,55.4955882 L60.6525963,18.2823529 C60.6730318,18.2617647 60.6832496,18.2308824 60.6934673,18.2102941 C60.7139028,18.1794118 60.7343384,18.1485294 60.7445561,18.1176471 C60.8365159,18.025 60.8773869,17.9323529 60.8978224,17.8397059 Z M20.1494137,2.275 L40.8812395,2.275 L48.6671692,5.67205882 L40.8301508,9.94411765 L20.2005025,9.94411765 L12.3634841,5.67205882 L20.1494137,2.275 Z M17.1964824,29.6367647 L43.8341709,29.6367647 L30.5102178,52.6338235 L17.1964824,29.6367647 Z M17.2373534,27.4441176 L21.0383585,12.1264706 L40.0127303,12.1264706 L44.4268007,27.4441176 L17.2373534,27.4441176 Z M3.14706868,16.7176471 L10.0951424,6.91764706 L18.9130653,11.7147059 L15.2244556,26.6 L3.20837521,16.7485294 C3.1879397,16.7382353 3.16750419,16.7279412 3.14706868,16.7176471 Z M14.2333333,28.6279412 C14.2435511,28.7926471 14.2844221,28.9470588 14.3661642,29.1014706 L21.9375209,42.175 L5.8241206,21.7205882 L14.2333333,28.6279412 Z M39.0931323,42.1647059 L46.6644891,29.0911765 C46.7462312,28.9470588 46.7871022,28.7823529 46.7973199,28.6176471 L55.2065327,21.7205882 L39.0931323,42.1647059 Z M46.3273032,26.1882353 L42.158459,11.7044118 L50.9355109,6.92794118 L57.8835846,16.7279412 C57.8631491,16.7382353 57.8427136,16.7485294 57.8222781,16.7588235 L46.3273032,26.1882353 Z"></path>
                        </g>
                    </g>
                </g>
            </g>
        </g>
    </g>
</svg>