<?xml version="1.0" encoding="UTF-8" standalone="no"?>
<svg width="61px" height="41px" viewBox="0 0 61 41" version="1.1" xmlns="http://www.w3.org/2000/svg" xmlns:xlink="http://www.w3.org/1999/xlink">
    <!-- Generator: Sketch 41.2 (35397) - http://www.bohemiancoding.com/sketch -->
    <title>sound2</title>
    <desc>Created with Sketch.</desc>
    <defs>
        <linearGradient x1="0%" y1="46.1309288%" x2="100%" y2="48.3933812%" id="linearGradient-1">
            <stop stop-color="#3900A0" offset="0%"></stop>
            <stop stop-color="#9502FF" offset="100%"></stop>
        </linearGradient>
    </defs>
    <g id="Page-1" stroke="none" stroke-width="1" fill="none" fill-rule="evenodd">
        <g id="Desktop-Landscape" transform="translate(-576.000000, -2974.000000)" fill="url(#linearGradient-1)">
            <g id="sound2" transform="translate(576.000000, 2974.000000)">
                <g id="Capa_1">
                    <g id="Group">
                        <g id="Combined-Shape">
                            <path d="M0,0.158468254 L7.13667027,0.158468254 L7.13667027,2.81468254 L0,2.81468254 L0,0.158468254 Z M0,4.65122222 L7.13667027,4.65122222 L7.13667027,7.30613492 L0,7.30613492 L0,4.65122222 Z M0,9.143 L7.13667027,9.143 L7.13667027,11.7992143 L0,11.7992143 L0,9.143 Z M10.7346811,9.143 L17.8703622,9.143 L17.8703622,11.7992143 L10.7346811,11.7992143 L10.7346811,9.143 Z M0,13.6347778 L7.13667027,13.6347778 L7.13667027,16.2906667 L0,16.2906667 L0,13.6347778 Z M0,18.1265556 L7.13667027,18.1265556 L7.13667027,20.7827698 L0,20.7827698 L0,18.1265556 Z M10.7346811,0.158468254 L17.8703622,0.158468254 L17.8703622,2.81468254 L10.7346811,2.81468254 L10.7346811,0.158468254 Z M10.7346811,4.65122222 L17.8703622,4.65122222 L17.8703622,7.30613492 L10.7346811,7.30613492 L10.7346811,4.65122222 Z M32.2007459,0.158468254 L39.3403838,0.158468254 L39.3403838,2.81468254 L32.2007459,2.81468254 L32.2007459,0.158468254 Z M32.2007459,4.65122222 L39.3403838,4.65122222 L39.3403838,7.30613492 L32.2007459,7.30613492 L32.2007459,4.65122222 Z M32.2007459,9.143 L39.3403838,9.143 L39.3403838,11.7992143 L32.2007459,11.7992143 L32.2007459,9.143 Z M42.9341081,0.158468254 L50.0697892,0.158468254 L50.0697892,2.81468254 L42.9341081,2.81468254 L42.9341081,0.158468254 Z M42.9341081,4.65122222 L50.0697892,4.65122222 L50.0697892,7.30613492 L42.9341081,7.30613492 L42.9341081,4.65122222 Z M42.9341081,9.143 L50.0697892,9.143 L50.0697892,11.7992143 L42.9341081,11.7992143 L42.9341081,9.143 Z M53.6678,0.158468254 L60.8034811,0.158468254 L60.8034811,2.81468254 L53.6678,2.81468254 L53.6678,0.158468254 Z M53.6678,4.65122222 L60.8034811,4.65122222 L60.8034811,7.30613492 L53.6678,7.30613492 L53.6678,4.65122222 Z M53.6678,9.143 L60.8034811,9.143 L60.8034811,11.7992143 L53.6678,11.7992143 L53.6678,9.143 Z M53.6678,13.6347778 L60.8034811,13.6347778 L60.8034811,16.2906667 L53.6678,16.2906667 L53.6678,13.6347778 Z"></path>
                        </g>
                        <polygon id="Shape" points="60.8034811 23.7250079 51.224173 18.9995952 51.224173 22.3222222 46.4480378 22.3222222 40.4308 15.5725159 32.5017892 26.6617143 24.5480486 0.158468254 20.3951027 29.0986111 14.8777351 13.5576587 9.67954595 22.3222222 0 22.3222222 0 25.1476429 11.3206108 25.1476429 14.2252 20.2595317 21.5834486 40.9729921 25.5418541 13.411881 31.4298378 33.049254 40.6734811 20.126119 45.148573 25.1476429 51.224173 25.1476429 51.224173 28.452373"></polygon>
                    </g>
                </g>
            </g>
        </g>
    </g>
</svg>