<?xml version="1.0" encoding="UTF-8" standalone="no"?>
<svg width="66px" height="55px" viewBox="0 0 66 55" version="1.1" xmlns="http://www.w3.org/2000/svg" xmlns:xlink="http://www.w3.org/1999/xlink">
    <!-- Generator: Sketch 41.2 (35397) - http://www.bohemiancoding.com/sketch -->
    <title>sound1</title>
    <desc>Created with Sketch.</desc>
    <defs>
        <linearGradient x1="0%" y1="46.1309288%" x2="100%" y2="48.3933812%" id="linearGradient-1">
            <stop stop-color="#3900A0" offset="0%"></stop>
            <stop stop-color="#9502FF" offset="100%"></stop>
        </linearGradient>
    </defs>
    <g id="Page-1" stroke="none" stroke-width="1" fill="none" fill-rule="evenodd">
        <g id="Desktop-Landscape" transform="translate(-572.000000, -2960.000000)" fill="url(#linearGradient-1)">
            <g id="sound1" transform="translate(572.000000, 2960.000000)">
                <g id="Capa_1">
                    <g id="Group">
                        <path d="M60.649,47.213 L60.241,46.258 L59.833,47.3 L59.183,45.391 L58.366,47.3 L58.366,35.668 L56.981,41.743 L56.084,31.066 L55.595,35.927 L55.024,27.68 L54.209,33.323 L54.209,26.378 L53.23,31.847 L52.743,21.778 L52.417,29.677 L51.929,25.597 L51.276,27.333 L50.951,23.687 L50.299,29.59 L49.402,21.691 L48.914,28.983 L48.099,18.913 L47.528,21.17 L47.122,18.739 L46.469,20.476 L45.573,12.316 L44.921,14.313 L43.937,9.8 L43.531,17.092 L41.655,9.8 L41.33,21.605 L40.678,9.453 L39.293,14.747 L39.293,9.018 L38.314,14.14 L37.824,11.622 C37.824,11.622 36.682,24.99 36.601,25.338 C36.519,25.685 36.113,14.314 36.113,14.314 L34.318,25.598 L33.668,17.439 L33.178,20.911 L32.607,19.262 L32.037,22.647 L32.037,20.997 L30.895,26.9 L30.407,23.601 L29.592,28.636 L29.266,27.333 L28.124,31.413 L27.717,26.031 L26.169,36.882 L25.517,33.844 L24.049,38.011 L22.093,35.58 L21.033,39.833 L20.381,44.435 L19.32,36.362 L18.178,42.7 L17.119,36.71 L16.304,44.696 L15.571,40.008 L14.103,45.911 L13.613,43.133 L13.125,46.345 L12.554,43.827 L11.74,46.258 L11.169,44.436 L10.191,46.172 C10.191,46.172 9.294,38.88 9.213,38.619 C9.131,38.359 7.908,46.431 7.908,46.431 L7.419,42.872 L6.196,46.257 L5.706,44 L4.973,46.82 L4.647,45.128 L3.751,47.3 L3.261,45.13 L2.691,48.516 L61.545,48.516 L60.649,47.213 Z" id="Shape"></path>
                        <polygon id="Shape" points="63.108 4.651 59.549 4.651 59.549 6.735 63.108 6.735 63.108 11.943 59.549 11.943 59.549 14.026 63.108 14.026 63.108 19.235 59.549 19.235 59.549 21.318 63.108 21.318 63.108 26.526 59.549 26.526 59.549 28.609 63.108 28.609 63.108 33.818 59.549 33.818 59.549 35.901 63.108 35.901 63.108 41.109 59.549 41.109 59.549 43.193 63.108 43.193 63.108 50.079 0 50.079 0 52.162 3.646 52.162 3.646 54.245 5.729 54.245 5.729 52.162 10.938 52.162 10.938 54.245 13.021 54.245 13.021 52.162 18.229 52.162 18.229 54.245 20.312 54.245 20.312 52.162 25.521 52.162 25.521 54.245 27.604 54.245 27.604 52.162 32.812 52.162 32.812 54.245 34.896 54.245 34.896 52.162 40.104 52.162 40.104 54.245 42.188 54.245 42.188 52.162 47.396 52.162 47.396 54.245 49.479 54.245 49.479 52.162 54.688 52.162 54.688 54.245 56.771 54.245 56.771 52.162 65.191 52.162 65.191 0.946 63.108 0.946"></polygon>
                    </g>
                </g>
            </g>
        </g>
    </g>
</svg>