<?xml version="1.0" encoding="UTF-8" standalone="no"?>
<svg width="59px" height="59px" viewBox="0 0 59 59" version="1.1" xmlns="http://www.w3.org/2000/svg" xmlns:xlink="http://www.w3.org/1999/xlink">
    <!-- Generator: Sketch 41.2 (35397) - http://www.bohemiancoding.com/sketch -->
    <title>sound3</title>
    <desc>Created with Sketch.</desc>
    <defs>
        <linearGradient x1="0%" y1="46.1309288%" x2="100%" y2="48.3933812%" id="linearGradient-1">
            <stop stop-color="#3900A0" offset="0%"></stop>
            <stop stop-color="#9502FF" offset="100%"></stop>
        </linearGradient>
    </defs>
    <g id="Page-1" stroke="none" stroke-width="1" fill="none" fill-rule="evenodd">
        <g id="Desktop-Landscape" transform="translate(-577.000000, -2963.000000)">
            <g id="sound3" transform="translate(577.000000, 2963.000000)">
                <g id="Capa_1">
                    <circle id="background_75_" fill="url(#linearGradient-1)" cx="29.5" cy="29.5" r="29.5"></circle>
                    <path d="M32.2663164,40.5048828 C32.234627,40.5048828 32.2025918,40.5035 32.1705566,40.5007344 C31.6602988,40.4562539 31.2491426,40.0639961 31.1806934,39.5565039 L29.1186895,24.2629434 L26.8658574,32.2183789 C26.7261934,32.7116973 26.2642187,33.0441484 25.7506191,33.0130352 C25.2386328,32.9841113 24.815377,32.6034922 24.732293,32.097498 L24.0942402,28.2111035 L21.5257812,34.5222598 C21.3547734,34.9424043 20.9413125,35.2107852 20.4885566,35.2041016 C20.0348789,35.1944219 19.634209,34.905875 19.481293,34.4788164 L17.4272402,28.7445234 L16.452127,30.1302168 C16.247125,30.4215293 15.9131758,30.594957 15.5568711,30.594957 L9.44921875,30.594957 C8.84458398,30.594957 8.35449219,30.1048652 8.35449219,29.5002305 C8.35449219,28.8955957 8.84458398,28.4055039 9.44921875,28.4055039 L14.9884199,28.4055039 L16.8508379,25.758916 C17.0861465,25.4247363 17.4881992,25.2493496 17.8930176,25.3040859 C18.2980664,25.3589375 18.6388145,25.6349238 18.7766348,26.0196914 L20.5768262,31.045293 L23.5308594,23.7867949 C23.7156953,23.3326562 24.1803203,23.0563242 24.6670703,23.1116367 C25.1542813,23.166373 25.5457324,23.5383496 25.6251289,24.0221035 L26.0971289,26.8970859 L28.4466426,18.6004414 C28.5880352,18.1012461 29.0598047,17.769832 29.5775527,17.806707 C30.0949551,17.8434668 30.5155605,18.238375 30.5848164,18.7524355 L32.6994824,34.4361797 L35.2556113,26.4028457 C35.4049551,25.9333809 35.847916,25.6213262 36.3419258,25.640916 C36.834207,25.6602754 37.2529688,26.006209 37.3649766,26.4860449 L38.3065566,30.521668 L39.1017891,28.9948125 C39.2903125,28.6327461 39.6645938,28.4057344 40.0727539,28.4057344 L47.015625,28.4057344 C47.6202598,28.4057344 48.1103516,28.8958262 48.1103516,29.5004609 C48.1103516,30.1050957 47.6202598,30.5951875 47.015625,30.5951875 L40.7369648,30.5951875 L38.8830742,34.1546621 C38.6715039,34.560748 38.2296953,34.7921387 37.7752109,34.7350977 C37.3208418,34.6777109 36.9501328,34.3437617 36.8460762,33.8975742 L36.1364629,30.8560781 L33.308957,39.7424922 C33.1633008,40.1993965 32.7388926,40.5048828 32.2663164,40.5048828 Z" id="Shape" fill="#FFFFFF"></path>
                </g>
            </g>
        </g>
    </g>
</svg>