<?xml version="1.0" encoding="UTF-8" standalone="no"?>
<svg width="56px" height="52px" viewBox="0 0 56 52" version="1.1" xmlns="http://www.w3.org/2000/svg" xmlns:xlink="http://www.w3.org/1999/xlink">
    <!-- Generator: Sketch 41.2 (35397) - http://www.bohemiancoding.com/sketch -->
    <title>video</title>
    <desc>Created with Sketch.</desc>
    <defs>
        <linearGradient x1="0%" y1="46.1309288%" x2="100%" y2="48.3933812%" id="linearGradient-1">
            <stop stop-color="#3900A0" offset="0%"></stop>
            <stop stop-color="#9502FF" offset="100%"></stop>
        </linearGradient>
    </defs>
    <g id="Page-1" stroke="none" stroke-width="1" fill="none" fill-rule="evenodd">
        <g id="Desktop-Landscape" transform="translate(-581.000000, -2963.000000)" fill="url(#linearGradient-1)">
            <g id="Skills-Items-3" transform="translate(259.000000, 2480.000000)">
                <g id="Production" transform="translate(322.000000, 481.000000)">
                    <g id="video" transform="translate(0.000000, 2.000000)">
                        <g id="Capa_1">
                            <path d="M32,8 C29.79375,8 28,9.79375 28,12 C28,14.20625 29.79375,16 32,16 C34.20625,16 36,14.20625 36,12 C36,9.79375 34.20625,8 32,8 Z M52,20 L44,28 L44,24 C44,22.0875 42.65625,20.4875 40.8625,20.09375 C42.8125,17.9625 44,15.11875 44,12 C44,5.375 38.625,0 32,0 C25.68125,0 20.5,4.8875 20.03125,11.0875 C17.90625,9.16875 15.0875,8 12,8 C5.375,8 0,13.375 0,20 C0,26.625 5.375,32 12,32 L8,32 L8,40 L12,40 L12,48 C12,50.20625 13.79375,52 16,52 L40,52 C42.20625,52 44,50.20625 44,48 L44,44 L52,52 L56,52 L56,20 L52,20 Z M12,16 C9.79375,16 8,17.79375 8,20 C8,22.20625 9.79375,24 12,24 L12,28 C7.58125,28 4,24.41875 4,20 C4,15.58125 7.58125,12 12,12 C16.41875,12 20,15.58125 20,20 L16,20 C16,17.79375 14.20625,16 12,16 Z M32,40 L24,40 L24,32 L32,32 L32,40 Z M40,33.175 C37.90625,31.08125 35.60625,28.78125 35.4125,28.5875 C35.05,28.225 34.55,28 34,28 L22,28 C20.89375,28 20,28.89375 20,30 L20,42 C20,42.51875 20.2,42.99375 20.525,43.35 C20.55625,43.3875 22.96875,45.8 25.175,48 L18,48 C16.89375,48 16,47.10625 16,46 L16,26 C16,24.89375 16.89375,24 18,24 L38,24 C39.10625,24 40,24.89375 40,26 L40,33.175 Z M32,20 C27.58125,20 24,16.41875 24,12 C24,7.58125 27.58125,4 32,4 C36.41875,4 40,7.58125 40,12 C40,16.41875 36.41875,20 32,20 Z M52,40 L48,36 L48.00625,27.99375 L52,24 L52,40 Z" id="Shape"></path>
                        </g>
                    </g>
                </g>
            </g>
        </g>
    </g>
</svg>