<?xml version="1.0" encoding="UTF-8" standalone="no"?>
<svg width="61px" height="49px" viewBox="0 0 61 49" version="1.1" xmlns="http://www.w3.org/2000/svg" xmlns:xlink="http://www.w3.org/1999/xlink">
    <!-- Generator: Sketch 41.2 (35397) - http://www.bohemiancoding.com/sketch -->
    <title>Layer_1</title>
    <desc>Created with Sketch.</desc>
    <defs>
        <linearGradient x1="0%" y1="46.1309288%" x2="100%" y2="48.3933812%" id="linearGradient-1">
            <stop stop-color="#3900A0" offset="0%"></stop>
            <stop stop-color="#9502FF" offset="100%"></stop>
        </linearGradient>
    </defs>
    <g id="Page-1" stroke="none" stroke-width="1" fill="none" fill-rule="evenodd">
        <g id="Desktop-Landscape" transform="translate(-1047.000000, -3015.000000)" fill="url(#linearGradient-1)">
            <g id="video" transform="translate(1047.000000, 3015.000000)">
                <g id="Layer_1">
                    <path d="M59.9773529,22.0438 L56.0822239,22.0438 C54.3121275,22.0438 52.8719493,23.4887 52.8719493,25.2646 L52.8719493,25.5637 L48.8349853,25.5637 L48.8349853,22.6011 C51.0353709,20.7106 52.4339853,17.9061 52.4339853,14.7786 C52.4339853,9.0993 47.8286846,4.479 42.1680441,4.479 C36.5074036,4.479 31.9022026,9.0994 31.9022026,14.7786 C31.9022026,15.8776 32.076531,16.9362 32.3956846,17.9301 L29.0945082,17.9301 C29.3154837,16.9143 29.433098,15.8599 29.433098,14.7786 C29.433098,6.6374 22.8314428,0.014 14.7167484,0.014 C6.60205392,0.0139 0,6.6374 0,14.7787 C0,19.9961 2.71141013,24.5902 6.79472222,27.217 L6.79472222,47.9601 C6.79472222,48.5268 7.25242157,48.9862 7.81746895,48.9862 L47.8121389,48.9862 C48.3770866,48.9862 48.8348856,48.5266 48.8348856,47.9601 L48.8348856,41.3513 L52.8718497,41.3513 L52.8718497,41.6504 C52.8718497,43.4263 54.3119281,44.8712 56.0820245,44.8712 L59.9772533,44.8712 C60.542201,44.8712 61,44.4117 61,43.8451 L61,23.07 C61.0000997,22.5033 60.5424003,22.0438 59.9773529,22.0438 Z M2.04549346,14.7787 C2.04549346,7.769 7.72965686,2.0662 14.7163497,2.0662 C21.7031422,2.0662 27.3872059,7.7691 27.3872059,14.7787 C27.3872059,21.7884 21.7030425,27.4911 14.7163497,27.4911 C7.72965686,27.4911 2.04549346,21.7884 2.04549346,14.7787 Z M46.7893922,46.9337 L8.84021569,46.9337 L8.84021569,28.3139 C10.6411111,29.1039 12.6283954,29.5434 14.7163497,29.5434 C21.0061275,29.5434 26.3860882,25.5636 28.4878971,19.9824 L33.3137745,19.9824 C35.0991209,23.0282 38.3984036,25.0782 42.1676454,25.0782 C43.8294967,25.0782 45.398951,24.6775 46.7891928,23.9711 L46.7891928,46.9337 L46.7893922,46.9337 Z M42.1679444,23.026 C37.6350065,23.026 33.9473971,19.3263 33.9473971,14.7786 C33.9473971,10.2309 37.6349069,6.5312 42.1679444,6.5312 C46.7007827,6.5312 50.3884918,10.2309 50.3884918,14.7786 C50.3884918,19.3263 46.700683,23.026 42.1679444,23.026 Z M52.8718497,39.2989 L48.8348856,39.2989 L48.8348856,27.616 L52.8718497,27.616 L52.8718497,39.2989 Z M58.9546062,42.8188 L56.0823235,42.8188 C55.4400294,42.8188 54.9175425,42.2947 54.9175425,41.6502 L54.9175425,40.3248 L54.9175425,26.5898 L54.9175425,25.2647 C54.9175425,24.6204 55.4399297,24.0961 56.0823235,24.0961 L58.9546062,24.0961 L58.9546062,42.8188 Z" id="Shape"></path>
                    <path d="M14.7163497,9.671 C11.9091536,9.671 9.6253415,11.9623 9.6253415,14.7787 C9.6253415,17.5951 11.9090539,19.8864 14.7163497,19.8864 C17.5235458,19.8864 19.8074575,17.5952 19.8074575,14.7787 C19.8075572,11.9622 17.5236454,9.671 14.7163497,9.671 Z M14.7163497,17.8341 C13.0371552,17.8342 11.670835,16.4635 11.670835,14.7787 C11.670835,13.0937 13.0371552,11.7232 14.7163497,11.7232 C16.3957435,11.7232 17.7619641,13.094 17.7619641,14.7787 C17.7619641,16.4634 16.3958431,17.8341 14.7163497,17.8341 Z" id="Shape"></path>
                    <path d="M22.8939379,6.5745 C22.494348,6.1738 21.8469706,6.1738 21.4474804,6.5745 L19.1421389,8.8874 C18.7427484,9.2881 18.7427484,9.9378 19.1421389,10.3384 C19.3417843,10.5388 19.6035261,10.639 19.865268,10.639 C20.1269101,10.639 20.3887516,10.5389 20.5885964,10.3384 L22.8939379,8.0254 C23.2934281,7.6249 23.2934281,6.9751 22.8939379,6.5745 Z" id="Shape"></path>
                    <path d="M10.2909592,19.2189 C9.89136928,18.8182 9.24399183,18.8182 8.84430229,19.2189 L6.53896078,21.5318 C6.13966993,21.9325 6.13966993,22.5822 6.53896078,22.9828 C6.73880556,23.1831 7.00054739,23.2834 7.26228922,23.2834 C7.52403105,23.2834 7.78577288,23.1832 7.98561765,22.9828 L10.2909592,20.6699 C10.69025,20.2692 10.69025,19.6195 10.2909592,19.2189 Z" id="Shape"></path>
                    <path d="M22.8939379,21.5318 L20.5884967,19.2189 C20.1889069,18.8182 19.5415294,18.8182 19.1420392,19.2189 C18.742549,19.6195 18.7426487,20.2693 19.1420392,20.6699 L21.4473807,22.9828 C21.6472255,23.1831 21.9089673,23.2834 22.1707092,23.2834 C22.432451,23.2834 22.6941928,23.1832 22.8940376,22.9828 C23.2934281,22.5822 23.2934281,21.9325 22.8939379,21.5318 Z" id="Shape"></path>
                    <path d="M10.2909592,8.8875 L7.98561765,6.5746 C7.58602778,6.1739 6.93865033,6.1739 6.53916013,6.5746 C6.13966993,6.9753 6.13976961,7.625 6.53916013,8.0256 L8.84440196,10.3386 C9.04414706,10.5389 9.30598856,10.6392 9.56773039,10.6392 C9.82947222,10.6392 10.0912141,10.5391 10.2910588,10.3386 C10.69025,9.9378 10.69025,9.288 10.2909592,8.8875 Z" id="Shape"></path>
                    <path d="M46.599415,17.7737 L45.4525752,16.6231 C45.0528856,16.2224 44.4055082,16.2224 44.006018,16.6231 C43.6066275,17.0238 43.6066275,17.6735 44.006018,18.0741 L45.1527582,19.2247 C45.3526029,19.425 45.6143448,19.5253 45.8760866,19.5253 C46.1378284,19.5253 46.3995703,19.4251 46.599415,19.2247 C46.9988056,18.824 46.9988056,18.1742 46.599415,17.7737 Z" id="Shape"></path>
                    <path d="M40.3297712,11.4833 L39.1829314,10.3327 C38.7832418,9.932 38.1358644,9.932 37.7363742,10.3327 C37.3369837,10.7334 37.3369837,11.3831 37.7363742,11.7837 L38.8831144,12.9343 C39.0829592,13.1346 39.344701,13.2349 39.6064428,13.2349 C39.8681846,13.2349 40.1299265,13.1347 40.3297712,12.9343 C40.7292614,12.5336 40.7292614,11.884 40.3297712,11.4833 Z" id="Shape"></path>
                    <path d="M40.3296716,16.623 C39.929982,16.2223 39.2826046,16.2223 38.8831144,16.623 L37.7362745,17.7736 C37.336884,18.1742 37.336884,18.824 37.7362745,19.2246 C37.9359199,19.4249 38.1976618,19.5252 38.4595033,19.5252 C38.7210458,19.5252 38.9829869,19.425 39.1828317,19.2246 L40.3296716,18.074 C40.7291618,17.6734 40.7291618,17.0236 40.3296716,16.623 Z" id="Shape"></path>
                    <path d="M46.599415,10.3327 C46.1998252,9.932 45.552348,9.932 45.1528578,10.3327 L44.006018,11.4833 C43.6066275,11.884 43.6066275,12.5338 44.006018,12.9343 C44.2056634,13.1347 44.4675049,13.2349 44.7292467,13.2349 C44.9909886,13.2349 45.2527304,13.1347 45.4525752,12.9343 L46.599415,11.7837 C46.9988056,11.383 46.9988056,10.7334 46.599415,10.3327 Z" id="Shape"></path>
                    <path d="M40.204183,33.6307 L15.4253252,33.6307 C14.8603775,33.6307 14.4025784,34.0903 14.4025784,34.6568 L14.4025784,41.199 C14.4025784,41.7657 14.8602778,42.2251 15.4253252,42.2251 L40.204183,42.2251 C40.7691307,42.2251 41.2269297,41.7656 41.2269297,41.199 L41.2269297,34.6568 C41.2270294,34.0902 40.7691307,33.6307 40.204183,33.6307 Z M16.4481716,40.1729 L16.4481716,35.6829 L39.1815359,35.6829 L39.1815359,40.1729 L16.4481716,40.1729 Z" id="Shape"></path>
                    <path d="M28.6893366,25.0812 C26.9975833,25.0812 25.6211961,26.462 25.6211961,28.1593 C25.6211961,29.8566 26.9975833,31.2376 28.6893366,31.2376 C30.3811895,31.2376 31.7574771,29.8567 31.7574771,28.1593 C31.7574771,26.462 30.3810899,25.0812 28.6893366,25.0812 Z M28.6893366,29.1854 C28.1254853,29.1854 27.6667892,28.7252 27.6667892,28.1593 C27.6667892,27.5936 28.1254853,27.1334 28.6893366,27.1334 C29.2532876,27.1334 29.7119837,27.5936 29.7119837,28.1593 C29.7119837,28.725 29.2530882,29.1854 28.6893366,29.1854 Z" id="Shape"></path>
                    <path d="M36.0526944,25.0812 C34.3609412,25.0812 32.9846536,26.462 32.9846536,28.1593 C32.9846536,29.8566 34.3610408,31.2376 36.0526944,31.2376 C37.7445474,31.2376 39.120835,29.8567 39.120835,28.1593 C39.120835,26.462 37.7444477,25.0812 36.0526944,25.0812 Z M36.0526944,29.1854 C35.4888431,29.1854 35.0301471,28.7252 35.0301471,28.1593 C35.0301471,27.5936 35.4888431,27.1334 36.0526944,27.1334 C36.6166454,27.1334 37.0753415,27.5936 37.0753415,28.1593 C37.0753415,28.725 36.6166454,29.1854 36.0526944,29.1854 Z" id="Shape"></path>
                    <ellipse id="Oval" cx="42.1685425" cy="14.779" rx="1.02264706" ry="1.026"></ellipse>
                </g>
            </g>
        </g>
    </g>
</svg>