<?xml version="1.0" encoding="UTF-8"?>
<svg width="60px" height="60px" viewBox="0 0 60 60" version="1.1" xmlns="http://www.w3.org/2000/svg" xmlns:xlink="http://www.w3.org/1999/xlink">
    <!-- Generator: Sketch 47.1 (45422) - http://www.bohemiancoding.com/sketch -->
    <title>web_design</title>
    <desc>Created with Sketch.</desc>
    <defs>
        <linearGradient x1="0%" y1="46.1315098%" x2="97.8236607%" y2="48.3443912%" id="linearGradient-1">
            <stop stop-color="#A01F00" offset="0%"></stop>
            <stop stop-color="#FC5702" offset="100%"></stop>
        </linearGradient>
        <linearGradient x1="0%" y1="46.1309288%" x2="100%" y2="48.3933812%" id="linearGradient-2">
            <stop stop-color="#A01F00" offset="0%"></stop>
            <stop stop-color="#FC5702" offset="100%"></stop>
        </linearGradient>
        <linearGradient x1="48.6110625%" y1="46.1309288%" x2="51.3205647%" y2="48.3376946%" id="linearGradient-3">
            <stop stop-color="#A01F00" offset="0%"></stop>
            <stop stop-color="#FC5702" offset="100%"></stop>
        </linearGradient>
    </defs>
    <g id="Page-1" stroke="none" stroke-width="1" fill="none" fill-rule="evenodd">
        <g id="web_design" fill-rule="nonzero">
            <path d="M21.320473,25.1371622 C14.9083784,25.1371622 9.69304054,30.3533108 9.69304054,36.7645946 C9.69304054,37.7288514 9.82439189,38.7182432 10.0810135,39.7058108 L10.5066892,41.3351351 L25.8897973,25.9528378 L24.260473,25.5271622 C23.2722973,25.2683108 22.2837162,25.1371622 21.320473,25.1371622 Z M11.6505405,37.4614865 C11.6322973,37.227973 11.6235811,36.9952703 11.6235811,36.7645946 C11.6235811,31.4181081 15.9739865,27.0677027 21.320473,27.0677027 C21.5501351,27.0677027 21.7828378,27.0764189 22.0173649,27.0946622 L11.6505405,37.4614865 Z" id="Shape" fill="url(#linearGradient-1)"></path>
            <path d="M55.4681757,13.5135811 C54.2991892,13.5135811 53.1989189,13.9692568 52.3727027,14.7964865 L50.1932432,16.9751351 L50.1932432,2.89581081 C50.1930405,1.29932432 48.8939189,0 47.2972297,0 L12.5483108,0 C10.9518243,0 9.6525,1.29932432 9.6525,2.89581081 L9.6525,18.9334459 C3.84547297,22.7460811 0,29.3128378 0,36.7643919 C0,42.4593243 2.21817568,47.8137162 6.24527027,51.8406081 L6.92777027,52.5231081 L9.6527027,49.7981757 L9.6527027,56.9497297 C9.6527027,58.5462162 10.952027,59.8455405 12.5485135,59.8455405 L47.2976351,59.8455405 C48.8941216,59.8455405 50.1934459,58.5462162 50.1934459,56.9497297 L50.1934459,29.3572297 L58.5640541,20.9866216 C59.3898649,20.1602027 59.8455405,19.0617568 59.8455405,17.8919595 C59.8455405,15.4777703 57.8821622,13.5135811 55.4681757,13.5135811 Z M29.4399324,42.5539865 L28.3917568,41.5058108 L48.2625,21.6350676 L49.3106757,22.6832432 L29.4399324,42.5539865 Z M29.8447297,45.6881757 L27.2365541,46.1225676 L27.6709459,43.5143919 L29.8447297,45.6881757 Z M11.5830405,2.89581081 C11.5830405,2.36391892 12.0154054,1.93054054 12.5483108,1.93054054 L47.2974324,1.93054054 C47.8303378,1.93054054 48.2627027,2.36391892 48.2627027,2.89581081 L48.2627027,7.72216216 L11.5830405,7.72216216 L11.5830405,2.89581081 Z M11.5830405,9.6525 L48.2625,9.6525 L48.2625,18.905473 L26.1253378,41.0426351 L24.8868243,48.4720946 L32.3162838,47.2335811 L48.2622973,31.2875676 L48.2622973,50.1930405 L11.5830405,50.1930405 L11.5830405,47.8678378 L37.0791892,22.3716892 L36.3966892,21.6891892 C32.3695946,17.6620946 27.0154054,15.4439189 21.320473,15.4439189 C17.8137162,15.4439189 14.5047973,16.3001351 11.5830405,17.8068243 L11.5830405,9.6525 L11.5830405,9.6525 Z M6.94398649,49.7760811 C6.69304054,49.5 6.46824324,49.2064865 6.23452703,48.9188514 L7.77222973,47.8019595 L6.63709459,46.2391216 L5.09371622,47.3598649 C4.32932432,46.1947297 3.68635135,44.9631081 3.19418919,43.6686486 L5.0252027,43.0741216 L4.42966216,41.2382432 L2.60533784,41.7883784 C2.24817568,40.4602703 2.04364865,39.5750676 1.97493243,37.644527 L3.86108108,37.644527 L3.86108108,35.7139865 L1.9797973,35.7139865 C2.04932432,34.7487162 2.26743243,32.9775 2.62358108,31.6619595 L4.42966216,32.2700676 L5.0252027,30.4447297 L3.22013514,29.8635811 C3.71918919,28.5595946 4.34472973,27.3220946 5.09939189,26.1705405 L6.63790541,27.2892568 L7.77304054,25.7284459 L6.23452703,24.6107432 C7.10513514,23.5315541 8.08783784,22.5498649 9.16702703,21.6782432 L10.2847297,23.2167568 L11.8475676,22.0816216 L10.7298649,20.5431081 C11.8814189,19.7882432 13.1207432,19.1627027 14.4249324,18.6646622 L15.0117568,20.4697297 L16.8476351,19.8731757 L16.2182432,18.0670946 C17.5337838,17.7103378 19.305,17.4932432 20.2702703,17.4237162 L20.2702703,19.305 L22.2008108,19.305 L22.2008108,17.4188514 C24.1313514,17.4873649 25.0163514,17.6929054 26.3436486,18.0500676 L25.7722297,19.8733784 L27.6188514,20.4699324 L28.2192568,18.6389189 C29.5137162,19.1312838 30.7471622,19.7750676 31.9122973,20.5384459 L30.7925676,22.0818243 L32.3562162,23.2169595 L33.4739189,21.6784459 C33.7625676,21.9111486 34.0550676,22.1369595 34.3319595,22.3879054 L6.94398649,49.7760811 Z M28.9575,55.0191892 C28.9575,54.4862838 29.3898649,54.0539189 29.9227703,54.0539189 C30.4556757,54.0539189 30.8880405,54.4862838 30.8880405,55.0191892 C30.8880405,55.5520946 30.4556757,55.9844595 29.9227703,55.9844595 C29.3898649,55.9844595 28.9575,55.5520946 28.9575,55.0191892 Z M48.2625,56.9497297 C48.2625,57.4826351 47.8301351,57.915 47.2972297,57.915 L29.9266216,57.915 C31.5212838,57.9127703 32.8185811,56.6144595 32.8185811,55.0193919 C32.8185811,53.4229054 31.5192568,52.1235811 29.9227703,52.1235811 C28.3262838,52.1235811 27.0269595,53.4229054 27.0269595,55.0193919 C27.0269595,56.6146622 28.3242568,57.9127703 29.9189189,57.915 L12.5483108,57.915 C12.0154054,57.915 11.5830405,57.4826351 11.5830405,56.9497297 L11.5830405,52.1233784 L29.9227703,52.1233784 L48.2625,52.1233784 L48.2625,56.9497297 Z M31.8533108,44.9671622 L30.8051351,43.9189865 L50.6756757,24.0482432 L51.7238514,25.0964189 L31.8533108,44.9671622 Z M53.0888514,23.7316216 L49.6275,20.2702703 L51.1583108,18.7394595 L54.6196622,22.2008108 L53.0888514,23.7316216 Z M57.1988514,19.6226351 L55.9846622,20.8360135 L52.5233108,17.3746622 L53.7375,16.160473 C54.1998649,15.6991216 54.8146622,15.4443243 55.4681757,15.4443243 C56.8165541,15.4443243 57.915,16.5427703 57.915,17.8921622 C57.915,18.5452703 57.6602027,19.1602703 57.1988514,19.6226351 Z" id="Shape" fill="url(#linearGradient-2)"></path>
            <rect id="Rectangle-path" fill="url(#linearGradient-3)" x="24.1313514" y="3.86108108" width="11.5830405" height="1.93054054"></rect>
        </g>
    </g>
</svg>