<?xml version="1.0" encoding="utf-8"?>
<!-- Generator: Adobe Illustrator 16.0.0, SVG Export Plug-In . SVG Version: 6.00 Build 0)  -->
<!DOCTYPE svg PUBLIC "-//W3C//DTD SVG 1.1//EN" "http://www.w3.org/Graphics/SVG/1.1/DTD/svg11.dtd">
<svg version="1.1" id="Layer_1" xmlns="http://www.w3.org/2000/svg" xmlns:xlink="http://www.w3.org/1999/xlink" x="0px" y="0px"
	 width="612px" height="792px" viewBox="0 0 612 792" enable-background="new 0 0 612 792" xml:space="preserve">
<g>
	<g>
		<g>
			<circle fill="#FFFFFF" cx="78.969" cy="277.547" r="9.871"/>
			<circle fill="#FFFFFF" cx="118.454" cy="277.547" r="9.871"/>
			<circle fill="#FFFFFF" cx="157.936" cy="277.547" r="9.871"/>
			<path fill="#FFFFFF" d="M69.098,632.902h127.048L69.098,513.325V632.902z M88.84,559.018l57.527,54.143H88.84V559.018z"/>
			<path fill="#FFFFFF" d="M612,149.225V90.002h-59.225v19.742H355.356V90.002h-59.225v59.225h59.225v-19.742h33.374
				c-31.973,21.233-53.116,57.538-53.116,98.709H59.227c-16.326,0-29.613,13.287-29.613,29.613v123.642
				c-8.992-7.581-16.533-5.736-19.436-4.481C7.118,378.29,0,382.792,0,396.001v276.386C0,688.713,13.287,702,29.613,702h296.128
				c12.92,0,17.384-6.396,18.902-10.207c1.512-3.82,2.646-11.529-6.771-20.383l-9.446-8.893h253.959
				c16.326,0,29.613-13.287,29.613-29.613V257.807c0-16.326-13.287-29.613-29.613-29.613h-9.871
				c0-41.172-21.144-77.477-53.116-98.709h33.374v19.742H612V149.225z M572.516,109.742h19.742v19.742h-19.742V109.742z
				 M335.614,129.484h-19.742v-19.742h19.742V129.484z M49.358,257.803c0-5.435,4.432-9.869,9.869-9.869h278.075
				c0.011,0.079,0.118,0.099,0.179,0.147c3.76,22.22,13.741,42.573,28.616,59.078H49.358V257.803L49.358,257.803z M29.615,682.256
				L29.615,682.256c-5.439,0.002-9.871-4.42-9.871-9.869v-9.871h19.743v-19.742H19.744v-19.742h19.743v-19.742H19.744v-19.742
				h19.743v-19.743H19.744v-19.742h19.743v-19.742H19.744v-19.738h19.743v-19.742H19.744v-19.742h19.743v-19.742H19.744V399.1
				l103.27,97.198l29.781,28.023l167.805,157.935H29.615L29.615,682.256z M88.84,437.023v-70.636h217.161v138.191H160.623
				L88.84,437.023z M592.256,632.912c0.002,5.438-4.43,9.861-9.869,9.861H307.452L181.598,524.321h144.145V346.646H69.098v71.79
				l-19.743-18.577v-72.956h339.816c1.905,1.244,3.682,2.635,5.665,3.781v11.144c-5.951,4.51-9.871,11.587-9.871,19.613
				c0,5.576,1.926,10.671,5.064,14.807c-3.139,4.146-5.064,9.239-5.064,14.817c0,13.603,11.075,24.678,24.678,24.678h88.838
				c13.603,0,24.679-11.075,24.679-24.678c0-5.576-1.926-10.671-5.064-14.807c3.139-4.136,5.064-9.229,5.064-14.807
				c0-8.024-3.918-15.104-9.871-19.614v-11.144c1.983-1.144,3.76-2.537,5.665-3.781h73.302V632.912z M409.646,386.128h88.839
				c2.724,0,4.936,2.211,4.936,4.936c0,2.724-2.212,4.936-4.936,4.936h-88.839c-2.724,0-4.936-2.212-4.936-4.936
				C404.71,388.342,406.922,386.128,409.646,386.128z M404.71,361.45c0-2.724,2.212-4.936,4.936-4.936h88.839
				c2.724,0,4.936,2.211,4.936,4.936c0,2.724-2.212,4.936-4.936,4.936h-88.839C406.922,366.388,404.71,364.174,404.71,361.45z
				 M570.828,247.936h11.559c5.439,0,9.871,4.432,9.871,9.871v49.356h-50.232c14.57-16.158,24.41-36.019,28.349-57.706
				C570.553,249.003,570.73,248.529,570.828,247.936z M552.775,228.194c0,37.184-20.63,70.843-53.856,87.841l-5.368,2.755v17.985
				h-29.613v-70.5c16.977-4.413,29.613-19.742,29.613-38.081c0-21.776-17.709-39.484-39.484-39.484
				c-21.776,0-39.485,17.708-39.485,39.484c0,18.341,12.635,33.67,29.613,38.081v70.5h-29.613V318.79l-5.368-2.755
				c-33.227-16.998-53.856-50.657-53.856-87.841c0-54.428,44.281-98.709,98.71-98.709
				C508.494,129.484,552.775,173.766,552.775,228.194z M454.066,247.936c-10.888,0-19.743-8.853-19.743-19.742
				c0-10.887,8.854-19.742,19.743-19.742c10.889,0,19.742,8.853,19.742,19.742C473.807,239.083,464.953,247.936,454.066,247.936z"/>
			<rect x="345.485" y="445.356" fill="#FFFFFF" width="227.032" height="19.742"/>
			<rect x="345.485" y="484.839" fill="#FFFFFF" width="227.032" height="19.742"/>
			<rect x="345.485" y="524.321" fill="#FFFFFF" width="227.032" height="19.742"/>
			<rect x="345.485" y="563.804" fill="#FFFFFF" width="227.032" height="19.742"/>
		</g>
	</g>
</g>
</svg>
