<?xml version="1.0" encoding="iso-8859-1"?>
<!-- Generator: Adobe Illustrator 19.0.0, SVG Export Plug-In . SVG Version: 6.00 Build 0)  -->
<svg xmlns="http://www.w3.org/2000/svg" xmlns:xlink="http://www.w3.org/1999/xlink" version="1.1" id="Capa_1" x="0px" y="0px" viewBox="0 0 58.836 58.836" style="enable-background:new 0 0 58.836 58.836;" xml:space="preserve" width="512px" height="512px">
<g>
	<g>
		<path d="M16.15,46.302c-2.077,0-3.767,1.69-3.767,3.768s1.69,3.768,3.767,3.768c2.078,0,3.768-1.69,3.768-3.768    S18.228,46.302,16.15,46.302z M16.15,51.837c-0.975,0-1.767-0.793-1.767-1.768s0.792-1.768,1.767-1.768s1.768,0.793,1.768,1.768    S17.124,51.837,16.15,51.837z" fill="#FFFFFF"/>
		<path d="M45.917,44.837c-0.552,0-1,0.447-1,1c0,3.859-3.14,7-7,7c-0.552,0-1,0.447-1,1s0.448,1,1,1c4.962,0,9-4.037,9-9    C46.917,45.284,46.47,44.837,45.917,44.837z" fill="#FFFFFF"/>
		<path d="M22.917,11.837c0.552,0,1-0.447,1-1c0-2.206,1.794-4,4-4c0.552,0,1-0.447,1-1s-0.448-1-1-1c-3.309,0-6,2.691-6,6    C21.917,11.39,22.365,11.837,22.917,11.837z" fill="#FFFFFF"/>
		<path d="M44.597,15.837h-5.556c0.66-1.424,1.04-3.004,1.04-4.675C40.08,5.007,35.073,0,28.917,0S17.755,5.007,17.755,11.162    c0,1.67,0.379,3.25,1.04,4.675h-4.556c-3.485,0-6.321,2.836-6.321,6.321v30.357c0,3.485,2.835,6.321,6.321,6.321h30.358    c3.485,0,6.321-2.836,6.321-6.321V22.158C50.917,18.673,48.082,15.837,44.597,15.837z M28.917,2c5.052,0,9.163,4.11,9.163,9.162    c0,1.975-0.634,3.801-1.701,5.299c-0.146,0.206-0.298,0.407-0.459,0.598c-0.1,0.119-0.207,0.231-0.313,0.345    c-0.124,0.132-0.25,0.262-0.38,0.387c-0.117,0.111-0.236,0.221-0.359,0.326c-0.141,0.121-0.287,0.234-0.435,0.345    c-0.118,0.089-0.232,0.182-0.354,0.265c-0.263,0.179-0.533,0.347-0.812,0.498c-0.087,0.047-0.18,0.085-0.268,0.13    c-0.218,0.108-0.438,0.212-0.664,0.303c-0.111,0.045-0.226,0.084-0.339,0.125c-0.191,0.068-0.384,0.128-0.58,0.184    c-0.281,0.079-0.566,0.142-0.854,0.194c-0.095,0.017-0.189,0.039-0.286,0.053c-0.041,0.006-0.082,0.013-0.124,0.019    c-0.818,0.11-1.65,0.11-2.468,0c-0.041-0.006-0.082-0.013-0.124-0.019c-0.096-0.014-0.19-0.036-0.285-0.053    c-0.288-0.052-0.573-0.115-0.854-0.194c-0.195-0.055-0.389-0.116-0.58-0.184c-0.114-0.041-0.228-0.079-0.339-0.125    c-0.226-0.091-0.446-0.195-0.664-0.303c-0.089-0.044-0.181-0.082-0.268-0.13c-0.279-0.151-0.549-0.318-0.812-0.498    c-0.122-0.083-0.237-0.176-0.354-0.265c-0.148-0.111-0.294-0.225-0.435-0.345c-0.123-0.105-0.242-0.215-0.359-0.326    c-0.131-0.125-0.257-0.254-0.38-0.387c-0.106-0.114-0.213-0.226-0.313-0.345c-0.161-0.191-0.313-0.392-0.459-0.598    c-1.067-1.498-1.701-3.324-1.701-5.299C19.755,6.11,23.865,2,28.917,2z M28.917,40c2.206,0,4-1.794,4-4v-7.984    c2.69,1.45,4.418,4.272,4.418,7.402c0,4.643-3.776,8.419-8.418,8.419s-8.418-3.776-8.418-8.419c0-3.13,1.728-5.952,4.418-7.402V36    C24.917,38.206,26.712,40,28.917,40z M30.917,25.104V36c0,1.103-0.897,2-2,2s-2-0.897-2-2V25.104v-2.959    c0.15,0.027,0.303,0.04,0.454,0.061c0.103,0.014,0.205,0.034,0.308,0.046c0.057,0.006,0.113,0.013,0.17,0.019    c0.303,0.029,0.607,0.042,0.911,0.046c0.053,0.001,0.104,0.008,0.157,0.008s0.104-0.007,0.157-0.008    c0.304-0.004,0.608-0.017,0.911-0.046c0.057-0.005,0.113-0.012,0.17-0.019c0.104-0.011,0.205-0.031,0.308-0.046    c0.151-0.021,0.304-0.034,0.454-0.061V25.104z M24.917,25.807c-3.867,1.607-6.418,5.379-6.418,9.61    c0,5.745,4.674,10.419,10.418,10.419s10.418-4.674,10.418-10.419c0-4.231-2.552-8.004-6.418-9.61v-1.276    c4.769,1.673,8,6.155,8,11.306c0,6.617-5.383,12-12,12s-12-5.383-12-12c0-5.15,3.231-9.633,8-11.306V25.807z M48.917,52.516    c0,2.383-1.938,4.321-4.321,4.321H14.238c-2.382,0-4.321-1.938-4.321-4.321V22.158c0-2.383,1.938-4.321,4.321-4.321h5.731    c0.061,0.081,0.132,0.152,0.195,0.232c0.123,0.156,0.252,0.306,0.383,0.455c0.135,0.154,0.269,0.308,0.412,0.453    c0.135,0.137,0.278,0.264,0.42,0.395c0.222,0.204,0.449,0.399,0.685,0.584c0.21,0.164,0.421,0.328,0.642,0.477    c0.148,0.1,0.304,0.186,0.457,0.278c0.192,0.116,0.383,0.231,0.582,0.336c0.152,0.08,0.307,0.151,0.463,0.223    c0.214,0.1,0.43,0.195,0.651,0.281c0.019,0.008,0.038,0.017,0.057,0.025v0.867c-5.924,1.757-10,7.15-10,13.395    c0,7.72,6.28,14,14,14s14-6.28,14-14c0-6.245-4.076-11.637-10-13.395v-0.867c0.019-0.007,0.038-0.017,0.057-0.025    c0.221-0.087,0.438-0.182,0.652-0.282c0.155-0.073,0.311-0.144,0.462-0.223c0.199-0.104,0.39-0.22,0.582-0.336    c0.153-0.092,0.308-0.178,0.457-0.278c0.222-0.149,0.432-0.313,0.642-0.477c0.237-0.184,0.463-0.38,0.685-0.584    c0.141-0.13,0.285-0.258,0.42-0.395c0.143-0.146,0.277-0.3,0.412-0.453c0.131-0.149,0.26-0.299,0.383-0.455    c0.063-0.08,0.134-0.15,0.195-0.232h6.731c2.382,0,4.321,1.938,4.321,4.321v30.359H48.917z" fill="#FFFFFF"/>
	</g>
</g>
<g>
</g>
<g>
</g>
<g>
</g>
<g>
</g>
<g>
</g>
<g>
</g>
<g>
</g>
<g>
</g>
<g>
</g>
<g>
</g>
<g>
</g>
<g>
</g>
<g>
</g>
<g>
</g>
<g>
</g>
</svg>
