<?xml version="1.0" encoding="utf-8"?>
<!-- Generator: Adobe Illustrator 16.0.0, SVG Export Plug-In . SVG Version: 6.00 Build 0)  -->
<!DOCTYPE svg PUBLIC "-//W3C//DTD SVG 1.1//EN" "http://www.w3.org/Graphics/SVG/1.1/DTD/svg11.dtd">
<svg version="1.1" id="Layer_1" xmlns="http://www.w3.org/2000/svg" xmlns:xlink="http://www.w3.org/1999/xlink" x="0px" y="0px"
	 width="612px" height="792px" viewBox="0 0 612 792" enable-background="new 0 0 612 792" xml:space="preserve">
<g>
	<path fill="#FFFFFF" d="M218.604,381.391c-22.512,0-40.826,18.314-40.826,40.826s18.314,40.826,40.826,40.826
		c22.512,0,40.826-18.314,40.826-40.826S241.116,381.391,218.604,381.391z M218.604,450.285c-15.477,0-28.068-12.592-28.068-28.068
		s12.591-28.068,28.068-28.068s28.068,12.591,28.068,28.068S234.081,450.285,218.604,450.285z"/>
	<path fill="#FFFFFF" d="M393.391,381.391c-22.512,0-40.826,18.314-40.826,40.826s18.314,40.826,40.826,40.826
		s40.826-18.314,40.826-40.826S415.902,381.391,393.391,381.391z M393.391,450.285c-15.477,0-28.067-12.592-28.067-28.068
		s12.591-28.068,28.067-28.068c15.478,0,28.068,12.591,28.068,28.068S408.868,450.285,393.391,450.285z"/>
	<path fill="#FFFFFF" d="M110.521,308.384l14.179,11.101c1.155,0.903,2.543,1.356,3.932,1.356c1.39,0,2.777-0.452,3.932-1.356
		l14.179-11.101c1.545-1.209,2.447-3.061,2.447-5.023v-22.168c0-3.522-2.855-6.379-6.379-6.379h-28.359
		c-3.524,0-6.379,2.856-6.379,6.379v22.168C108.073,305.324,108.975,307.176,110.521,308.384L110.521,308.384z M120.832,287.572
		h15.602v12.682l-7.8,6.107l-7.8-6.107v-12.682H120.832z"/>
	<path fill="#FFFFFF" d="M146.745,359.985l-14.179-11.101c-2.311-1.808-5.555-1.808-7.864,0l-14.18,11.101
		c-1.545,1.209-2.447,3.061-2.447,5.023v22.168c0,3.523,2.855,6.379,6.379,6.379h28.36c3.524,0,6.379-2.856,6.379-6.379v-22.168
		C149.192,363.047,148.29,361.194,146.745,359.985z M136.434,380.797h-15.602v-12.682l7.8-6.107l7.8,6.107v12.682H136.434z"/>
	<path fill="#FFFFFF" d="M143.331,338.116l11.101,14.181c1.209,1.544,3.062,2.447,5.024,2.447h22.169
		c3.523,0,6.379-2.856,6.379-6.379v-28.36c0-3.522-2.855-6.379-6.379-6.379h-22.169c-1.961,0-3.813,0.902-5.023,2.447l-11.101,14.18
		C141.523,332.561,141.523,335.807,143.331,338.116L143.331,338.116z M162.562,326.384h12.682v15.602h-12.682l-6.107-7.802
		L162.562,326.384z"/>
	<path fill="#FFFFFF" d="M97.81,354.744c1.961,0,3.813-0.903,5.024-2.447l11.101-14.181c1.808-2.31,1.808-5.555-0.001-7.864
		l-11.101-14.18c-1.208-1.545-3.061-2.447-5.023-2.447H75.641c-3.523,0-6.379,2.856-6.379,6.379v28.36
		c0,3.522,2.855,6.379,6.379,6.379H97.81L97.81,354.744z M82.02,326.384h12.682l6.107,7.8l-6.107,7.802H82.02V326.384z"/>
	<path fill="#FFFFFF" d="M610.467,491.634l-28.925-153.378c-0.343-33.145-17.07-62.421-42.458-80.117l-2.85-29.423
		c-1.114-11.516-10.68-20.199-22.249-20.199h-62.574c-11.568,0-21.134,8.683-22.247,20.199l-2.446,25.247H185.278l-2.446-25.246
		c-1.114-11.516-10.68-20.199-22.249-20.199H98.01c-11.569,0-21.134,8.683-22.248,20.199l-2.851,29.419
		c-25.391,17.696-42.122,46.973-42.464,80.122L1.536,491.634c-3.934,20.861-0.282,40.528,10.562,56.872
		c9.668,14.573,24.636,25.64,42.144,31.16c8.083,2.549,16.398,3.818,24.612,3.818c9.582,0,19.026-1.729,27.792-5.171
		c18.261-7.172,32.537-21.187,41.28-40.535l27.582-61.054c11.857,9.395,26.825,15.024,43.092,15.024
		c35.092,0,64.179-26.138,68.857-59.964h37.072c4.679,33.826,33.765,59.964,68.857,59.964c16.269,0,31.238-5.632,43.097-15.028
		l27.585,61.056c8.74,19.346,23.011,33.361,41.269,40.533c8.769,3.443,18.212,5.173,27.796,5.173c8.21,0,16.522-1.27,24.601-3.814
		c17.511-5.518,32.481-16.583,42.154-31.156C610.739,532.167,614.397,512.499,610.467,491.634L610.467,491.634z M562.431,339.289
		c0,43.967-35.771,79.739-79.738,79.739c-6.821,0-13.53-0.854-20.024-2.539c-2.628-32.054-27.074-58.021-58.432-62.953
		c-0.846-4.68-1.283-9.449-1.283-14.247c0-43.967,35.771-79.739,79.739-79.739C526.66,259.55,562.431,295.321,562.431,339.289z
		 M227.18,353.232c0.652-4.604,0.993-9.264,0.993-13.943c0-25.435-9.659-48.651-25.493-66.189h206.63
		c-15.834,17.539-25.493,40.755-25.493,66.189c0,4.681,0.34,9.34,0.992,13.945c-31.159,3.855-55.984,28.391-60.276,59.415h-37.071
		C283.17,381.623,258.342,357.085,227.18,353.232L227.18,353.232z M451.411,227.654h62.574c1.665,0,3.041,1.249,3.202,2.906
		l1.619,16.712c-11.195-4.41-23.37-6.858-36.113-6.858c-12.738,0-24.908,2.448-36.101,6.855l1.618-16.707
		C448.371,228.903,449.746,227.654,451.411,227.654L451.411,227.654z M94.809,230.56c0.161-1.656,1.536-2.905,3.201-2.905h62.574
		c1.665,0,3.042,1.249,3.202,2.906l1.619,16.709c-11.194-4.408-23.367-6.857-36.107-6.857s-24.913,2.448-36.107,6.857L94.809,230.56
		z M129.296,259.55c43.969,0,79.739,35.771,79.739,79.739c0,4.8-0.438,9.569-1.283,14.249c-31.354,4.936-55.795,30.899-58.425,62.95
		c-6.497,1.686-13.209,2.54-20.031,2.54c-43.968,0-79.738-35.771-79.738-79.739S85.328,259.55,129.296,259.55L129.296,259.55z
		 M130.491,529.897c-14.687,32.496-45.992,39.24-70.492,31.517c-24.5-7.726-46.262-31.2-39.656-66.234L41.26,384.21
		c16.392,31.994,49.688,53.954,88.038,53.954c7.164,0,14.233-0.769,21.133-2.274c1.88,9.389,5.659,18.095,10.915,25.713
		L130.491,529.897L130.491,529.897z M218.604,472.611c-27.788,0-50.395-22.607-50.395-50.395s22.607-50.395,50.395-50.395
		c27.787,0,50.395,22.608,50.395,50.395S246.391,472.611,218.604,472.611z M393.391,472.611c-27.787,0-50.395-22.607-50.395-50.395
		s22.607-50.395,50.395-50.395c27.788,0,50.396,22.608,50.396,50.395S421.179,472.611,393.391,472.611z M551.985,561.416
		c-24.505,7.722-55.795,0.97-70.473-31.518l-30.857-68.303c5.252-7.615,9.031-16.319,10.91-25.705
		c6.898,1.506,13.966,2.273,21.127,2.273c38.352,0,71.649-21.963,88.04-53.959l20.927,110.975
		C598.261,530.219,576.49,553.693,551.985,561.416L551.985,561.416z"/>
	<path fill="#FFFFFF" d="M482.692,326.634c13.395,0,24.292-10.898,24.292-24.293c0-13.395-10.897-24.293-24.292-24.293
		c-13.396,0-24.293,10.898-24.293,24.293C458.399,315.736,469.297,326.634,482.692,326.634z M482.692,290.808
		c6.359,0,11.534,5.175,11.534,11.535s-5.175,11.535-11.534,11.535c-6.36,0-11.535-5.175-11.535-11.535
		S476.332,290.808,482.692,290.808z"/>
	<path fill="#FFFFFF" d="M482.692,351.942c-13.396,0-24.293,10.898-24.293,24.292c0,13.395,10.897,24.293,24.293,24.293
		c13.395,0,24.292-10.898,24.292-24.293C506.984,362.84,496.087,351.942,482.692,351.942z M482.692,387.77
		c-6.36,0-11.535-5.174-11.535-11.535c0-6.36,5.175-11.535,11.535-11.535c6.359,0,11.534,5.175,11.534,11.535
		C494.227,382.595,489.053,387.77,482.692,387.77z"/>
	<path fill="#FFFFFF" d="M519.639,314.996c-13.396,0-24.292,10.898-24.292,24.293s10.896,24.293,24.292,24.293
		c13.395,0,24.293-10.898,24.293-24.293S533.033,314.996,519.639,314.996L519.639,314.996z M519.639,350.822
		c-6.359,0-11.533-5.174-11.533-11.535c0-6.36,5.174-11.535,11.533-11.535s11.534,5.175,11.534,11.535
		C531.173,345.648,526,350.822,519.639,350.822L519.639,350.822z"/>
	<path fill="#FFFFFF" d="M470.038,339.289c0-13.395-10.897-24.293-24.293-24.293c-13.395,0-24.292,10.898-24.292,24.293
		s10.897,24.293,24.292,24.293C459.141,363.582,470.038,352.684,470.038,339.289L470.038,339.289z M445.745,350.822
		c-6.359,0-11.534-5.174-11.534-11.535c0-6.36,5.175-11.535,11.534-11.535c6.36,0,11.535,5.175,11.535,11.535
		C457.28,345.648,452.106,350.822,445.745,350.822z"/>
	<path fill="#FFFFFF" d="M276.3,334.186h-14.034c-3.524,0-6.379,2.856-6.379,6.379s2.855,6.379,6.379,6.379H276.3
		c3.524,0,6.379-2.856,6.379-6.379S279.823,334.186,276.3,334.186z"/>
	<path fill="#FFFFFF" d="M335.694,346.943h14.034c3.524,0,6.379-2.856,6.379-6.379s-2.854-6.379-6.379-6.379h-14.034
		c-3.523,0-6.379,2.856-6.379,6.379S332.172,346.943,335.694,346.943z"/>
</g>
</svg>
