<?xml version="1.0" encoding="iso-8859-1"?>
<!-- Generator: Adobe Illustrator 19.0.0, SVG Export Plug-In . SVG Version: 6.00 Build 0)  -->
<svg xmlns="http://www.w3.org/2000/svg" xmlns:xlink="http://www.w3.org/1999/xlink" version="1.1" id="Capa_1" x="0px" y="0px" viewBox="0 0 60 60" style="enable-background:new 0 0 60 60;" xml:space="preserve" width="512px" height="512px">
<g>
	<g>
		<path d="M59.967,27.967C59.967,20.816,54.151,15,47,15c-3.147,0-6.034,1.129-8.283,3h-6.751V5.5c0-1.93,1.57-3.5,3.5-3.5    s3.5,1.57,3.5,3.5V8c0,2.757,2.243,5,5,5s5-2.243,5-5V0h-2v8c0,1.654-1.346,3-3,3s-3-1.346-3-3V5.5c0-3.032-2.468-5.5-5.5-5.5    s-5.5,2.468-5.5,5.5V18h-8.765c-2.236-1.832-5.092-2.934-8.202-2.934c-7.15,0-12.967,5.816-12.967,12.967    c0,2.479,0.712,4.79,1.923,6.762L0.774,52.043C0.774,56.431,4.344,60,8.73,60c3.541,0,6.604-2.279,7.613-5.645l3.423-10.375    c1.037,1.801,2.977,3.019,5.2,3.019c2.086,0,3.924-1.071,5-2.69c1.076,1.62,2.914,2.69,5,2.69c2.329,0,4.348-1.337,5.342-3.281    l3.5,10.61C44.826,57.721,47.89,60,51.431,60c4.388,0,7.957-3.569,7.955-8.025l-1.201-17.478    C59.311,32.576,59.967,30.349,59.967,27.967z M57.967,27.967c0,1.815-0.45,3.524-1.234,5.033l-0.425,0.701    c-0.48,0.792-1.049,1.501-1.684,2.132c-0.128,0.124-0.261,0.241-0.395,0.359c-0.128,0.115-0.258,0.225-0.391,0.333    c-1.877,1.503-4.253,2.408-6.838,2.408c-6.047,0-10.967-4.92-10.967-10.967c0-2.253,0.685-4.348,1.854-6.092    c0.014-0.02,0.027-0.041,0.041-0.061c0.15-0.22,0.313-0.43,0.478-0.639c0.105-0.13,0.211-0.26,0.322-0.386    c0.098-0.113,0.2-0.224,0.303-0.333c0.231-0.241,0.468-0.477,0.722-0.698c0.003-0.002,0.005-0.005,0.008-0.007l0.36-0.313    C42.005,17.916,44.396,17,47,17C53.048,17,57.967,21.92,57.967,27.967z M29.967,20h2h4.8c-1.8,2.273-2.8,5.097-2.8,8.033    c0,2.552,0.741,4.993,2.102,7.069c-0.018-0.003-0.037-0.002-0.055-0.005C35.673,35.037,35.325,35,34.967,35    c-0.236,0-0.468,0.017-0.697,0.044c-0.085,0.01-0.167,0.025-0.251,0.038c-0.138,0.022-0.276,0.047-0.411,0.079    c-0.103,0.024-0.205,0.05-0.307,0.079c-0.105,0.031-0.208,0.065-0.311,0.101c-0.114,0.04-0.229,0.078-0.34,0.125    c-0.051,0.022-0.1,0.048-0.151,0.071c-0.282,0.127-0.551,0.274-0.807,0.442c-0.031,0.02-0.063,0.038-0.093,0.058    c-0.126,0.086-0.246,0.178-0.365,0.273c-0.048,0.038-0.096,0.077-0.142,0.116c-0.11,0.093-0.216,0.189-0.319,0.29    c-0.054,0.053-0.106,0.109-0.158,0.165c-0.09,0.096-0.181,0.19-0.265,0.292c-0.13,0.156-0.251,0.318-0.365,0.487    c-0.006,0.009-0.013,0.017-0.019,0.025c-0.006-0.009-0.013-0.017-0.019-0.025c-0.113-0.168-0.234-0.33-0.363-0.485    c-0.087-0.105-0.181-0.203-0.275-0.302c-0.049-0.051-0.096-0.103-0.146-0.152c-0.105-0.104-0.215-0.202-0.328-0.298    c-0.043-0.036-0.086-0.071-0.13-0.106c-0.122-0.098-0.246-0.193-0.376-0.281c-0.023-0.015-0.047-0.029-0.069-0.044    c-0.27-0.178-0.555-0.334-0.854-0.467c-0.04-0.018-0.079-0.039-0.12-0.057c-0.114-0.048-0.231-0.087-0.349-0.128    c-0.1-0.035-0.201-0.069-0.303-0.099c-0.103-0.03-0.206-0.056-0.311-0.08c-0.134-0.031-0.27-0.056-0.408-0.078    c-0.084-0.013-0.167-0.029-0.253-0.039C25.435,35.017,25.203,35,24.967,35c-0.219,0-0.435,0.013-0.649,0.036    c-0.003,0-0.007,0-0.011,0.001c1.345-2.073,2.08-4.499,2.08-7.004c0-2.937-1-5.76-2.8-8.033H29.967z M13,17.066    c6.047,0,10.967,4.92,10.967,10.967c0,6.004-4.852,10.891-10.84,10.96c-3.818-0.034-7.281-2.003-9.274-5.292l-1.12-1.846    c-0.445-1.192-0.701-2.476-0.701-3.822C2.034,21.986,6.954,17.066,13,17.066z M14.438,53.755C13.676,56.294,11.382,58,8.73,58    c-3.285,0-5.957-2.672-5.959-5.889l1.027-14.954C6.151,39.528,9.406,41,13,41c0.039,0,0.076-0.005,0.114-0.006    c0.038,0,0.075,0.006,0.113,0.006c2.056,0,4.072-0.493,5.885-1.418L14.438,53.755z M24.967,45c-2.206,0-4-1.794-4-4    c0-0.986,0.372-1.879,0.966-2.577l0.24-0.241c0.57-0.572,1.271-0.951,2.024-1.105c0.25-0.049,0.506-0.078,0.77-0.078    c0.275,0,0.544,0.028,0.803,0.081c0.018,0.003,0.033,0.011,0.051,0.015c0.242,0.053,0.477,0.123,0.7,0.218    c0.009,0.004,0.016,0.01,0.025,0.013c0.228,0.098,0.446,0.216,0.65,0.353c0.03,0.02,0.054,0.046,0.084,0.067    c0.175,0.125,0.343,0.259,0.496,0.409c0.079,0.079,0.144,0.17,0.216,0.255c0.088,0.102,0.18,0.2,0.257,0.311    c0.121,0.176,0.224,0.365,0.316,0.561c0.013,0.028,0.031,0.052,0.044,0.081c0.205,0.464,0.327,0.976,0.343,1.517l0.007,0.209    c-0.005,0.242-0.025,0.482-0.072,0.712l-0.001,0.006C28.51,43.628,26.896,45,24.967,45z M34.967,45    c-1.929,0-3.543-1.372-3.918-3.192l-0.001-0.006c-0.047-0.231-0.067-0.47-0.072-0.713l0.007-0.214    c0.017-0.541,0.139-1.052,0.345-1.515c0.012-0.026,0.028-0.048,0.04-0.073c0.093-0.198,0.198-0.389,0.321-0.568    c0.071-0.101,0.155-0.19,0.235-0.284c0.079-0.094,0.151-0.194,0.239-0.281c0.142-0.14,0.3-0.263,0.462-0.381    c0.04-0.03,0.075-0.066,0.117-0.094c0.194-0.13,0.402-0.24,0.617-0.335c0.02-0.009,0.037-0.022,0.057-0.03    c0.217-0.092,0.445-0.159,0.68-0.211c0.024-0.005,0.046-0.016,0.07-0.021C34.424,37.028,34.693,37,34.967,37    c0.244,0,0.479,0.03,0.711,0.072c0.076,0.014,0.151,0.032,0.226,0.05c0.157,0.038,0.31,0.087,0.46,0.143    c0.076,0.029,0.153,0.053,0.227,0.086c0.194,0.087,0.381,0.187,0.557,0.303c0.077,0.051,0.147,0.111,0.221,0.167    c0.105,0.079,0.207,0.161,0.303,0.25c0.081,0.075,0.158,0.153,0.232,0.234c0.076,0.083,0.146,0.171,0.215,0.261    c0.071,0.093,0.146,0.183,0.209,0.282c0.056,0.087,0.099,0.182,0.148,0.273c0.045,0.084,0.096,0.163,0.135,0.25l0.06,0.133    c0.187,0.463,0.296,0.966,0.296,1.495C38.967,43.206,37.174,45,34.967,45z M56.348,36.94l1.04,15.103    c0,3.285-2.672,5.957-5.957,5.957c-2.651,0-4.944-1.706-5.715-4.271l-4.667-14.146C42.861,40.507,44.878,41,46.934,41    c3.407,0,6.568-1.317,8.947-3.61c0.133-0.125,0.267-0.249,0.395-0.38C56.299,36.986,56.326,36.965,56.348,36.94z" fill="#FFFFFF"/>
		<path d="M28.967,25h3c0.553,0,1-0.447,1-1s-0.447-1-1-1h-3c-0.553,0-1,0.447-1,1S28.414,25,28.967,25z" fill="#FFFFFF"/>
		<path d="M53.467,31c1.93,0,3.5-1.57,3.5-3.5s-1.57-3.5-3.5-3.5s-3.5,1.57-3.5,3.5S51.537,31,53.467,31z M53.467,26    c0.827,0,1.5,0.673,1.5,1.5s-0.673,1.5-1.5,1.5s-1.5-0.673-1.5-1.5S52.64,26,53.467,26z" fill="#FFFFFF"/>
		<path d="M36.967,27.5c0,1.93,1.57,3.5,3.5,3.5s3.5-1.57,3.5-3.5s-1.57-3.5-3.5-3.5S36.967,25.57,36.967,27.5z M41.967,27.5    c0,0.827-0.673,1.5-1.5,1.5s-1.5-0.673-1.5-1.5s0.673-1.5,1.5-1.5S41.967,26.673,41.967,27.5z" fill="#FFFFFF"/>
		<path d="M7.683,31h2.285v2.285c0,0.945,0.77,1.715,1.715,1.715h2.57c0.945,0,1.715-0.77,1.715-1.715V31h2.285    c0.945,0,1.715-0.77,1.715-1.715v-2.57c0-0.945-0.77-1.715-1.715-1.715h-2.285v-2.285c0-0.945-0.77-1.715-1.715-1.715h-2.57    c-0.945,0-1.715,0.77-1.715,1.715V25H7.683c-0.945,0-1.715,0.77-1.715,1.715v2.57C5.968,30.23,6.737,31,7.683,31z M7.968,27h4v-4    h2v4h4v2h-4v4h-2v-4h-4C7.967,29,7.967,27,7.968,27z" fill="#FFFFFF"/>
		<path d="M46.967,29.5c-1.93,0-3.5,1.57-3.5,3.5s1.57,3.5,3.5,3.5s3.5-1.57,3.5-3.5S48.896,29.5,46.967,29.5z M46.967,34.5    c-0.827,0-1.5-0.673-1.5-1.5s0.673-1.5,1.5-1.5s1.5,0.673,1.5,1.5S47.794,34.5,46.967,34.5z" fill="#FFFFFF"/>
		<path d="M46.967,25.5c1.93,0,3.5-1.57,3.5-3.5s-1.57-3.5-3.5-3.5s-3.5,1.57-3.5,3.5S45.037,25.5,46.967,25.5z M46.967,20.5    c0.827,0,1.5,0.673,1.5,1.5s-0.673,1.5-1.5,1.5s-1.5-0.673-1.5-1.5S46.14,20.5,46.967,20.5z" fill="#FFFFFF"/>
	</g>
</g>
<g>
</g>
<g>
</g>
<g>
</g>
<g>
</g>
<g>
</g>
<g>
</g>
<g>
</g>
<g>
</g>
<g>
</g>
<g>
</g>
<g>
</g>
<g>
</g>
<g>
</g>
<g>
</g>
<g>
</g>
</svg>
