<?xml version="1.0" encoding="utf-8"?>
<!-- Generator: Adobe Illustrator 16.0.0, SVG Export Plug-In . SVG Version: 6.00 Build 0)  -->
<!DOCTYPE svg PUBLIC "-//W3C//DTD SVG 1.1//EN" "http://www.w3.org/Graphics/SVG/1.1/DTD/svg11.dtd">
<svg version="1.1" id="Layer_1" xmlns="http://www.w3.org/2000/svg" xmlns:xlink="http://www.w3.org/1999/xlink" x="0px" y="0px"
	 width="612px" height="792px" viewBox="0 0 612 792" enable-background="new 0 0 612 792" xml:space="preserve">
<g>
	<path fill="#FFFFFF" d="M280.503,396c0-14.36-11.683-26.042-26.042-26.042S228.418,381.64,228.418,396
		c0,14.359,11.683,26.043,26.042,26.043S280.503,410.359,280.503,396z M247.95,396c0-3.59,2.921-6.511,6.511-6.511
		s6.511,2.921,6.511,6.511s-2.921,6.511-6.511,6.511S247.95,399.59,247.95,396z"/>
	<path fill="#FFFFFF" d="M406.805,243.656c-40.662-40.66-94.764-63.053-152.344-63.053c-57.58,0-111.684,22.393-152.342,63.053
		C61.457,284.318,39.064,338.421,39.064,396c0,57.58,22.393,111.684,63.054,152.344c40.66,40.661,94.762,63.055,152.342,63.055
		c57.581,0,111.683-22.394,152.344-63.054c40.661-40.661,63.054-94.765,63.054-152.344
		C469.858,338.422,447.466,284.318,406.805,243.656z M254.46,591.865c-108,0-195.865-87.865-195.865-195.865
		s87.865-195.865,195.865-195.865S450.326,287.999,450.326,396S362.46,591.865,254.46,591.865z"/>
	<path fill="#FFFFFF" d="M419.148,386.234c-5.395,0-9.766,4.373-9.766,9.766c0,85.425-69.498,154.922-154.922,154.922
		c-5.395,0-9.766,4.373-9.766,9.766c0,5.394,4.372,9.767,9.766,9.767c96.194,0,174.454-78.261,174.454-174.454
		C428.914,390.606,424.542,386.234,419.148,386.234z"/>
	<path fill="#FFFFFF" d="M254.46,282.022c5.395,0,9.766-4.373,9.766-9.766c0-5.394-4.371-9.766-9.766-9.766
		c-73.617,0-133.51,59.893-133.51,133.51c0,5.394,4.371,9.766,9.766,9.766c5.395,0,9.766-4.372,9.766-9.766
		C140.482,333.151,191.612,282.022,254.46,282.022z"/>
	<path fill="#FFFFFF" d="M254.46,509.978c-5.395,0-9.766,4.373-9.766,9.767s4.372,9.766,9.766,9.766
		c73.617,0,133.51-59.893,133.51-133.511c0-5.393-4.372-9.766-9.767-9.766s-9.766,4.373-9.766,9.766
		C368.438,458.848,317.309,509.978,254.46,509.978L254.46,509.978z"/>
	<path fill="#FFFFFF" d="M347.027,396c0-51.041-41.526-92.565-92.567-92.565c-51.041,0-92.567,41.524-92.567,92.565
		c0,51.042,41.526,92.567,92.567,92.567C305.501,488.567,347.027,447.041,347.027,396z M181.425,396
		c0-40.271,32.763-73.034,73.035-73.034c40.272,0,73.035,32.763,73.035,73.034c0,40.272-32.762,73.035-73.035,73.035
		C214.188,469.035,181.425,436.271,181.425,396z"/>
	<path fill="#FFFFFF" d="M563.17,180.604c-5.395,0-9.766,4.373-9.766,9.766v55.341H507.83v-55.341c0-5.393-4.371-9.766-9.767-9.766
		c-5.395,0-9.766,4.373-9.766,9.766v65.106c0,5.394,4.371,9.766,9.766,9.766h22.788v168.363c0,5.941-1.923,16.003-4.111,21.527
		l-23.702,59.811l-9.077-3.598c-2.409-0.951-5.097-0.912-7.475,0.115c-2.377,1.028-4.249,2.958-5.203,5.366l-21.588,54.473
		c-2.883,7.275-2.761,15.239,0.345,22.422c3.105,7.182,8.822,12.726,16.099,15.609c3.458,1.37,7.087,2.065,10.786,2.065
		c12.096,0,22.789-7.266,27.245-18.509l21.588-54.473c1.985-5.015-0.467-10.689-5.482-12.678l-9.078-3.598l23.702-59.811
		c3.074-7.761,5.485-20.379,5.485-28.726V265.242h22.787c5.395,0,9.766-4.373,9.766-9.766v-65.106
		C572.937,184.976,568.564,180.604,563.17,180.604z M486.009,585.692c-1.485,3.75-5.051,6.173-9.084,6.173
		c-1.225,0-2.435-0.233-3.594-0.692c-2.425-0.961-4.331-2.81-5.366-5.203c-1.035-2.395-1.075-5.048-0.114-7.474l17.989-45.396
		l9.074,3.597c0.007,0.003,9.084,3.6,9.084,3.6L486.009,585.692L486.009,585.692z"/>
	<path fill="#FFFFFF" d="M563.17,141.54H48.83C21.904,141.54,0,163.444,0,190.369v411.262c0,26.926,21.904,48.83,48.83,48.83h514.34
		c26.926,0,48.83-21.904,48.83-48.83V190.369C612,163.444,590.096,141.54,563.17,141.54L563.17,141.54z M592.468,601.631
		c0,16.155-13.144,29.298-29.298,29.298H48.83c-16.154,0-29.298-13.143-29.298-29.298V190.369c0-16.155,13.144-29.298,29.298-29.298
		h514.34c16.154,0,29.298,13.143,29.298,29.298V601.631z"/>
	<path fill="#FFFFFF" d="M152.619,276.295c2.114,0,4.245-0.684,6.035-2.094c27.521-21.67,60.649-33.124,95.807-33.124
		c5.395,0,9.766-4.373,9.766-9.766c0-5.393-4.371-9.766-9.766-9.766c-39.584,0-76.893,12.902-107.889,37.31
		c-4.238,3.337-4.967,9.477-1.631,13.714C146.867,275.018,149.728,276.295,152.619,276.295L152.619,276.295z"/>
	<path fill="#FFFFFF" d="M131.03,286.478c-4.237-3.336-10.379-2.605-13.714,1.631C92.909,319.108,80.007,356.416,80.007,396
		c0,5.394,4.371,9.766,9.766,9.766c5.395,0,9.766-4.372,9.766-9.766c0-35.157,11.454-68.286,33.124-95.807
		C135.998,295.955,135.269,289.815,131.03,286.478z"/>
</g>
</svg>
