<?xml version="1.0" encoding="UTF-8"?>
<svg width="33px" height="27px" viewBox="0 0 33 27" version="1.1" xmlns="http://www.w3.org/2000/svg" xmlns:xlink="http://www.w3.org/1999/xlink">
    <!-- Generator: Sketch 46.2 (44496) - http://www.bohemiancoding.com/sketch -->
    <title>Group 448</title>
    <desc>Created with Sketch.</desc>
    <defs>
        <path d="M31.747,17.7699 C31.6563,17.7685 31.5665,17.7887 31.4849,17.829 C30.862,18.1262 30.3153,18.1343 29.6669,17.8278 C29.3804,17.6865 29.035,17.8073 28.8955,18.0975 C28.756,18.3877 28.8752,18.7375 29.1617,18.8788 C29.1675,18.8816 29.1733,18.8845 29.1792,18.887 C30.0962,19.3201 31.0874,19.3105 31.9765,18.8859 C32.2666,18.7524 32.395,18.4059 32.2633,18.112 C32.1711,17.9063 31.97,17.7728 31.7469,17.7693 L31.7469,17.7699 L31.747,17.7699 Z M30.5769,19.7877 L30.5774,19.7875 C31.7312,19.7875 32.8851,20.7697 32.8851,22.3443 C32.8851,22.4994 32.8243,22.6481 32.716,22.7577 C32.3174,23.1617 32.1554,23.4283 32.0866,23.6024 C32.0178,23.7766 32.0197,23.8784 32.0197,24.0976 C32.0197,24.3167 32.0178,24.6531 31.8703,25.0269 C31.7332,25.3743 31.473,25.7427 31.0647,26.1715 C30.9175,26.4066 30.6272,26.5039 30.3707,26.4044 C30.3674,26.4032 30.3642,26.402 30.3608,26.4007 L30.3597,26.4007 C30.1258,26.3071 29.9788,26.0708 29.9962,25.8166 C29.986,25.1659 29.7278,24.9409 29.3037,24.5112 C28.871,24.0729 28.2692,23.416 28.2692,22.3445 C28.2692,20.7699 29.4231,19.7877 30.5769,19.7877 Z M30.5769,20.9566 C30,20.9566 29.4231,21.2893 29.4231,22.3445 C29.4231,23.0264 29.6867,23.2463 30.1194,23.6846 C30.34,23.9081 30.6025,24.1905 30.8088,24.5533 C30.861,24.4043 30.8654,24.298 30.8654,24.0978 C30.8654,23.8786 30.8672,23.5425 31.0148,23.1687 C31.1384,22.8558 31.3778,22.5199 31.7166,22.145 C31.6452,21.2533 31.1142,20.9566 30.5769,20.9566 Z M30.5727,0.5612 C30.8755,0.5589 31.1285,0.7942 31.152,1.1001 L32.3058,16.2949 C32.3242,16.5367 32.1932,16.7649 31.9767,16.8683 C31.0875,17.2927 30.0963,17.3026 29.1793,16.8695 C28.9615,16.7665 28.8295,16.5377 28.848,16.2949 L30.0018,1.1001 C30.0252,0.7976 30.2731,0.5635 30.5727,0.5612 Z M30.5769,8.7634 L30.0318,15.9429 C30.4055,16.0552 30.7584,16.0551 31.1223,15.9451 L30.5769,8.7634 Z M16.7308,17.5888 C18.3171,17.5888 19.6154,18.904 19.6154,20.5109 C19.6154,22.1178 18.3171,23.433 16.7308,23.433 C15.1445,23.433 13.8462,22.1178 13.8462,20.5109 C13.8462,18.904 15.1445,17.5888 16.7308,17.5888 Z M16.7308,18.7576 C15.768,18.7576 15,19.5356 15,20.5109 C15,21.4862 15.768,22.2641 16.7308,22.2641 C17.6935,22.2641 18.4615,21.4862 18.4615,20.5109 C18.4615,19.5356 17.6935,18.7576 16.7308,18.7576 Z M8.6538,16.42 C10.2402,16.42 11.5385,17.7351 11.5385,19.3421 C11.5385,20.949 10.2402,22.2641 8.6538,22.2641 C7.0675,22.2641 5.7692,20.949 5.7692,19.3421 C5.7692,17.7351 7.0675,16.42 8.6538,16.42 Z M8.6538,17.5888 C7.6912,17.5888 6.9231,18.3668 6.9231,19.3421 C6.9231,20.3173 7.6912,21.0953 8.6538,21.0953 C9.6165,21.0953 10.3846,20.3173 10.3846,19.3421 C10.3846,18.3668 9.6165,17.5888 8.6538,17.5888 Z M5.1923,10.5758 C6.7786,10.5758 8.0769,11.891 8.0769,13.4979 C8.0769,15.1048 6.7786,16.42 5.1923,16.42 C3.606,16.42 2.3077,15.1048 2.3077,13.4979 C2.3077,11.891 3.606,10.5758 5.1923,10.5758 Z M5.1923,11.7446 C4.2297,11.7446 3.4615,12.5226 3.4615,13.4979 C3.4615,14.4732 4.2297,15.2511 5.1923,15.2511 C6.155,15.2511 6.9231,14.4731 6.9231,13.4979 C6.9231,12.5227 6.155,11.7446 5.1923,11.7446 Z M9.8077,4.7317 C11.394,4.7317 12.6923,6.0468 12.6923,7.6537 C12.6923,9.2606 11.394,10.5758 9.8077,10.5758 C8.2214,10.5758 6.9231,9.2606 6.9231,7.6537 C6.9231,6.0468 8.2214,4.7317 9.8077,4.7317 Z M9.8077,5.9005 C8.845,5.9005 8.0769,6.6785 8.0769,7.6537 C8.0769,8.629 8.845,9.407 9.8077,9.407 C10.7703,9.407 11.5385,8.629 11.5385,7.6537 C11.5385,6.6785 10.7703,5.9005 9.8077,5.9005 Z M16.7308,4.7317 C18.3171,4.7317 19.6154,6.0468 19.6154,7.6537 C19.6154,9.2606 18.3171,10.5758 16.7308,10.5758 C15.1445,10.5758 13.8462,9.2606 13.8462,7.6537 C13.8462,6.0468 15.1445,4.7317 16.7308,4.7317 Z M16.7308,5.9005 C15.768,5.9005 15,6.6785 15,7.6537 C15,8.629 15.768,9.407 16.7308,9.407 C17.6935,9.407 18.4615,8.629 18.4615,7.6537 C18.4615,6.6785 17.6935,5.9005 16.7308,5.9005 Z M13.36,0.0609 L13.3602,0.0616 C17.0931,0.0626 20.7697,1.5563 22.9527,4.3111 C23.9642,5.5876 24.0918,6.9737 23.7849,8.2643 C23.478,9.555 22.8061,10.803 22.2303,12.1428 C21.0788,14.8221 20.2028,17.7418 22.9875,21.9926 L22.9863,21.9914 C23.1352,22.2176 23.1106,22.5179 22.9268,22.716 C19.1986,26.724 13.4288,28.0231 8.3755,25.9921 C3.3223,23.9612 0.0013,19.0085 -1.14057751e-16,13.5014 C-0.0013,7.9943 3.3174,3.0398 8.3697,1.0062 C9.9547,0.3683 11.6633,0.0609 13.36,0.0609 Z M13.3482,1.2517 C11.7942,1.2438 10.2318,1.5145 8.7957,2.0924 C4.1796,3.9504 1.1526,8.4694 1.1538,13.5009 C1.155,18.5325 4.1843,23.0501 8.8013,24.9058 C13.2816,26.7065 18.3645,25.6368 21.7745,22.2259 C19.1035,17.8555 20.01,14.38 21.1723,11.6756 C21.7717,10.2808 22.4088,9.0589 22.663,7.9901 C22.9172,6.9214 22.8579,6.0583 22.0528,5.0422 C20.1449,2.6347 16.7668,1.269 13.3482,1.2517 Z" id="path-1"></path>
    </defs>
    <g id="Page-1" stroke="none" stroke-width="1" fill="none" fill-rule="evenodd">
        <g id="Artboard-Fr." transform="translate(-219.000000, -628.000000)">
            <g id="CV---Leonardo-Funez-(simplifieÌ)">
                <g id="Group-448" transform="translate(219.000000, 628.000000)">
                    <mask id="mask-2" fill="white">
                        <use xlink:href="#path-1"></use>
                    </mask>
                    <g id="Clip-447"></g>
                    <polygon id="Fill-446" fill="#FFFFFF" mask="url(#mask-2)" points="-10 36.9395 42.8851 36.9395 42.8851 -9.9391 -10 -9.9391"></polygon>
                </g>
            </g>
        </g>
    </g>
</svg>