<?xml version="1.0" encoding="utf-8"?>
<!-- Generator: Adobe Illustrator 16.0.0, SVG Export Plug-In . SVG Version: 6.00 Build 0)  -->
<!DOCTYPE svg PUBLIC "-//W3C//DTD SVG 1.1//EN" "http://www.w3.org/Graphics/SVG/1.1/DTD/svg11.dtd">
<svg version="1.1" id="Layer_1" xmlns="http://www.w3.org/2000/svg" xmlns:xlink="http://www.w3.org/1999/xlink" x="0px" y="0px"
	 width="612px" height="792px" viewBox="0 0 612 792" enable-background="new 0 0 612 792" xml:space="preserve">
<g>
	<g>
		<path fill="#FFFFFF" d="M604.017,115.806c-17.01-17.007-51.394-6.998-108.212,31.506
			c-48.284,32.722-106.293,82.158-163.338,139.203c-57.044,57.047-106.481,115.053-139.203,163.339
			c-19.808,29.23-32.056,52.51-36.983,70.553c-21.479-9.444-47.047-8.775-68.715,4.09c-20.053,11.904-33.161,31.931-36.127,55.101
			c-0.126,0.6-0.214,1.204-0.26,1.812c-0.029,0.244-0.054,0.5-0.076,0.77c-0.011,0.091-0.024,0.181-0.033,0.271
			c-1.771,15.807-10.654,29.542-24.372,37.687c-4.89,2.901-10.136,4.941-15.593,6.057c-5.027,1.028-9.079,4.746-10.534,9.667
			c-1.456,4.921-0.079,10.244,3.58,13.843c23.088,22.699,53.586,34.476,84.397,34.476c21.114,0,42.375-5.534,61.481-16.876h-0.001
			c14.579-8.654,26.9-20.005,36.625-33.738c0.134-0.188,0.263-0.38,0.386-0.575c14.505-20.218,17.911-45.886,9.835-68.78
			c18.38-4.433,42.482-16.906,73.096-37.653c48.285-32.722,106.292-82.157,163.339-139.203
			c57.045-57.046,106.48-115.053,139.203-163.339C611.013,167.2,621.024,132.815,604.017,115.806z M164.11,617.293
			c-0.211,0.285-0.41,0.578-0.598,0.878c-7.385,10.24-16.689,18.73-27.663,25.245c-29.535,17.534-65.741,17.033-94.325,0.217
			c20.645-12.517,34.093-33.28,37.044-57.187c0.037-0.196,0.07-0.395,0.1-0.593c0.062-0.405,0.109-0.815,0.136-1.226
			c0.031-0.202,0.059-0.403,0.08-0.608c1.65-15.002,9.982-27.99,22.862-35.637c19.504-11.58,44.021-7.507,58.885,8.458
			c0.191,0.218,0.392,0.43,0.592,0.643c2.031,2.265,3.875,4.752,5.484,7.463C176.456,581.367,175.436,601.915,164.11,617.293z
			 M260.946,499.052c-50.648,35.311-73.578,40.277-79.349,39.172c-1.106-5.77,3.861-28.701,39.173-79.349
			c2.137-3.064,4.347-6.174,6.616-9.314l42.874,42.874C267.12,494.704,264.012,496.916,260.946,499.052z M292.707,475.596
			l-48.482-48.481c7.985-10.286,16.541-20.857,25.594-31.622l54.51,54.51C313.564,459.056,302.993,467.611,292.707,475.596z
			 M545.004,214.994c-31.743,45.53-78.388,99.768-131.339,152.719c-22.771,22.77-45.772,44.365-68.224,64.118l-57.451-57.452
			c19.754-22.449,41.351-45.454,64.119-68.223c52.951-52.952,107.188-99.596,152.719-131.339
			c50.65-35.313,73.583-40.277,79.349-39.172C585.282,141.416,580.314,164.346,545.004,214.994z"/>
	</g>
</g>
<g>
	<g>
		<path fill="#FFFFFF" d="M144.388,585.518c-6.175-4.547-14.871-3.231-19.419,2.945l-2.343,3.181
			c-3.201,3.953-7.102,7.309-11.591,9.974c-1.824,1.083-3.741,2.025-5.695,2.837c-0.221,0.082-0.443,0.151-0.662,0.243l-4.228,1.809
			c-7.052,3.016-10.326,11.178-7.31,18.23c2.256,5.272,7.384,8.432,12.778,8.432c1.82,0,3.673-0.361,5.454-1.123l3.424-1.464
			c0.164-0.059,0.329-0.105,0.492-0.171c3.414-1.372,6.752-3.023,9.927-4.907c7.454-4.426,13.937-10.046,19.265-16.708
			c0.115-0.145,0.228-0.291,0.337-0.438l2.519-3.42C151.884,598.761,150.566,590.067,144.388,585.518z"/>
	</g>
</g>
</svg>
