<?xml version="1.0" encoding="utf-8"?>
<!-- Generator: Adobe Illustrator 16.0.0, SVG Export Plug-In . SVG Version: 6.00 Build 0)  -->
<!DOCTYPE svg PUBLIC "-//W3C//DTD SVG 1.1//EN" "http://www.w3.org/Graphics/SVG/1.1/DTD/svg11.dtd">
<svg version="1.1" id="Layer_1" xmlns="http://www.w3.org/2000/svg" xmlns:xlink="http://www.w3.org/1999/xlink" x="0px" y="0px"
	 width="612px" height="792px" viewBox="0 0 612 792" enable-background="new 0 0 612 792" xml:space="preserve">
<g>
	<g>
		<g>
			<path fill="#FFFFFF" d="M483.678,534.193v-19.742h98.705l0,0c16.326,0,29.613-13.287,29.613-29.613V326.904
				c0-16.326-13.287-29.613-29.613-29.613H305.998c-16.326,0-29.613,13.287-29.613,29.613v157.934
				c0,16.326,13.287,29.613,29.613,29.613h98.709v19.742H236.902v-9.871c0-16.326-13.859-29.613-30.186-29.613h-33.394L71.9,329.607
				c4.432-6.387,7.068-14.106,7.068-22.447c0-2.427-0.296-4.778-0.721-7.087l41.319-75.748c3.81,18.764,14.253,35.525,30.096,47.37
				l6.447,4.818l24.371-21.666c5.34,1.934,10.808,2.962,16.365,2.962c27.215,0,49.355-22.141,49.355-49.355
				c0-3.584-0.562-7.187-1.401-10.769l24.421-21.705L265.193,169c-14.106-24.371-40.293-39.514-68.346-39.514
				c-1.855,0-3.681,0.147-5.507,0.276l-33.374-33.374l-73.352,61.129l13.592,18.124L33.347,268.31C14.49,271.28,0,287.499,0,307.162
				c0,14.807,8.281,27.58,20.375,34.331l81.632,153.216H68.523c-16.326,0-29.041,13.287-29.041,29.613v9.871H0v59.225h29.613v108.58
				h19.742v-108.58h19.742v108.58H88.84v-108.58h434.32v108.58h19.742v-108.58h19.742v108.58h19.742v-108.58H612v-59.225H483.678
				L483.678,534.193z M296.127,326.904c0-5.439,4.432-9.871,9.871-9.871h276.385c5.439,0,9.871,4.432,9.871,9.871v128.322H296.127
				V326.904z M404.707,494.709h-98.709c-5.439,0-9.871-4.432-9.871-9.871v-9.871h296.127v9.871c0,5.439-4.432,9.871-9.871,9.871
				h-98.709H404.707z M463.934,514.451v19.742h-39.484v-19.742H463.934z M199.501,237.946l26.326-23.403
				C223.19,227.12,212.55,236.783,199.501,237.946z M196.856,149.229c18.36-0.002,35.662,8.665,46.808,23.046l-88.227,78.426
				c-11.401-11.094-17.806-26.118-17.806-42.248C137.632,175.791,164.194,149.229,196.856,149.229z M156.75,123.1l11.737,11.736
				c-19.861,7.678-35.89,23.096-44.261,42.613l-12.566-16.77L156.75,123.1z M110.661,192.253l2.262,3.012L67.201,279.1
				c-3.377-3.337-7.355-6.022-11.747-7.977L110.661,192.253z M19.742,307.162c0-10.887,8.854-19.742,19.742-19.742
				c10.887,0,19.742,8.854,19.742,19.742c0,10.887-8.853,19.742-19.742,19.742C28.596,326.904,19.742,318.051,19.742,307.162z
				 M45.179,346.072c4.077-0.593,7.927-1.787,11.5-3.534l93.477,152.171h-25.783L45.179,346.072z M68.523,514.451h138.193
				c5.439,0,10.443,4.432,10.443,9.871v9.871H59.227v-9.871h-0.002C59.225,518.883,63.084,514.451,68.523,514.451z M592.254,573.678
				h-9.871h-59.225H88.838H29.613h-9.871v-19.742h19.17H236.33h168.379h78.967h108.578V573.678z"/>
			<rect x="286.256" y="257.807" fill="#FFFFFF" width="315.869" height="19.742"/>
			<path fill="#FFFFFF" d="M424.449,90.002h-78.967v157.934h78.967V90.002z M404.707,228.195h-39.484v-39.484h39.484V228.195z
				 M404.707,168.969h-39.484v-59.225h39.484V168.969z"/>
			<circle fill="#FFFFFF" cx="384.965" cy="208.453" r="9.871"/>
			<path fill="#FFFFFF" d="M513.287,90.002H434.32v157.934h78.967V90.002z M454.061,109.744h39.484v59.225h-39.484V109.744z
				 M493.547,228.195h-39.484v-39.484h39.484V228.195z"/>
			<circle fill="#FFFFFF" cx="473.803" cy="208.453" r="9.871"/>
			<path fill="#FFFFFF" d="M602.125,90.002h-78.967v157.934h78.967V90.002z M542.898,109.744h39.484v59.225h-39.484V109.744z
				 M582.385,228.195H542.9v-39.484h39.484V228.195z"/>
			<circle fill="#FFFFFF" cx="562.643" cy="208.453" r="9.871"/>
		</g>
	</g>
</g>
</svg>
