<?xml version="1.0" encoding="utf-8"?>
<!-- Generator: Adobe Illustrator 16.0.0, SVG Export Plug-In . SVG Version: 6.00 Build 0)  -->
<!DOCTYPE svg PUBLIC "-//W3C//DTD SVG 1.1//EN" "http://www.w3.org/Graphics/SVG/1.1/DTD/svg11.dtd">
<svg version="1.1" id="Layer_1" xmlns="http://www.w3.org/2000/svg" xmlns:xlink="http://www.w3.org/1999/xlink" x="0px" y="0px"
	 width="612px" height="792px" viewBox="0 0 612 792" enable-background="new 0 0 612 792" xml:space="preserve">
<g>
	<g>
		<path fill="#FFFFFF" d="M601.74,371.438h-39.079c-17.759,0-32.208,14.449-32.208,32.208v2.991h-40.502v-29.626
			c22.076-18.905,36.108-46.95,36.108-78.225c0-56.793-46.204-102.996-102.996-102.996s-102.995,46.204-102.995,102.996
			c0,10.99,1.749,21.576,4.951,31.515h-33.12c2.217-10.158,3.397-20.702,3.397-31.515c0-81.412-66.233-147.646-147.646-147.646
			C66.237,151.139,0,217.374,0,298.787c0,52.174,27.203,98.115,68.17,124.383v207.431c0,5.667,4.592,10.261,10.261,10.261h401.258
			c5.668,0,10.261-4.596,10.261-10.261v-66.088h40.502v2.991c0,17.759,14.448,32.208,32.207,32.208h39.08
			c5.668,0,10.261-4.595,10.261-10.261V381.7C612.001,376.033,607.409,371.438,601.74,371.438z M20.522,298.787
			c0-70.097,57.028-127.125,127.124-127.125c70.097,0,127.124,57.029,127.124,127.125c0,70.097-57.028,127.124-127.124,127.124
			C77.55,425.911,20.522,368.884,20.522,298.787z M469.428,620.337H88.692V434.139c18.068,7.9,38.006,12.295,58.954,12.295
			c63.104,0,117.08-39.798,138.167-95.61h48.417c17.912,30.458,51.013,50.958,88.829,50.958c16.673,0,32.419-4.007,46.367-11.071
			V620.337L469.428,620.337z M423.062,381.26c-45.478,0-82.475-36.997-82.475-82.474s36.996-82.474,82.475-82.474
			c45.477,0,82.475,36.997,82.475,82.474S468.538,381.26,423.062,381.26z M530.452,543.989H489.95V427.16h40.502V543.989z
			 M591.479,579.188h-28.817c-6.444,0-11.686-5.241-11.686-11.686v-13.254v-137.35v-13.251c0-6.443,5.241-11.686,11.686-11.686
			h28.817V579.188z"/>
	</g>
</g>
<g>
	<g>
		<path fill="#FFFFFF" d="M147.646,247.71c-28.164,0-51.077,22.913-51.077,51.077c0,28.164,22.912,51.077,51.077,51.077
			c28.164,0,51.078-22.912,51.078-51.077C198.725,270.622,175.811,247.71,147.646,247.71z M147.646,329.341
			c-16.847,0.001-30.555-13.706-30.555-30.554c0-16.85,13.708-30.555,30.555-30.555c16.849,0,30.556,13.708,30.556,30.555
			C178.202,315.634,164.496,329.341,147.646,329.341z"/>
	</g>
</g>
<g>
	<g>
		<path fill="#FFFFFF" d="M229.69,216.745c-4.009-4.007-10.504-4.007-14.512,0l-23.129,23.129c-4.007,4.007-4.007,10.504,0,14.51
			c2.003,2.004,4.629,3.006,7.255,3.006c2.625,0,5.252-1.001,7.257-3.006l23.129-23.13
			C233.698,227.249,233.698,220.751,229.69,216.745z"/>
	</g>
</g>
<g>
	<g>
		<path fill="#FFFFFF" d="M103.247,343.189c-4.009-4.007-10.504-4.007-14.514,0l-23.129,23.129c-4.006,4.007-4.006,10.504,0,14.51
			c2.005,2.003,4.631,3.006,7.257,3.006s5.252-1.002,7.257-3.006l23.129-23.129C107.253,353.692,107.253,347.195,103.247,343.189z"
			/>
	</g>
</g>
<g>
	<g>
		<path fill="#FFFFFF" d="M229.69,366.318l-23.13-23.129c-4.009-4.007-10.504-4.007-14.512,0c-4.008,4.006-4.007,10.504,0,14.51
			l23.129,23.129c2.005,2.003,4.631,3.006,7.257,3.006c2.626,0,5.252-1.002,7.257-3.006
			C233.698,376.822,233.698,370.325,229.69,366.318z"/>
	</g>
</g>
<g>
	<g>
		<path fill="#FFFFFF" d="M103.247,239.875l-23.129-23.129c-4.009-4.007-10.504-4.007-14.512,0s-4.007,10.504,0,14.51l23.128,23.13
			c2.004,2.003,4.631,3.006,7.257,3.006s5.252-1.001,7.257-3.006C107.253,250.378,107.253,243.88,103.247,239.875z"/>
	</g>
</g>
<g>
	<g>
		<path fill="#FFFFFF" d="M467.522,328.737l-11.506-11.506c-4.01-4.007-10.505-4.007-14.513,0c-4.007,4.007-4.007,10.504,0,14.51
			l11.505,11.506c2.005,2.003,4.631,3.006,7.257,3.006s5.252-1.002,7.257-3.006C471.529,339.24,471.529,332.742,467.522,328.737z"/>
	</g>
</g>
<g>
	<g>
		<path fill="#FFFFFF" d="M404.62,265.833l-11.506-11.506c-4.01-4.007-10.505-4.007-14.513,0c-4.007,4.007-4.007,10.504,0,14.51
			l11.505,11.506c2.005,2.003,4.631,3.006,7.257,3.006s5.252-1.002,7.257-3.006C408.628,276.336,408.628,269.84,404.62,265.833z"/>
	</g>
</g>
<g>
	<g>
		<path fill="#FFFFFF" d="M404.619,317.23c-4.01-4.007-10.505-4.007-14.513,0l-11.506,11.506c-4.007,4.006-4.007,10.504,0,14.51
			c2.003,2.003,4.629,3.006,7.256,3.006c2.624,0,5.252-1.002,7.257-3.006l11.506-11.506
			C408.627,327.734,408.627,321.236,404.619,317.23z"/>
	</g>
</g>
<g>
	<g>
		<path fill="#FFFFFF" d="M467.522,254.327c-4.009-4.007-10.505-4.007-14.513,0l-11.506,11.506c-4.007,4.007-4.007,10.505,0,14.51
			c2.003,2.004,4.63,3.006,7.256,3.006s5.252-1.002,7.257-3.006l11.506-11.506C471.529,264.83,471.529,258.334,467.522,254.327z"/>
	</g>
</g>
<g>
	<g>
		<path fill="#FFFFFF" d="M403.36,487.307H154.759c-5.668,0-10.261,4.596-10.261,10.261v65.422c0,5.667,4.592,10.261,10.261,10.261
			H403.36c5.668,0,10.261-4.595,10.261-10.261v-65.422C413.622,491.902,409.028,487.307,403.36,487.307z M165.021,552.729v-44.9
			H393.1v44.9H165.021z"/>
	</g>
</g>
<g>
	<g>
		<path fill="#FFFFFF" d="M287.834,401.812c-16.973,0-30.782,13.808-30.782,30.781s13.809,30.783,30.782,30.783
			c16.974,0,30.782-13.809,30.782-30.783C318.616,415.62,304.807,401.812,287.834,401.812z M287.834,442.854
			c-5.657,0-10.259-4.602-10.259-10.261c0-5.657,4.602-10.259,10.259-10.259c5.658,0,10.26,4.602,10.26,10.259
			S293.49,442.854,287.834,442.854z"/>
	</g>
</g>
<g>
	<g>
		<path fill="#FFFFFF" d="M361.709,401.812c-16.973,0-30.781,13.808-30.781,30.781s13.809,30.783,30.781,30.783
			c16.974,0,30.782-13.809,30.782-30.783C392.491,415.62,378.682,401.812,361.709,401.812z M361.709,442.854
			c-5.657,0-10.259-4.602-10.259-10.261c0-5.657,4.602-10.259,10.259-10.259c5.658,0,10.26,4.602,10.26,10.259
			S367.367,442.854,361.709,442.854z"/>
	</g>
</g>
<g>
	<g>
		<circle fill="#FFFFFF" cx="423.068" cy="298.79" r="10.26"/>
	</g>
</g>
</svg>
